<?xml version="1.0" standalone="no"?>
<!DOCTYPE svg PUBLIC "-//W3C//DTD SVG 1.1//EN" "http://www.w3.org/Graphics/SVG/1.1/DTD/svg11.dtd" >
<svg xmlns="http://www.w3.org/2000/svg" xmlns:xlink="http://www.w3.org/1999/xlink" version="1.1">
<metadata>
Created by FontForge 20201107 at Fri May 24 21:06:22 2024
 By 
Copyright 2016 The Inter Project Authors (https://github.com/rsms/inter)
</metadata>
<defs>
<font id="Inter18pt-MediumItalic" horiz-adv-x="0" >
  <font-face 
    font-family="Inter 18pt Medium"
    font-weight="500"
    font-style="italic"
    font-stretch="normal"
    units-per-em="2048"
    panose-1="2 0 5 3 0 0 0 2 0 4"
    ascent="1638"
    descent="-410"
    x-height="1104"
    cap-height="1490"
    bbox="-1564 -670 5316 2276"
    underline-thickness="158"
    underline-position="-385"
    slope="-9.3988"
    unicode-range="U+0020-1F852"
  />
<missing-glyph horiz-adv-x="1344" 
d="M856 -416h-688l376 2272h688zM389 -192l-10 -64h320l10 64h-215l236 127l11 65h-320l-11 -64h216zM474 320l-42 -256h320l42 256h-320zM698 128h-192l21 128h192zM538 704l-43 -256h320l43 256h-192l-22 -128h64l11 64h64l-21 -128h-192l32 192h-64zM559 832l-11 -64h320
l37 224h-64l-26 -160h-256zM580 960l-11 -64h192l27 160h128l10 64h-320l-10 -64h128l-16 -96h-128zM756 1248h-64l15 96h64zM654 1408l-37 -224h320l11 64h-128l26 160h-192zM675 1536l-10 -64h320l10 64h-144l16 96h144l11 64h-320l-11 -64h112l-16 -96h-112z" />
    <glyph glyph-name=".notdef" horiz-adv-x="1344" 
d="M856 -416h-688l376 2272h688zM389 -192l-10 -64h320l10 64h-215l236 127l11 65h-320l-11 -64h216zM474 320l-42 -256h320l42 256h-320zM698 128h-192l21 128h192zM538 704l-43 -256h320l43 256h-192l-22 -128h64l11 64h64l-21 -128h-192l32 192h-64zM559 832l-11 -64h320
l37 224h-64l-26 -160h-256zM580 960l-11 -64h192l27 160h128l10 64h-320l-10 -64h128l-16 -96h-128zM756 1248h-64l15 96h64zM654 1408l-37 -224h320l11 64h-128l26 160h-192zM675 1536l-10 -64h320l10 64h-144l16 96h144l11 64h-320l-11 -64h112l-16 -96h-112z" />
    <glyph glyph-name=".null" horiz-adv-x="981" 
 />
    <glyph glyph-name="nonmarkingreturn" horiz-adv-x="682" 
 />
    <glyph glyph-name="space" unicode=" " horiz-adv-x="533" 
 />
    <glyph glyph-name="exclam" unicode="!" horiz-adv-x="589" 
d="M174 463l154 1027h241l-187 -1027h-208zM211 -16q-64 0 -103 47t-29 113q10 57 55 94t100 37q66 0 104 -46.5t28 -110.5q-8 -56 -53 -95t-102 -39z" />
    <glyph glyph-name="quotedbl" unicode="&#x22;" horiz-adv-x="982" 
d="M283 919l70 571h220l-118 -571h-172zM648 919l70 571h220l-118 -571h-172z" />
    <glyph glyph-name="numbersign" unicode="#" horiz-adv-x="1294" 
d="M692 0l320 1490h176l-319 -1490h-177zM39 399l37 174h1130l-38 -174h-1129zM169 0l320 1490h175l-319 -1490h-176zM152 915l37 176h1130l-39 -176h-1128z" />
    <glyph glyph-name="dollar" unicode="$" horiz-adv-x="1313" 
d="M467 -214l318 1918h131l-318 -1918h-131zM582 -24q-169 0 -288.5 54.5t-176 156.5t-39.5 242h227q-8 -84 27 -141t104 -86t160 -29q96 0 176 30.5t131.5 84.5t63.5 127q11 63 -17 104t-86 69.5t-141 51.5l-166 45q-176 48 -267.5 143t-65.5 254q21 129 102 225.5
t205.5 150t276.5 53.5q154 0 265.5 -54t166.5 -150t38 -221h-220q7 108 -66 168t-203 60q-91 0 -163 -28.5t-117.5 -79t-56.5 -114.5q-11 -66 21 -109t90 -69t123 -44l142 -38q76 -20 147.5 -52t126 -81t80 -120t9.5 -168q-21 -128 -99.5 -226t-207 -153.5t-302.5 -55.5z
" />
    <glyph glyph-name="percent" unicode="%" horiz-adv-x="1980" 
d="M546 807q-99 0 -160.5 43.5t-85 116.5t-9.5 160l12 67q15 88 63 161t124.5 116t173.5 43q99 0 160 -43t84.5 -116t8.5 -161l-11 -67q-15 -87 -62.5 -160t-123 -116.5t-174.5 -43.5zM571 956q72 0 111.5 50.5t51.5 120.5l11 67q12 71 -10.5 122t-95.5 51q-70 0 -111.5 -51
t-53.5 -122l-11 -67q-11 -70 12 -120.5t96 -50.5zM1381 -27q-98 0 -160 43.5t-85 116t-9 160.5l11 67q15 88 63.5 160.5t124.5 115.5t173 43q100 0 161 -43t84 -115.5t8 -160.5l-11 -67q-14 -88 -61.5 -160.5t-123.5 -116t-175 -43.5zM1406 121q72 0 112 50.5t51 121.5
l12 67q12 71 -11 121.5t-96 50.5q-70 0 -111 -51t-53 -121l-11 -67q-12 -71 11.5 -121.5t95.5 -50.5zM290 0l1271 1490h184l-1271 -1490h-184z" />
    <glyph glyph-name="ampersand" unicode="&#x26;" horiz-adv-x="1397" 
d="M491 -21q-152 0 -254 56.5t-146.5 153.5t-25.5 217q15 88 61 154t121.5 126t179.5 127l275 174q36 22 70 50t59.5 64.5t32.5 81.5q9 61 -27.5 100.5t-108.5 39.5q-54 0 -100 -23t-76.5 -64t-38.5 -96q-7 -47 7.5 -93t47.5 -100.5t83 -126.5l560 -820h-243l-458 677
q-64 96 -113.5 173.5t-72.5 153.5t-9 166q17 98 74.5 173.5t146.5 118.5t200 43q117 0 195 -46t112 -124t18 -174q-10 -64 -42.5 -120.5t-83 -106t-118.5 -94.5l-338 -220q-97 -63 -143 -119t-56 -124q-9 -63 14.5 -111.5t74.5 -75.5t124 -27q88 0 177 38.5t166 108.5
t131.5 164t72.5 204h198q-22 -137 -67.5 -236t-100.5 -165t-108 -107l-59 -46q-87 -74 -199 -109.5t-213 -35.5z" />
    <glyph glyph-name="quotesingle" unicode="'" horiz-adv-x="616" 
d="M283 919l70 571h220l-118 -571h-172z" />
    <glyph glyph-name="parenleft" unicode="(" horiz-adv-x="729" 
d="M196 604q28 165 90 344.5t146.5 344t178.5 285.5h209q-101 -155 -183 -323.5t-138 -335t-81 -314.5q-22 -134 -19.5 -270t31 -287.5t82.5 -329.5h-209q-91 214 -117.5 439t10.5 447z" />
    <glyph glyph-name="parenright" unicode=")" horiz-adv-x="726" 
d="M-60 -285q110 173 188 323t126.5 288.5t71.5 275.5q25 151 23.5 318t-27.5 334.5t-74 320.5h211q53 -120 82 -284t31 -343.5t-26 -346.5q-37 -225 -137 -450.5t-258 -435.5h-211z" />
    <glyph glyph-name="asterisk" unicode="*" horiz-adv-x="1052" 
d="M462 652l67 307l-285 -167l-56 138l294 140l-251 140l103 140l232 -167l36 307h159l-65 -307l283 167l58 -140l-295 -140l252 -140l-103 -138l-231 167l-39 -307h-159z" />
    <glyph glyph-name="plus" unicode="+" horiz-adv-x="1354" 
d="M503 94l163 985h196l-163 -985h-196zM174 488l33 198h984l-33 -198h-984z" />
    <glyph glyph-name="comma" unicode="," horiz-adv-x="586" 
d="M-40 -353l181 568h232l-255 -568h-158z" />
    <glyph glyph-name="hyphen" unicode="-" horiz-adv-x="936" 
d="M826 717l-31 -189h-662l32 189h661z" />
    <glyph glyph-name="period" unicode="." horiz-adv-x="586" 
d="M211 -16q-64 0 -103 47t-29 113q10 57 55 94t100 37q66 0 104 -46.5t28 -110.5q-8 -56 -53 -95t-102 -39z" />
    <glyph glyph-name="slash" unicode="/" horiz-adv-x="743" 
d="M876 1560l-774 -1784h-196l775 1784h195z" />
    <glyph glyph-name="zero" unicode="0" horiz-adv-x="1312" 
d="M562 -21q-174 0 -282 91t-145 262.5t2 411.5q40 241 134.5 412.5t233 263t310.5 91.5t280 -91t146 -262t-2 -412q-39 -242 -133 -413.5t-232.5 -262.5t-311.5 -91zM593 173q105 0 190 68t144.5 196.5t89.5 308.5q30 179 13 307t-79 196.5t-168 68.5q-103 0 -187.5 -67
t-145 -195.5t-91.5 -312.5q-29 -179 -12 -306.5t79.5 -195.5t166.5 -68z" />
    <glyph glyph-name="one" unicode="1" horiz-adv-x="831" 
d="M827 1490l-247 -1490h-222l212 1281h-8l-399 -254l38 225l375 238h251z" />
    <glyph glyph-name="two" unicode="2" horiz-adv-x="1243" 
d="M38 0l28 167l597 513q93 82 157.5 145.5t101.5 122.5t48 126q13 78 -10 132.5t-76 84t-131 29.5q-81 0 -150.5 -34t-116.5 -96t-61 -147h-215q23 140 100.5 245t194.5 164t259 59q144 0 245.5 -56.5t149.5 -154t26 -222.5q-10 -64 -37 -124.5t-76.5 -125t-127.5 -141
t-191 -172.5l-363 -312l-1 -9h670l-31 -194h-990z" />
    <glyph glyph-name="three" unicode="3" horiz-adv-x="1274" 
d="M552 -21q-154 0 -265 54.5t-165 151.5t-36 224h228q-8 -73 22 -126.5t91.5 -82t144.5 -28.5q89 0 163 30.5t122.5 85.5t60.5 127q13 76 -17 133t-98 89.5t-171 32.5h-126l31 185h126q84 0 152 29t113 82t57 125q12 69 -11 121t-75.5 80.5t-130.5 28.5q-76 0 -144 -27.5
t-114.5 -79t-60.5 -123.5h-218q23 125 103.5 219t200.5 147.5t260 53.5q142 0 241 -55t145 -147t27 -203q-21 -126 -106.5 -213.5t-209.5 -118.5l-2 -10q98 -15 159.5 -64t86 -124.5t9.5 -167.5q-21 -124 -104.5 -221t-210.5 -152.5t-278 -55.5z" />
    <glyph glyph-name="four" unicode="4" horiz-adv-x="1334" 
d="M60 303l30 182l820 1005h145l-44 -262h-89l-592 -724l-1 -9h897l-31 -192h-1135zM726 0l59 357l16 85l174 1048h215l-247 -1490h-217z" />
    <glyph glyph-name="five" unicode="5" horiz-adv-x="1225" 
d="M517 -20q-141 0 -244 54.5t-155 149.5t-36 217h221q-9 -100 54.5 -165t176.5 -65q85 0 160.5 39.5t127.5 110t66 162.5q16 92 -9.5 162.5t-84.5 110.5t-146 40q-77 0 -157 -28t-128 -78l-205 24l204 776h838l-32 -194h-646l-114 -421h7q57 49 134 78.5t165 29.5
q136 0 233.5 -64t142 -176.5t19.5 -258.5t-108 -260t-208 -179t-276 -65z" />
    <glyph glyph-name="six" unicode="6" horiz-adv-x="1272" 
d="M572 -21q-106 0 -200.5 38t-160.5 122t-90.5 221t7.5 335q32 192 92.5 343.5t147.5 257t198 160.5t243 55q134 0 233 -52.5t153 -144t50 -211.5h-221q-7 97 -61.5 154t-158.5 57q-112 0 -202 -65t-152.5 -185t-90.5 -286h9q50 64 109.5 108t129 67t145.5 23
q133 0 232.5 -63.5t147.5 -174.5t24 -254q-24 -144 -103.5 -258.5t-202.5 -180.5t-278 -66zM577 170q84 0 161 41.5t130 112t68 158.5q15 86 -10 156t-83 111.5t-142 41.5q-66 0 -126.5 -24.5t-110 -67.5t-82.5 -99t-44 -120q-13 -83 12.5 -154t84 -113.5t142.5 -42.5z" />
    <glyph glyph-name="seven" unicode="7" horiz-adv-x="1151" 
d="M83 0l863 1286l1 9h-742l33 195h987l-34 -202l-861 -1288h-247z" />
    <glyph glyph-name="eight" unicode="8" horiz-adv-x="1271" 
d="M551 -21q-156 0 -269.5 54t-168 148.5t-34.5 216.5q16 94 68.5 174t129 133t163.5 68l1 7q-106 27 -158 119.5t-32 212.5q19 116 93 206t188 141.5t251 51.5q136 0 237.5 -51.5t151.5 -141.5t31 -205q-13 -81 -56 -150t-106 -117t-139 -67l-1 -6q81 -16 140.5 -69.5
t87 -133t11.5 -174.5q-21 -121 -102 -215.5t-206.5 -148t-280.5 -53.5zM564 164q90 0 164.5 30.5t123 86.5t61.5 132q12 77 -15.5 136t-88 93t-147.5 34q-86 0 -161 -33t-126 -92t-65 -137q-13 -74 12.5 -130.5t86.5 -88t155 -31.5zM679 857q75 0 139 30t107 83.5t54 123.5
q12 71 -10 122.5t-73 80t-127 28.5q-75 0 -139 -28.5t-107 -80t-55 -122.5t10.5 -124.5t74 -83t126.5 -29.5z" />
    <glyph glyph-name="nine" unicode="9" horiz-adv-x="1273" 
d="M533 -21q-134 0 -235.5 52t-156.5 145t-51 213h223q6 -96 61 -155t161 -59q111 0 201 65t152 185.5t90 287.5h-10q-47 -61 -109.5 -105.5t-133.5 -68t-149 -23.5q-133 0 -230.5 63.5t-143 175t-22.5 253.5q24 141 103 256t203 182t282 65q107 0 200.5 -39t159 -122.5
t89.5 -220t-9 -332.5q-32 -192 -91.5 -343.5t-145 -258t-195.5 -161.5t-243 -55zM644 701q62 0 121 24.5t107.5 66.5t82 98t44.5 120q14 83 -13.5 153.5t-88 113.5t-146.5 43q-83 0 -158 -41t-126.5 -112t-65.5 -159q-14 -85 12 -154.5t85.5 -111t145.5 -41.5z" />
    <glyph glyph-name="colon" unicode=":" horiz-adv-x="587" 
d="M212 -16q-64 0 -103 47t-29 113q10 57 55 94t100 37q66 0 104 -46.5t28 -110.5q-8 -56 -53 -95t-102 -39zM340 764q-64 0 -103 47t-29 113q10 57 55 94t100 37q66 0 104 -46.5t28 -110.5q-8 -56 -53 -95t-102 -39z" />
    <glyph glyph-name="semicolon" unicode=";" horiz-adv-x="606" 
d="M-40 -353l181 568h232l-255 -568h-158zM360 764q-64 0 -103 47t-29 113q10 57 55 94t100 37q66 0 104 -46.5t28 -110.5q-8 -56 -53 -95t-102 -39z" />
    <glyph glyph-name="less" unicode="&#x3c;" horiz-adv-x="1354" 
d="M159 505l28 164l1043 469l-35 -226l-766 -323l6 13l-3 -30l-6 11l660 -323l-37 -224z" />
    <glyph glyph-name="equal" unicode="=" horiz-adv-x="1354" 
d="M238 714l32 193h934l-32 -193h-934zM163 266l32 193h934l-32 -193h-934z" />
    <glyph glyph-name="greater" unicode="&#x3e;" horiz-adv-x="1354" 
d="M1178 505l-1044 -469l38 224l763 323l-6 -11l3 30l6 -13l-657 323l35 226l890 -469z" />
    <glyph glyph-name="question" unicode="?" horiz-adv-x="1085" 
d="M376 450l4 28q23 127 61 198t93 114t129 85q77 44 129.5 103t65.5 137q11 64 -11.5 111t-70 72.5t-113.5 25.5q-62 0 -119 -25.5t-99 -77t-58 -130.5h-221q26 134 97.5 227.5t177.5 143t234 49.5q135 0 233 -50t145 -139t27 -206q-19 -121 -88.5 -208t-179.5 -149
q-70 -39 -114 -74.5t-70 -83.5t-40 -127l-4 -24h-208zM405 -16q-62 0 -97.5 42t-25.5 103q9 62 58.5 103.5t112.5 41.5q62 0 97 -41.5t25 -103.5q-10 -61 -59 -103t-111 -42z" />
    <glyph glyph-name="at" unicode="@" horiz-adv-x="2011" 
d="M900 -406q-222 0 -388 63t-270.5 183t-141 292.5t-0.5 391.5q35 213 124.5 385t227 294.5t318 187.5t397.5 65q208 0 361.5 -65.5t249.5 -181t132 -266.5t8 -324q-19 -114 -53 -220t-89 -189.5t-135 -132t-191 -48.5q-80 0 -133.5 22.5t-79.5 61.5t-26 87h-6
q-37 -67 -117.5 -116.5t-198.5 -49.5q-133 0 -217 65t-115 177.5t-8 254.5q23 141 95 250t177.5 171t226.5 62q99 0 162 -36.5t83 -79.5h8l15 92h176l-110 -662q-10 -58 9.5 -97t78.5 -39q69 0 118 45.5t83 139t58 236.5q23 141 0 262.5t-93 213t-189 143t-289 51.5
q-172 0 -317.5 -52t-257 -150.5t-185 -240t-102.5 -319.5q-29 -179 -4.5 -318.5t102.5 -236t208.5 -147t311.5 -50.5q83 0 164 14t148 31.5t104 31.5l31 -164q-49 -20 -122 -40.5t-160 -34t-179 -13.5zM923 208q90 0 155 37t105.5 110.5t58.5 181.5q18 109 1 175t-67.5 96
t-135.5 30q-80 0 -144.5 -38.5t-107.5 -106.5t-57 -156q-15 -94 -2 -168.5t60.5 -117.5t133.5 -43z" />
    <glyph glyph-name="A" unicode="A" horiz-adv-x="1436" 
d="M-48 0l779 1490h278l292 -1490h-236l-152 831q-15 96 -34.5 234t-41.5 329h50q-82 -185 -145 -322.5t-114 -240.5l-423 -831h-253zM307 391l31 190h768l-31 -190h-768z" />
    <glyph glyph-name="B" unicode="B" horiz-adv-x="1338" 
d="M67 0l247 1490h544q157 0 255 -53t137.5 -144t21.5 -206q-14 -87 -58.5 -149t-109 -101t-139.5 -59v-8q76 -6 140 -52t96.5 -128t13.5 -197t-87 -203.5t-187.5 -139t-293.5 -50.5h-580zM326 193h319q161 0 246.5 67.5t102.5 168.5q11 70 -15 124t-85.5 84.5t-148.5 30.5
h-340zM434 846h301q77 0 143.5 30.5t112 85.5t57.5 129q15 90 -37.5 148t-184.5 58h-317z" />
    <glyph glyph-name="C" unicode="C" horiz-adv-x="1498" 
d="M700 -21q-174 0 -303.5 73t-200.5 208.5t-71 323.5q0 179 56 345t161.5 297.5t254 208t331.5 76.5q121 0 221 -34.5t173 -99.5t113 -159t39 -214h-228q-3 72 -27.5 128t-67.5 94.5t-101.5 58t-128.5 19.5q-135 0 -241 -61.5t-180 -165t-112.5 -231t-38.5 -258.5
q0 -130 45 -220t126 -136t191 -46q74 0 143 19.5t128.5 58t105.5 94t72 127.5h230q-37 -112 -103.5 -204.5t-157.5 -160.5t-200 -104.5t-229 -36.5z" />
    <glyph glyph-name="D" unicode="D" horiz-adv-x="1465" 
d="M586 0h-404l33 198h355q171 0 294.5 64.5t199.5 187.5t104 297q29 175 -4.5 296.5t-130.5 185t-260 63.5h-384l33 198h370q220 0 367.5 -89.5t209.5 -256t23 -398.5q-39 -234 -143 -400.5t-270.5 -256t-392.5 -89.5zM541 1490l-247 -1490h-227l247 1490h227z" />
    <glyph glyph-name="E" unicode="E" horiz-adv-x="1231" 
d="M67 0l247 1490h952l-33 -195h-725l-73 -444h673l-32 -194h-674l-76 -462h730l-32 -195h-957z" />
    <glyph glyph-name="F" unicode="F" horiz-adv-x="1195" 
d="M67 0l247 1490h937l-33 -195h-710l-78 -473h645l-32 -194h-645l-104 -628h-227z" />
    <glyph glyph-name="G" unicode="G" horiz-adv-x="1524" 
d="M704 -21q-178 0 -308 73.5t-200.5 209t-70.5 321.5q0 178 56 344.5t161 298t252.5 208.5t330.5 77q121 0 222.5 -36t175.5 -101.5t114.5 -156.5t39.5 -202h-232q-8 66 -32.5 119.5t-66 91.5t-99 58t-129.5 20q-133 0 -238.5 -61.5t-179 -164.5t-112.5 -230t-39 -258
q0 -195 99.5 -299.5t265.5 -104.5q123 0 225 50.5t170 142.5t88 213l57 -16h-426l31 187h588l-29 -178q-24 -139 -87.5 -250.5t-158.5 -191t-214.5 -122t-253.5 -42.5z" />
    <glyph glyph-name="H" unicode="H" horiz-adv-x="1510" 
d="M67 0l247 1490h227l-105 -630h739l104 630h227l-247 -1490h-227l111 664h-739l-110 -664h-227z" />
    <glyph glyph-name="I" unicode="I" horiz-adv-x="544" 
d="M541 1490l-247 -1490h-227l247 1490h227z" />
    <glyph glyph-name="J" unicode="J" horiz-adv-x="1164" 
d="M463 -20q-184 0 -295 93t-111 265q0 16 1.5 34.5t6.5 52.5t14 91h226q-9 -53 -13.5 -82t-5.5 -43t-1 -24q0 -95 52.5 -144.5t145.5 -49.5q105 0 181 65.5t97 193.5l176 1058h226l-176 -1057q-35 -217 -175 -335t-349 -118z" />
    <glyph glyph-name="K" unicode="K" horiz-adv-x="1392" 
d="M293 394l29 241q62 71 122 135t122.5 127t131.5 129l497 464h299l-749 -697l-15 3zM67 0l247 1490h229l-79 -477l-60 -340l-15 -111l-93 -562h-229zM1002 0l-387 731l153 174l485 -905h-251z" />
    <glyph glyph-name="L" unicode="L" horiz-adv-x="1148" 
d="M67 0l247 1490h227l-215 -1294h681l-32 -196h-908z" />
    <glyph glyph-name="M" unicode="M" horiz-adv-x="1850" 
d="M67 0l247 1490h330l185 -860q8 -38 16 -96t16.5 -124t15 -129t10.5 -110l-48 2q21 49 49 112.5t57.5 129t56.5 123t46 94.5l466 858h332l-246 -1490h-225l132 805q9 50 20.5 114.5t25 135l27 141t23.5 131.5l21 -2q-34 -74 -70.5 -150.5t-70.5 -146.5t-63.5 -128
t-50.5 -97l-439 -803h-193l-177 805q-10 50 -24.5 133.5t-30.5 185t-32 203.5l24 -2q-9 -64 -19 -135t-20.5 -141.5t-20 -134t-17.5 -111.5l-132 -803h-221z" />
    <glyph glyph-name="N" unicode="N" horiz-adv-x="1530" 
d="M67 0l247 1490h253l416 -890q17 -37 41.5 -95.5t51.5 -133.5t52 -161l-25 -11q6 79 15.5 160.5t19.5 153.5t18 120l142 857h229l-247 -1490h-253l-374 796q-25 56 -52.5 120.5t-61 151.5t-80.5 208l31 10q-14 -117 -25.5 -211.5t-20.5 -164.5t-16 -113l-132 -797h-229z
" />
    <glyph glyph-name="O" unicode="O" horiz-adv-x="1562" 
d="M699 -21q-172 0 -301.5 73t-201 209t-71.5 324q0 179 56.5 345t162 296.5t253.5 207.5t331 77q172 0 300.5 -73t200.5 -208.5t72 -324.5q0 -179 -56.5 -345t-162.5 -297t-253.5 -207.5t-329.5 -76.5zM708 186q135 0 240.5 61.5t179 165t111.5 231t38 258.5
q0 132 -45.5 221.5t-126 135t-186.5 45.5q-135 0 -240.5 -61.5t-179 -165.5t-112 -231t-38.5 -258t45.5 -220.5t126.5 -135.5t187 -46z" />
    <glyph glyph-name="P" unicode="P" horiz-adv-x="1304" 
d="M67 0l247 1490h536q169 0 274 -62t146.5 -170.5t18.5 -247.5q-22 -138 -99 -246.5t-203.5 -171t-296.5 -62.5h-379l32 194h360q109 0 183.5 37t118 102.5t56.5 147.5q14 84 -8.5 147.5t-85 100t-170.5 36.5h-289l-214 -1295h-227z" />
    <glyph glyph-name="Q" unicode="Q" horiz-adv-x="1562" 
d="M719 481h201l123 -204l54 -87l195 -325h-208l-129 216l-44 77zM699 -21q-172 0 -301.5 73t-201 209t-71.5 324q0 179 56.5 345t162 296.5t253.5 207.5t331 77q172 0 300.5 -73t200.5 -208.5t72 -324.5q0 -179 -56.5 -345t-162.5 -297t-253.5 -207.5t-329.5 -76.5z
M708 186q135 0 240.5 61.5t179 165t111.5 231t38 258.5q0 132 -45.5 221.5t-126 135t-186.5 45.5q-135 0 -240.5 -61.5t-179 -165.5t-112 -231t-38.5 -258t45.5 -220.5t126.5 -135.5t187 -46z" />
    <glyph glyph-name="R" unicode="R" horiz-adv-x="1323" 
d="M67 0l247 1490h540q171 0 276.5 -59.5t146 -164.5t18.5 -243q-23 -138 -99.5 -242t-202.5 -161t-296 -57h-407l32 194h390q107 0 181 32t117 92.5t56 142.5q22 130 -43.5 200.5t-222.5 70.5h-292l-214 -1295h-227zM920 0l-247 673h246l255 -673h-254z" />
    <glyph glyph-name="S" unicode="S" horiz-adv-x="1313" 
d="M582 -24q-169 0 -288.5 54.5t-176 156.5t-39.5 242h227q-8 -84 27 -141t104 -86t160 -29q96 0 176 30.5t131.5 84.5t63.5 127q11 63 -17 104t-86 69.5t-141 51.5l-166 45q-176 48 -267.5 143t-65.5 254q21 129 102 225.5t205.5 150t276.5 53.5q154 0 265.5 -54
t166.5 -150t38 -221h-220q7 108 -66 168t-203 60q-91 0 -163 -28.5t-117.5 -79t-56.5 -114.5q-11 -66 21 -109t90 -69t123 -44l142 -38q76 -20 147.5 -52t126 -81t80 -120t9.5 -168q-21 -128 -99.5 -226t-207 -153.5t-302.5 -55.5z" />
    <glyph glyph-name="T" unicode="T" horiz-adv-x="1323" 
d="M205 1295l33 195h1159l-33 -195h-465l-214 -1295h-227l214 1295h-467z" />
    <glyph glyph-name="U" unicode="U" horiz-adv-x="1498" 
d="M667 -23q-182 0 -307 70.5t-179.5 193.5t-29.5 279l161 970h227l-160 -967q-17 -102 13.5 -178.5t103 -119t180.5 -42.5q115 0 207.5 46.5t152.5 126.5t76 182l158 952h227l-163 -985q-26 -157 -117.5 -276t-232.5 -185.5t-317 -66.5z" />
    <glyph glyph-name="V" unicode="V" horiz-adv-x="1434" 
d="M491 0l-293 1490h243l153 -831q18 -105 36 -239t40 -321h-49q82 185 145.5 322.5t112.5 237.5l420 831h247l-779 -1490h-276z" />
    <glyph glyph-name="W" unicode="W" horiz-adv-x="2036" 
d="M355 0l-157 1490h237l74 -856q6 -80 9.5 -163.5t6 -168.5t3.5 -170h-34q30 85 60.5 170t63 168.5t65.5 163.5l365 856h248l79 -856q7 -80 11.5 -163.5t8 -168.5t5.5 -170h-37q30 85 60.5 170t62.5 168.5t64 163.5l357 856h241l-652 -1490h-262l-90 889
q-11 103 -13.5 219.5t-4.5 257.5h52q-47 -136 -87.5 -252t-87.5 -225l-385 -889h-263z" />
    <glyph glyph-name="X" unicode="X" horiz-adv-x="1418" 
d="M-44 0l732 846l-28 -169l-420 813h255l148 -295q32 -65 54.5 -115.5t41 -98.5t39.5 -107h-48q42 58 77 106.5t74.5 99.5t93.5 115l253 295h265l-686 -803l28 166l444 -853h-256l-185 357q-30 59 -50.5 103t-38 87t-38.5 98h43q-38 -54 -70.5 -97.5t-68.5 -88t-85 -102.5
l-307 -357h-267z" />
    <glyph glyph-name="Y" unicode="Y" horiz-adv-x="1408" 
d="M501 0l98 594l-401 896h250l202 -474q33 -76 57.5 -147t46.5 -169h-73q54 99 102.5 171t103.5 145l357 474h276l-695 -896l-98 -594h-226z" />
    <glyph glyph-name="Z" unicode="Z" horiz-adv-x="1299" 
d="M28 0l25 149l970 1147h-787l32 194h1068l-25 -151l-972 -1145h788l-32 -194h-1067z" />
    <glyph glyph-name="bracketleft" unicode="[" horiz-adv-x="729" 
d="M59 -282l308 1860h424l-29 -178h-213l-249 -1505h212l-29 -177h-424z" />
    <glyph glyph-name="backslash" unicode="\" horiz-adv-x="741" 
d="M386 -224l-185 1784h191l185 -1784h-191z" />
    <glyph glyph-name="bracketright" unicode="]" horiz-adv-x="729" 
d="M-31 -282l29 177h213l250 1505h-213l29 178h424l-308 -1860h-424z" />
    <glyph glyph-name="asciicircum" unicode="^" horiz-adv-x="962" 
d="M593 1351h52l-12 -77h-52zM116 814l405 633h216l198 -633h-188l-145 490h16l-301 -490h-201z" />
    <glyph glyph-name="underscore" unicode="_" horiz-adv-x="947" 
d="M855 0l-30 -187h-947l30 187h947z" />
    <glyph glyph-name="grave" unicode="`" horiz-adv-x="653" 
d="M450 1246l-151 301h227l91 -301h-167z" />
    <glyph glyph-name="a" unicode="a" horiz-adv-x="1249" 
d="M460 -22q-136 0 -229.5 70t-131.5 198.5t-9 304.5q30 178 111 305t198 195.5t251 68.5q96 0 154 -31t89.5 -75.5t47.5 -84.5h11l29 175h217l-183 -1104h-213l28 171h-15q-31 -42 -78 -87t-115 -75.5t-162 -30.5zM540 164q93 0 165.5 49.5t121.5 136.5t67 202
q20 116 0 201.5t-77 133t-150 47.5q-95 0 -168.5 -49.5t-121 -135t-65.5 -197.5t1 -200t76 -138t151 -50z" />
    <glyph glyph-name="b" unicode="b" horiz-adv-x="1247" 
d="M610 -22q-96 0 -157 31.5t-95 77t-52 89.5h-13l-30 -176h-213l247 1490h218l-94 -560h11q30 42 74 86t109 74t158 30q119 0 207.5 -53t137.5 -152t49 -238q0 -126 -37 -250t-108 -225.5t-174.5 -162.5t-237.5 -61zM567 164q94 0 164.5 46t118.5 121.5t72.5 164
t24.5 174.5q0 120 -56.5 192t-170.5 72q-93 0 -163.5 -44.5t-118.5 -118t-72 -162.5t-24 -177q0 -123 57 -195.5t168 -72.5z" />
    <glyph glyph-name="c" unicode="c" horiz-adv-x="1162" 
d="M525 -23q-138 0 -237.5 56.5t-153 159.5t-53.5 240q0 130 41 253t119.5 221t191.5 155.5t256 57.5q90 0 165 -24t130.5 -69.5t88 -109t37.5 -142.5l-212 -32q-4 43 -18.5 78t-41 60.5t-64.5 39.5t-89 14q-95 0 -167 -45t-120.5 -119.5t-73 -163t-24.5 -175.5
q0 -78 24 -139.5t75.5 -96t131.5 -34.5q54 0 101.5 15t87 42.5t69 65.5t47.5 83l204 -45q-31 -80 -82 -143.5t-118 -109t-146.5 -69.5t-168.5 -24z" />
    <glyph glyph-name="d" unicode="d" horiz-adv-x="1247" 
d="M473 -22q-180 0 -286.5 118.5t-106.5 325.5q0 129 37.5 253.5t109.5 225t175 160t235 59.5q99 0 159.5 -32.5t93.5 -78.5t49 -87h10l93 568h219l-247 -1490h-213l29 171h-14q-30 -45 -75 -89.5t-111 -74t-157 -29.5zM526 164q93 0 163.5 45.5t118.5 120t72.5 164
t24.5 177.5q0 122 -57 192.5t-170 70.5q-92 0 -162.5 -44.5t-118 -118t-72 -162t-24.5 -176.5q0 -122 56 -195.5t169 -73.5z" />
    <glyph glyph-name="e" unicode="e" horiz-adv-x="1169" 
d="M530 -24q-140 0 -241 53t-155 155t-53 248q1 145 47.5 271t130.5 221t195.5 149t242.5 54q112 0 196.5 -37.5t132 -107t47.5 -166.5q0 -98 -53 -164.5t-160.5 -106.5t-271 -57.5t-384.5 -17.5l27 153q186 0 308 9.5t192.5 31.5t100 59t29.5 91q0 61 -50 96.5t-136 35.5
q-106 0 -179.5 -50t-118 -129.5t-65 -168.5t-20.5 -169q-1 -75 22.5 -137.5t79 -99t150.5 -36.5q103 0 180 44t114 119l202 -34q-59 -141 -194.5 -225t-315.5 -84z" />
    <glyph glyph-name="f" unicode="f" horiz-adv-x="762" 
d="M788 1104l-29 -173h-677l29 173h677zM-44 -442q-23 0 -44 1t-41 4t-41 7l46 186q18 -4 44.5 -6.5t43.5 -2.5q71 0 109.5 36.5t51.5 117.5l213 1286q19 116 72 195.5t137 120.5t195 41q41 0 77 -4.5t72 -11.5l-53 -177q-18 3 -50 4.5t-62 1.5q-73 0 -114 -40.5t-55 -126.5
l-213 -1287q-19 -113 -68.5 -190t-130 -116t-189.5 -39z" />
    <glyph glyph-name="g" unicode="g" horiz-adv-x="1249" 
d="M456 -440q-134 0 -226 36t-145 96.5t-67 134.5l194 58q12 -35 38.5 -69t76.5 -57t132 -23q133 0 225.5 66.5t114.5 194.5l33 198l-16 -3q-30 -42 -74.5 -84t-108.5 -70t-156 -28q-117 0 -206.5 50t-139 145t-49.5 230q0 127 38 248.5t110 220t175 157.5t233 59
q74 0 126 -19t87 -49.5t56.5 -65t33.5 -64.5l15 3l29 179h214l-186 -1121q-25 -149 -104.5 -242.5t-197 -137t-255.5 -43.5zM531 193q94 0 164.5 42t117.5 112.5t70 155.5t23 171q0 120 -57 190t-170 70q-90 0 -160.5 -43t-119 -114t-73 -157.5t-24.5 -173.5
q0 -118 58 -185.5t171 -67.5z" />
    <glyph glyph-name="h" unicode="h" horiz-adv-x="1213" 
d="M375 650l-107 -650h-218l247 1490h216l-109 -657h-34q50 100 110.5 163t134 93.5t160.5 30.5q112 0 193 -48t116.5 -141.5t11.5 -231.5l-116 -699h-219l112 672q21 123 -31.5 190t-161.5 67q-73 0 -137 -32t-108 -93.5t-60 -153.5z" />
    <glyph glyph-name="i" unicode="i" horiz-adv-x="502" 
d="M51 0l182 1104h218l-182 -1104h-218zM371 1277q-57 0 -90.5 38.5t-24.5 92.5q9 55 55.5 92.5t103.5 37.5t90.5 -37.5t24.5 -92.5q-8 -54 -55 -92.5t-104 -38.5z" />
    <glyph glyph-name="j" unicode="j" horiz-adv-x="501" 
d="M232 1104h219l-197 -1189q-17 -107 -69 -181.5t-135.5 -113t-195.5 -38.5h-54l30 187h41q74 0 114 38.5t52 115.5zM371 1277q-57 0 -90.5 38.5t-24.5 92.5q9 55 55.5 92.5t103.5 37.5t90.5 -37.5t24.5 -92.5q-8 -54 -55 -92.5t-104 -38.5z" />
    <glyph glyph-name="k" unicode="k" horiz-adv-x="1129" 
d="M313 372l44 265h33l520 467h264l-594 -534h-36zM50 0l247 1490h218l-247 -1490h-218zM752 0l-311 522l177 153l403 -675h-269z" />
    <glyph glyph-name="l" unicode="l" horiz-adv-x="501" 
d="M515 1490l-247 -1490h-218l247 1490h218z" />
    <glyph glyph-name="m" unicode="m" horiz-adv-x="1803" 
d="M50 0l183 1104h209l-37 -251l-18 6q40 93 98.5 151t127 86t138.5 28q85 0 143.5 -36.5t89.5 -100t34 -147.5l-27 14q36 87 97.5 147t139.5 91.5t163 31.5q102 0 177 -45t110 -131.5t14 -213.5l-122 -734h-218l121 727q13 76 -7 121t-61.5 64.5t-94.5 19.5q-74 0 -133 -31
t-96 -84.5t-48 -120.5l-116 -696h-214l122 741q16 91 -30.5 141t-129.5 50q-64 0 -124.5 -30t-104 -87.5t-56.5 -140.5l-112 -674h-218z" />
    <glyph glyph-name="n" unicode="n" horiz-adv-x="1213" 
d="M375 643l-107 -643h-218l183 1104h209l-42 -271l-30 7q72 146 173 213t229 67q116 0 196.5 -49.5t115 -145t11.5 -234.5l-115 -691h-218l113 679q21 123 -29.5 186.5t-155.5 63.5q-76 0 -142.5 -33.5t-112 -97.5t-60.5 -155z" />
    <glyph glyph-name="o" unicode="o" horiz-adv-x="1217" 
d="M526 -23q-139 0 -238.5 56.5t-153 159.5t-53.5 240q0 133 42 256t121 220.5t192 154t254 56.5q139 0 239 -56t153 -159.5t53 -242.5q0 -133 -42 -256t-122 -220t-192.5 -153t-252.5 -56zM532 162q96 0 168 45.5t120 120t72 163t24 172.5q0 80 -25 141t-77 96t-132 35
q-94 0 -165.5 -45.5t-120 -120t-73 -163t-24.5 -174.5q0 -118 57 -194t176 -76z" />
    <glyph glyph-name="p" unicode="p" horiz-adv-x="1247" 
d="M-19 -418l252 1522h213l-29 -175h7q29 44 75 88t113.5 73.5t160.5 29.5q119 0 207.5 -53t137.5 -152t49 -238q0 -125 -37 -249.5t-108 -226t-174.5 -162.5t-237.5 -61q-97 0 -157.5 33t-93.5 79.5t-49 87.5h-13l-98 -596h-218zM567 164q94 0 164.5 46t118.5 121.5
t72.5 164t24.5 174.5q0 120 -56.5 192t-170.5 72q-93 0 -163.5 -44.5t-118.5 -118t-72 -162.5t-24 -177q0 -123 57 -195.5t168 -72.5z" />
    <glyph glyph-name="q" unicode="q" horiz-adv-x="1247" 
d="M945 -418h-219l99 586h-13q-30 -45 -75 -89t-109.5 -72.5t-154.5 -28.5q-120 0 -208.5 53.5t-136.5 153t-48 237.5q0 129 37.5 253.5t109.5 225t175 160t235 59.5q99 0 160.5 -33t96 -80t51.5 -89h8l31 186h214zM526 164q93 0 163.5 45.5t118.5 120t72.5 164t24.5 177.5
q0 122 -57 192.5t-170 70.5q-92 0 -162.5 -44.5t-118 -118t-72 -162t-24.5 -176.5q0 -122 56 -195.5t169 -73.5z" />
    <glyph glyph-name="r" unicode="r" horiz-adv-x="771" 
d="M51 0l182 1104h211l-29 -177h10q45 90 127.5 141t181.5 51q21 0 46.5 -1.5t41.5 -3.5l-34 -207q-15 3 -47 7t-66 4q-72 0 -135 -31t-105.5 -87.5t-55.5 -132.5l-110 -667h-218z" />
    <glyph glyph-name="s" unicode="s" horiz-adv-x="1080" 
d="M457 -24q-119 0 -208 34.5t-140.5 100.5t-58.5 160q-1 6 -1 12.5v13.5l209 22q5 -87 56.5 -126.5t147.5 -39.5q71 0 130 21.5t96 59t42 84.5t-26 77.5t-103 47.5l-178 42q-142 33 -208 109t-54 191q11 102 76 177.5t167.5 116.5t224.5 41q172 0 266.5 -71.5t111.5 -188.5
q2 -9 3.5 -19t1.5 -20l-199 -23q-6 65 -49 107.5t-137 42.5q-63 0 -117.5 -21t-89.5 -57.5t-40 -83.5q-7 -49 26 -79t114 -49l173 -40q143 -33 208 -106.5t53 -186.5q-8 -79 -49.5 -143t-109 -110t-154 -71t-184.5 -25z" />
    <glyph glyph-name="t" unicode="t" horiz-adv-x="694" 
d="M719 1104l-30 -178h-607l29 178h608zM325 1375h218l-178 -1078q-12 -67 11.5 -96t87.5 -29q18 0 46.5 3.5t49.5 6.5l1 -176q-33 -8 -73 -12.5t-78 -4.5q-153 0 -221.5 75t-45.5 213z" />
    <glyph glyph-name="u" unicode="u" horiz-adv-x="1214" 
d="M430 -15q-112 0 -190.5 47t-111.5 141t-10 233l115 698h218l-110 -671q-20 -122 30.5 -190t161.5 -68q73 0 136.5 31.5t108.5 94t60 153.5l107 650h219l-183 -1104h-210l44 271h28q-74 -149 -179 -217.5t-234 -68.5z" />
    <glyph glyph-name="v" unicode="v" horiz-adv-x="1155" 
d="M368 0l-235 1104h225l116 -623q18 -99 28 -199.5t21 -198.5h-63q44 98 86.5 198t94.5 200l321 623h243l-601 -1104h-236z" />
    <glyph glyph-name="w" unicode="w" horiz-adv-x="1673" 
d="M293 0l-152 1104h229l47 -456q10 -105 19.5 -229.5t14.5 -274.5h-32q53 145 104 270t98 234l199 456h216l45 -456q11 -105 20 -229.5t15 -274.5h-33q53 145 103 269.5t97 234.5l199 456h233l-518 -1104h-220l-58 476q-8 68 -15 145t-13 159.5t-12 162.5h45
q-33 -80 -66 -161.5t-65.5 -159t-64.5 -146.5l-215 -476h-220z" />
    <glyph glyph-name="x" unicode="x" horiz-adv-x="1123" 
d="M-42 0l546 647l-28 -161l-312 618h238l94 -200q37 -80 63.5 -153.5t55.5 -143.5h-97q53 70 102.5 143.5t113.5 153.5l162 200h251l-521 -623l26 158l329 -639h-239l-111 232q-37 79 -63.5 150.5t-56.5 139.5h98q-52 -68 -100 -139.5t-111 -150.5l-190 -232h-250z" />
    <glyph glyph-name="y" unicode="y" horiz-adv-x="1156" 
d="M-25 -406l71 180l44 -5q51 -11 93.5 -3t78 41.5t64.5 98.5l45 92l-238 1106h226l116 -623q18 -100 27 -199.5t21 -198.5h-66q45 99 88 199t95 199l324 623h242l-694 -1266q-47 -85 -105.5 -143.5t-129.5 -88.5t-157 -30q-45 0 -83.5 6t-61.5 12z" />
    <glyph glyph-name="z" unicode="z" horiz-adv-x="1115" 
d="M26 0l25 150l710 756l1 9h-569l30 189h849l-27 -161l-688 -745l-1 -9h581l-31 -189h-880z" />
    <glyph glyph-name="braceleft" unicode="{" horiz-adv-x="886" 
d="M151 634l19 118q124 0 181 50.5t76 166.5l35 213q18 111 56 187t97.5 122t142 66.5t190.5 20.5l-29 -176q-127 1 -181.5 -55.5t-74.5 -176.5l-44 -265q-9 -56 -33.5 -105t-75.5 -86.5t-138 -58.5t-221 -21zM640 -282q-107 0 -183 20t-120.5 65t-57.5 122t6 189l35 210
q19 116 -21 167t-163 52l20 118q133 0 212.5 -21.5t118 -58.5t47.5 -86.5t-1 -106.5l-43 -263q-20 -121 16.5 -177t163.5 -56zM136 542l35 211h208l-35 -211h-208z" />
    <glyph glyph-name="bar" unicode="|" horiz-adv-x="693" 
d="M679 1970l-405 -2450h-197l404 2450h198z" />
    <glyph glyph-name="braceright" unicode="}" horiz-adv-x="886" 
d="M762 634q-134 0 -214.5 21t-118.5 58.5t-46 86.5t1 105l44 265q20 120 -16.5 176.5t-163.5 55.5l29 176q108 0 184.5 -20.5t120.5 -66.5t57 -122t-6 -187l-35 -213q-19 -116 20.5 -166.5t162.5 -50.5zM-31 -282l29 174q127 0 181.5 56t74.5 177l44 263q9 57 34 106.5
t76 86.5t137.5 58.5t220.5 21.5l-19 -118q-124 -1 -180.5 -52.5t-75.5 -166.5l-34 -210q-18 -112 -56 -188t-97.5 -122t-142.5 -66t-192 -20zM747 543l-208 -1l35 211l207 -1z" />
    <glyph glyph-name="asciitilde" unicode="~" horiz-adv-x="1354" 
d="M138 428q18 128 70.5 209t126.5 119.5t157 37.5q72 1 128.5 -30t125.5 -101q43 -43 72.5 -62t67.5 -19q60 0 102.5 43.5t54.5 130.5h185q-17 -125 -70 -205.5t-127 -118.5t-156 -38q-74 0 -130 32.5t-124 99.5q-43 44 -73 60.5t-69 16.5q-56 0 -99 -40.5t-57 -134.5h-185
z" />
    <glyph glyph-name="uni00A0" unicode="&#xa0;" horiz-adv-x="533" 
 />
    <glyph glyph-name="exclamdown" unicode="&#xa1;" horiz-adv-x="591" 
d="M21 -375l187 1024h210l-154 -1024h-243zM343 837q-62 0 -98 42t-26 104t60 103.5t112 41.5q63 0 98.5 -41.5t25.5 -103.5t-59.5 -104t-112.5 -42z" />
    <glyph glyph-name="cent" unicode="&#xa2;" horiz-adv-x="1162" 
d="M448 0l247 1490h123l-247 -1490h-123zM558 172q-138 0 -237.5 57t-153.5 159.5t-54 240.5q0 130 41.5 253t120 221t191 155.5t255.5 57.5q90 0 165.5 -24t130.5 -69.5t87.5 -109t37.5 -142.5l-212 -33q-3 44 -18 79t-41 60.5t-64 39.5t-89 14q-95 0 -167 -45t-121 -119.5
t-73.5 -163t-24.5 -175.5q0 -78 24.5 -139.5t75.5 -96t132 -34.5q54 0 101.5 15t86.5 42.5t69 65t48 82.5l203 -44q-30 -80 -81 -143.5t-118 -109t-147 -70t-168 -24.5z" />
    <glyph glyph-name="sterling" unicode="&#xa3;" horiz-adv-x="1257" 
d="M32 147l7 48q80 0 132 43t64 142l83 655q17 144 90 250.5t186.5 166t253.5 59.5q122 0 214.5 -50t142 -140t43.5 -211l-212 -26q4 111 -48.5 171.5t-154.5 60.5q-82 0 -145 -32.5t-102.5 -93.5t-50.5 -147l-85 -644q-9 -70 -44 -116t-84.5 -73.5t-103.5 -41t-103 -17.5
t-83 -4zM7 0l32 195h782q39 0 60 17t27 57l10 61h205l-9 -50q-23 -141 -104.5 -210.5t-221.5 -69.5h-781zM116 661l27 166h806l-28 -166h-805z" />
    <glyph glyph-name="currency" unicode="&#xa4;" horiz-adv-x="1496" 
d="M650 -20q-124 0 -225 47.5t-169 133t-95.5 200t-5.5 247.5t87 247t161 199t212.5 132.5t241.5 47.5q123 0 224 -47t170.5 -132t98.5 -199t7 -247q-22 -134 -88.5 -248.5t-164 -200t-214 -133t-240.5 -47.5zM678 150q89 0 172.5 35.5t153 98.5t117 145.5t62.5 177.5
q23 128 -18.5 232t-129 165.5t-206.5 61.5t-226.5 -61t-182 -165t-96.5 -232q-21 -126 19.5 -230t128 -166t206.5 -62zM1236 922l-104 130l237 206l107 -130zM1157 -18l-168 206l147 128l170 -204zM147 -18l-102 130l237 204l105 -128zM383 922l-168 206l145 130l170 -206z
" />
    <glyph glyph-name="yen" unicode="&#xa5;" horiz-adv-x="1128" 
d="M423 1490l223 -802l-181 -94l-284 896h242zM532 689l487 801h243l-584 -896zM716 783l-131 -783h-226l132 783h225zM1024 751l-24 -149h-863l23 149h864zM977 463l-23 -149h-864l24 149h863z" />
    <glyph glyph-name="brokenbar" unicode="&#xa6;" horiz-adv-x="585" 
d="M168 407h201l-114 -687h-201zM548 1490l-114 -683h-201l114 683h201z" />
    <glyph glyph-name="section" unicode="&#xa7;" horiz-adv-x="1148" 
d="M418 -302q-120 0 -200 40t-120 114t-39 177l199 33q3 -85 46 -133.5t145 -48.5q88 0 147.5 37.5t71.5 110.5q8 50 -9.5 84t-48.5 58.5t-65 41.5l-252 146q-61 35 -102.5 84t-59 108.5t-6.5 122.5q10 63 47.5 118t94 90t125.5 39l2 3q-61 55 -87.5 116.5t-12.5 146.5
q17 101 77 173.5t153 112t210 39.5q116 0 190.5 -39t112 -113t39.5 -179l-194 -33q-8 88 -45 135.5t-130 47.5q-88 0 -143.5 -39.5t-66.5 -108.5q-8 -49 9.5 -84.5t50 -60t67.5 -43.5l250 -147q62 -35 102.5 -84t57.5 -106t7 -118q-10 -64 -48.5 -119t-95.5 -89.5
t-123 -40.5l-3 -5q46 -34 71 -75.5t32.5 -88.5t-0.5 -99q-16 -99 -79 -171.5t-160 -112.5t-217 -40zM653 372q26 -16 68.5 -4.5t80.5 48t49 95.5q8 38 -1 71.5t-33.5 63t-66.5 52.5l-247 143q-27 16 -67.5 4t-76 -49t-46.5 -96q-7 -39 1 -73.5t34 -64.5t69 -55z" />
    <glyph glyph-name="dieresis" unicode="&#xa8;" horiz-adv-x="1213" 
d="M941 1280q-53 0 -85 37.5t-23 90.5t53 90t98 37t85.5 -37t22.5 -90t-53 -90.5t-98 -37.5zM513 1280q-54 0 -85.5 37.5t-22.5 90.5t53 90t98 37t85 -37t23 -90q-9 -53 -53 -90.5t-98 -37.5z" />
    <glyph glyph-name="copyright" unicode="&#xa9;" horiz-adv-x="1861" 
d="M543 744q19 118 92 214.5t179 154t223 57.5q103 0 182.5 -44.5t124 -120t41.5 -171.5h-187q-3 68 -57 112t-132 44q-67 0 -128.5 -33t-104 -89t-54.5 -124q-11 -67 13.5 -122.5t75 -88.5t117.5 -33q78 0 139.5 43.5t87.5 112.5h188q-29 -96 -94.5 -172.5t-155.5 -120.5
t-193 -44q-117 0 -204.5 57.5t-129.5 154t-23 213.5zM835 -23q-141 0 -260 49t-207 136.5t-136.5 204.5t-48.5 252q0 177 73.5 338t200 286.5t289.5 197.5t343 72q142 0 262 -49t207.5 -137t135.5 -205.5t47 -254.5q-1 -176 -75 -336.5t-200.5 -285t-289 -196.5t-341.5 -72z
M867 171q134 0 255.5 53.5t216 147t149.5 213.5t56 252q1 136 -62 245.5t-173 173t-251 63.5q-135 0 -257 -54t-217 -147.5t-149.5 -214t-54.5 -252.5q0 -135 63 -244t173.5 -172.5t250.5 -63.5z" />
    <glyph glyph-name="ordfeminine" unicode="&#xaa;" horiz-adv-x="923" 
d="M377 647q-85 0 -148 28.5t-93 85.5t-16 139q15 95 73.5 147t140.5 75.5t168 32.5q121 12 173.5 22t59.5 54l1 4q10 61 -26 96t-115 35q-54 0 -96 -15t-71 -40t-44 -56l-176 29q37 76 99.5 127.5t142.5 77.5t169 26q64 0 124 -15t106.5 -48.5t68 -89t8.5 -135.5l-94 -564
h-185l20 117h-8q-37 -54 -106.5 -93.5t-175.5 -39.5zM446 790q69 0 121.5 24.5t85 65t40.5 87.5l16 99q-14 -10 -52 -18t-82 -14t-77 -10q-74 -10 -127.5 -37.5t-63.5 -85.5q-9 -53 30.5 -82t108.5 -29z" />
    <glyph glyph-name="guillemotleft" unicode="&#xab;" horiz-adv-x="1221" 
d="M414 144l-317 465l471 465h243l-464 -465l310 -465h-243zM841 144l-317 465l471 465h243l-464 -465l310 -465h-243z" />
    <glyph glyph-name="logicalnot" unicode="&#xac;" horiz-adv-x="1354" 
d="M841 307l44 265h-663l30 185h859l-74 -450h-196z" />
    <glyph glyph-name="registered" unicode="&#xae;" horiz-adv-x="1347" 
d="M638 346q-120 0 -218 45.5t-164.5 125.5t-94 185.5t-7.5 225.5t82.5 225.5t155.5 185.5t206 125.5t233 45.5q121 0 219 -45.5t164.5 -125.5t94.5 -185.5t8 -225.5t-83 -225.5t-156 -185.5t-206 -125.5t-234 -45.5zM663 491q91 0 176 34t155 94t117 139.5t62 169.5
q20 121 -23 220t-132 158t-210 59q-90 0 -175 -34t-155.5 -94t-117.5 -139t-62 -170q-20 -121 23 -220t132.5 -158t209.5 -59zM804 662l-83 250h137l88 -250h-142zM482 662l89 536h262q45 0 83.5 -20t59 -58.5t10.5 -96.5q-9 -58 -43.5 -98.5t-81.5 -62t-95 -21.5h-179
l16 95h152q29 0 58 22t36 64q7 43 -15.5 61t-49.5 18h-100l-73 -439h-129z" />
    <glyph glyph-name="macron" unicode="&#xaf;" horiz-adv-x="923" 
d="M897 1481l-27 -158h-562l27 158h562z" />
    <glyph glyph-name="degree" unicode="&#xb0;" horiz-adv-x="922" 
d="M550 816q-95 0 -171 46t-119 124t-40 172t52.5 172.5t128.5 124.5t174 46t170.5 -46t119 -124.5t39.5 -172.5q-3 -94 -52 -172t-128 -124t-174 -46zM556 983q49 0 89 23.5t65 63t27 88.5t-20 88.5t-60.5 63.5t-87.5 24q-48 0 -89 -23.5t-66.5 -63.5t-27.5 -89t20.5 -88.5
t62 -63t87.5 -23.5z" />
    <glyph glyph-name="plusminus" unicode="&#xb1;" horiz-adv-x="1354" 
d="M113 65l31 191h967l-31 -191h-967zM212 659l30 189h968l-31 -189h-967zM550 377l124 753h197l-124 -753h-197z" />
    <glyph glyph-name="two.sups" unicode="&#xb2;" horiz-adv-x="891" 
d="M164 890l22 138l386 261q49 34 83.5 61t54.5 52.5t25 54.5q9 52 -29.5 82t-103.5 30q-68 0 -115 -31t-56 -86h-183q21 122 125.5 194t253.5 72q154 0 235.5 -68t62.5 -177q-6 -36 -22 -71t-49.5 -73t-91.5 -81t-147 -96l-157 -102l-1 -6h417l-26 -154h-684z" />
    <glyph glyph-name="three.sups" unicode="&#xb3;" horiz-adv-x="907" 
d="M509 879q-103 0 -178.5 32.5t-113 90t-26.5 130.5h194q-6 -44 37 -71t113 -27q73 0 123 29t58 74q7 47 -37 76t-126 29h-85l21 128h85q71 0 121 28t57 73q7 44 -28.5 71t-99.5 27q-66 0 -115 -27t-58 -70h-184q12 72 66.5 127.5t137 87t179.5 31.5q147 0 227 -67t64 -167
q-11 -68 -70 -113t-144 -55v-6q105 -12 152.5 -62.5t35.5 -125.5q-12 -71 -68 -125.5t-143.5 -86t-194.5 -31.5z" />
    <glyph glyph-name="acute" unicode="&#xb4;" horiz-adv-x="449" 
d="M158 1267l190 284h226l-248 -284h-168z" />
    <glyph glyph-name="uni00B5" unicode="&#xb5;" horiz-adv-x="1215" 
d="M-19 -418l252 1522h218l-109 -659q-16 -96 7.5 -157t75.5 -89.5t122 -28.5q72 0 132 29.5t101 90.5t57 155l109 659h217l-137 -831q-8 -51 11 -71.5t74 -20.5h34l-30 -181h-65q-139 0 -198.5 67t-38.5 195l17 101h44q-18 -111 -59 -183.5t-93 -113t-105.5 -57.5
t-97.5 -17q-45 0 -93 17t-86.5 58t-55.5 113t1 183h44l-130 -781h-218z" />
    <glyph glyph-name="paragraph" unicode="&#xb6;" horiz-adv-x="1216" 
d="M1164 1302h-368l-123 -750h-85q-161 0 -261.5 61.5t-140 168t-18.5 240.5q24 135 98.5 240.5t195.5 166.5t281 61h452zM761 0l248 1490h203l-247 -1490h-204z" />
    <glyph glyph-name="periodcentered" unicode="&#xb7;" horiz-adv-x="586" 
d="M306 562q-64 0 -103 47t-29 113q10 57 55 94t100 37q66 0 104 -46.5t28 -110.5q-8 -56 -53 -95t-102 -39z" />
    <glyph glyph-name="cedilla" unicode="&#xb8;" horiz-adv-x="601" 
d="M17 -418l18 110h120q51 0 75.5 14.5t29.5 49.5q6 34 -12.5 49t-71.5 15h-84l70 227h101l-8 -47l-15 -86q93 -2 135 -41.5t29 -117.5q-14 -90 -77.5 -131.5t-184.5 -41.5h-125z" />
    <glyph glyph-name="one.sups" unicode="&#xb9;" horiz-adv-x="621" 
d="M697 1708l-135 -818h-191l108 652h-7l-237 -125l28 166l231 125h203z" />
    <glyph glyph-name="ordmasculine" unicode="&#xba;" horiz-adv-x="978" 
d="M504 646q-127 0 -212 55t-121 152.5t-15 226.5q22 131 90 228.5t172 152.5t230 55q128 0 213 -55t121.5 -152.5t14.5 -228.5q-21 -129 -90 -227t-172.5 -152.5t-230.5 -54.5zM530 803q75 0 131.5 36.5t92 99t48.5 141.5t-1.5 142t-59 99.5t-119.5 36.5q-74 0 -130 -36
t-92 -99t-49 -143q-13 -79 2 -141.5t59 -99t118 -36.5z" />
    <glyph glyph-name="guillemotright" unicode="&#xbb;" horiz-adv-x="1222" 
d="M3 144l463 465l-310 465h243l317 -465l-471 -465h-242zM430 144l463 465l-310 465h243l317 -465l-471 -465h-242z" />
    <glyph glyph-name="onequarter" unicode="&#xbc;" horiz-adv-x="1625" 
d="M591 1490l-135 -817h-171l112 673h-7l-203 -131l25 151l195 124h184zM79 0l1271 1490h183l-1271 -1490h-183zM835 133l22 133l430 551h120l-32 -193h-72l-270 -346l-2 -8h477l-23 -137h-650zM1202 0l29 174l15 59l96 584h159l-136 -817h-163z" />
    <glyph glyph-name="onehalf" unicode="&#xbd;" horiz-adv-x="1720" 
d="M591 1490l-135 -817h-171l112 673h-7l-203 -131l25 151l195 124h184zM79 0l1271 1490h183l-1271 -1490h-183zM961 0l20 121l335 273q47 39 77 69.5t47 59t21 59.5q9 54 -21 83.5t-84 29.5q-55 0 -96 -32t-51 -86h-162q19 115 104.5 182.5t213.5 67.5q131 0 205.5 -66.5
t55.5 -170.5q-6 -31 -20 -62.5t-43.5 -69.5t-80.5 -88.5t-131 -118.5l-124 -106l-2 -7h345l-23 -138h-586z" />
    <glyph glyph-name="threequarters" unicode="&#xbe;" horiz-adv-x="1784" 
d="M407 663q-84 0 -150 28.5t-100.5 80.5t-23.5 122h173q-5 -38 30.5 -64t91.5 -26t98.5 30t51.5 80q10 52 -26.5 83t-105.5 31h-70l20 123h71q58 0 102 31t51 80q8 46 -19.5 74.5t-79.5 28.5q-55 0 -97 -27.5t-50 -72.5h-164q13 70 60 123t117.5 82.5t152.5 29.5
q126 0 195 -66.5t52 -165.5q-11 -68 -63 -113.5t-125 -57.5l-1 -6q92 -13 132 -62.5t27 -127.5q-19 -104 -116 -171t-234 -67zM238 0l1271 1490h183l-1271 -1490h-183zM995 133l22 133l430 551h120l-32 -193h-72l-270 -346l-2 -8h477l-23 -137h-650zM1362 0l29 174l15 59
l96 584h159l-136 -817h-163z" />
    <glyph glyph-name="questiondown" unicode="&#xbf;" horiz-adv-x="1059" 
d="M683 660l-5 -27q-22 -128 -60 -199t-93 -113.5t-129 -84.5q-77 -45 -129.5 -103.5t-65.5 -136.5q-10 -64 12 -111t69.5 -73t112.5 -26q63 0 120 25.5t98.5 77.5t58.5 130h220q-24 -133 -96 -227t-178 -143t-234 -49q-134 0 -232.5 50t-145.5 139t-28 206q20 120 89.5 207
t179.5 149q69 40 113.5 75t70.5 83.5t39 126.5l4 24h209zM654 1126q62 0 97.5 -41.5t25.5 -103.5q-10 -61 -59.5 -103t-111.5 -42t-97.5 42t-25.5 103q10 62 59.5 103.5t111.5 41.5z" />
    <glyph glyph-name="Agrave" unicode="&#xc0;" horiz-adv-x="1436" 
d="M-48 0l779 1490h278l292 -1490h-236l-152 831q-15 96 -34.5 234t-41.5 329h50q-82 -185 -145 -322.5t-114 -240.5l-423 -831h-253zM307 391l31 190h768l-31 -190h-768zM816 1632l-151 301h227l91 -301h-167z" />
    <glyph glyph-name="Aacute" unicode="&#xc1;" horiz-adv-x="1436" 
d="M-48 0l779 1490h278l292 -1490h-236l-152 831q-15 96 -34.5 234t-41.5 329h50q-82 -185 -145 -322.5t-114 -240.5l-423 -831h-253zM307 391l31 190h768l-31 -190h-768zM804 1653l190 284h226l-248 -284h-168z" />
    <glyph glyph-name="Acircumflex" unicode="&#xc2;" horiz-adv-x="1436" 
d="M-48 0l779 1490h278l292 -1490h-236l-152 831q-15 96 -34.5 234t-41.5 329h50q-82 -185 -145 -322.5t-114 -240.5l-423 -831h-253zM307 391l31 190h768l-31 -190h-768zM756 1648h-202l1 7l295 278h190l204 -278l-1 -7h-203l-113 174z" />
    <glyph glyph-name="Atilde" unicode="&#xc3;" horiz-adv-x="1436" 
d="M-48 0l779 1490h278l292 -1490h-236l-152 831q-15 96 -34.5 234t-41.5 329h50q-82 -185 -145 -322.5t-114 -240.5l-423 -831h-253zM307 391l31 190h768l-31 -190h-768zM1038 1676q-40 0 -74 13.5t-62 31.5t-52 31t-44 13q-29 0 -47 -26t-25 -58h-138q20 103 75.5 164.5
t138.5 61.5q42 0 74.5 -14t58.5 -32t50 -31.5t49 -13.5q28 0 45 21t28 65h136q-21 -106 -78 -166t-135 -60z" />
    <glyph glyph-name="Adieresis" unicode="&#xc4;" horiz-adv-x="1436" 
d="M-48 0l779 1490h278l292 -1490h-236l-152 831q-15 96 -34.5 234t-41.5 329h50q-82 -185 -145 -322.5t-114 -240.5l-423 -831h-253zM307 391l31 190h768l-31 -190h-768zM1116 1666q-53 0 -85 37.5t-23 90.5t53 90t98 37t85.5 -37t22.5 -90t-53 -90.5t-98 -37.5zM688 1666
q-54 0 -85.5 37.5t-22.5 90.5t53 90t98 37t85 -37t23 -90q-9 -53 -53 -90.5t-98 -37.5z" />
    <glyph glyph-name="Aring" unicode="&#xc5;" horiz-adv-x="1436" 
d="M-48 0l779 1490h278l292 -1490h-236l-152 831q-15 96 -34.5 234t-41.5 329h50q-82 -185 -145 -322.5t-114 -240.5l-423 -831h-253zM307 391l31 190h768l-31 -190h-768zM895 1550q-77 0 -133.5 35.5t-83 94.5t-14.5 130q11 65 52 117t102.5 83t132.5 31q78 0 134.5 -35
t83 -94t14.5 -130q-10 -65 -52 -118t-103.5 -83.5t-132.5 -30.5zM904 1678q49 0 89.5 33t49.5 83q9 51 -19.5 85.5t-80.5 34.5q-50 0 -90 -34t-49 -83q-8 -50 20.5 -84.5t79.5 -34.5z" />
    <glyph glyph-name="AE" unicode="&#xc6;" horiz-adv-x="2035" 
d="M-48 0l931 1490h1184l-33 -195h-709l-74 -451h658l-32 -194h-658l-76 -455h717l-32 -195h-944l213 1281h-114l-784 -1281h-247zM361 399l31 189h706l-31 -189h-706z" />
    <glyph glyph-name="Ccedilla" unicode="&#xc7;" horiz-adv-x="1498" 
d="M700 -21q-174 0 -303.5 73t-200.5 208.5t-71 323.5q0 179 56 345t161.5 297.5t254 208t331.5 76.5q121 0 221 -34.5t173 -99.5t113 -159t39 -214h-228q-3 72 -27.5 128t-67.5 94.5t-101.5 58t-128.5 19.5q-135 0 -241 -61.5t-180 -165t-112.5 -231t-38.5 -258.5
q0 -130 45 -220t126 -136t191 -46q74 0 143 19.5t128.5 58t105.5 94t72 127.5h230q-37 -112 -103.5 -204.5t-157.5 -160.5t-200 -104.5t-229 -36.5zM498 -424l18 110h120q51 0 75.5 14.5t29.5 49.5q6 34 -12.5 49t-71.5 15h-84l70 227h101l-8 -47l-15 -86q93 -2 135 -41.5
t29 -117.5q-14 -90 -77.5 -131.5t-184.5 -41.5h-125z" />
    <glyph glyph-name="Egrave" unicode="&#xc8;" horiz-adv-x="1231" 
d="M67 0l247 1490h952l-33 -195h-725l-73 -444h673l-32 -194h-674l-76 -462h730l-32 -195h-957zM736 1632l-151 301h227l91 -301h-167z" />
    <glyph glyph-name="Eacute" unicode="&#xc9;" horiz-adv-x="1231" 
d="M67 0l247 1490h952l-33 -195h-725l-73 -444h673l-32 -194h-674l-76 -462h730l-32 -195h-957zM724 1653l190 284h226l-248 -284h-168z" />
    <glyph glyph-name="Ecircumflex" unicode="&#xca;" horiz-adv-x="1231" 
d="M67 0l247 1490h952l-33 -195h-725l-73 -444h673l-32 -194h-674l-76 -462h730l-32 -195h-957zM677 1648h-202l1 7l295 278h190l204 -278l-1 -7h-203l-113 174z" />
    <glyph glyph-name="Edieresis" unicode="&#xcb;" horiz-adv-x="1231" 
d="M67 0l247 1490h952l-33 -195h-725l-73 -444h673l-32 -194h-674l-76 -462h730l-32 -195h-957zM1036 1666q-53 0 -85 37.5t-23 90.5t53 90t98 37t85.5 -37t22.5 -90t-53 -90.5t-98 -37.5zM608 1666q-54 0 -85.5 37.5t-22.5 90.5t53 90t98 37t85 -37t23 -90
q-9 -53 -53 -90.5t-98 -37.5z" />
    <glyph glyph-name="Igrave" unicode="&#xcc;" horiz-adv-x="544" 
d="M541 1490l-247 -1490h-227l247 1490h227zM371 1632l-151 301h227l91 -301h-167z" />
    <glyph glyph-name="Iacute" unicode="&#xcd;" horiz-adv-x="544" 
d="M541 1490l-247 -1490h-227l247 1490h227zM359 1653l190 284h226l-248 -284h-168z" />
    <glyph glyph-name="Icircumflex" unicode="&#xce;" horiz-adv-x="544" 
d="M541 1490l-247 -1490h-227l247 1490h227zM311 1648h-202l1 7l295 278h190l204 -278l-1 -7h-203l-113 174z" />
    <glyph glyph-name="Idieresis" unicode="&#xcf;" horiz-adv-x="544" 
d="M541 1490l-247 -1490h-227l247 1490h227zM670 1666q-53 0 -85 37.5t-23 90.5t53 90t98 37t85.5 -37t22.5 -90t-53 -90.5t-98 -37.5zM242 1666q-54 0 -85.5 37.5t-22.5 90.5t53 90t98 37t85 -37t23 -90q-9 -53 -53 -90.5t-98 -37.5z" />
    <glyph glyph-name="Eth" unicode="&#xd0;" horiz-adv-x="1516" 
d="M638 0h-404l33 198h355q171 0 294.5 64.5t199.5 187.5t104 297q29 175 -4.5 296.5t-130.5 185t-260 63.5h-384l33 198h370q220 0 367.5 -89.5t209.5 -256t23 -398.5q-39 -234 -143 -400.5t-270.5 -256t-392.5 -89.5zM593 1490l-247 -1490h-227l247 1490h227zM40 659
l29 172h784l-28 -172h-785z" />
    <glyph glyph-name="Ntilde" unicode="&#xd1;" horiz-adv-x="1530" 
d="M67 0l247 1490h253l416 -890q17 -37 41.5 -95.5t51.5 -133.5t52 -161l-25 -11q6 79 15.5 160.5t19.5 153.5t18 120l142 857h229l-247 -1490h-253l-374 796q-25 56 -52.5 120.5t-61 151.5t-80.5 208l31 10q-14 -117 -25.5 -211.5t-20.5 -164.5t-16 -113l-132 -797h-229z
M1086 1676q-40 0 -74 13.5t-62 31.5t-52 31t-44 13q-29 0 -47 -26t-25 -58h-138q20 103 75.5 164.5t138.5 61.5q42 0 74.5 -14t58.5 -32t50 -31.5t49 -13.5q28 0 45 21t28 65h136q-21 -106 -78 -166t-135 -60z" />
    <glyph glyph-name="Ograve" unicode="&#xd2;" horiz-adv-x="1562" 
d="M699 -21q-172 0 -301.5 73t-201 209t-71.5 324q0 179 56.5 345t162 296.5t253.5 207.5t331 77q172 0 300.5 -73t200.5 -208.5t72 -324.5q0 -179 -56.5 -345t-162.5 -297t-253.5 -207.5t-329.5 -76.5zM708 186q135 0 240.5 61.5t179 165t111.5 231t38 258.5
q0 132 -45.5 221.5t-126 135t-186.5 45.5q-135 0 -240.5 -61.5t-179 -165.5t-112 -231t-38.5 -258t45.5 -220.5t126.5 -135.5t187 -46zM880 1632l-151 301h227l91 -301h-167z" />
    <glyph glyph-name="Oacute" unicode="&#xd3;" horiz-adv-x="1562" 
d="M699 -21q-172 0 -301.5 73t-201 209t-71.5 324q0 179 56.5 345t162 296.5t253.5 207.5t331 77q172 0 300.5 -73t200.5 -208.5t72 -324.5q0 -179 -56.5 -345t-162.5 -297t-253.5 -207.5t-329.5 -76.5zM708 186q135 0 240.5 61.5t179 165t111.5 231t38 258.5
q0 132 -45.5 221.5t-126 135t-186.5 45.5q-135 0 -240.5 -61.5t-179 -165.5t-112 -231t-38.5 -258t45.5 -220.5t126.5 -135.5t187 -46zM868 1653l190 284h226l-248 -284h-168z" />
    <glyph glyph-name="Ocircumflex" unicode="&#xd4;" horiz-adv-x="1562" 
d="M699 -21q-172 0 -301.5 73t-201 209t-71.5 324q0 179 56.5 345t162 296.5t253.5 207.5t331 77q172 0 300.5 -73t200.5 -208.5t72 -324.5q0 -179 -56.5 -345t-162.5 -297t-253.5 -207.5t-329.5 -76.5zM708 186q135 0 240.5 61.5t179 165t111.5 231t38 258.5
q0 132 -45.5 221.5t-126 135t-186.5 45.5q-135 0 -240.5 -61.5t-179 -165.5t-112 -231t-38.5 -258t45.5 -220.5t126.5 -135.5t187 -46zM820 1648h-202l1 7l295 278h190l204 -278l-1 -7h-203l-113 174z" />
    <glyph glyph-name="Otilde" unicode="&#xd5;" horiz-adv-x="1562" 
d="M699 -21q-172 0 -301.5 73t-201 209t-71.5 324q0 179 56.5 345t162 296.5t253.5 207.5t331 77q172 0 300.5 -73t200.5 -208.5t72 -324.5q0 -179 -56.5 -345t-162.5 -297t-253.5 -207.5t-329.5 -76.5zM708 186q135 0 240.5 61.5t179 165t111.5 231t38 258.5
q0 132 -45.5 221.5t-126 135t-186.5 45.5q-135 0 -240.5 -61.5t-179 -165.5t-112 -231t-38.5 -258t45.5 -220.5t126.5 -135.5t187 -46zM1102 1676q-40 0 -74 13.5t-62 31.5t-52 31t-44 13q-29 0 -47 -26t-25 -58h-138q20 103 75.5 164.5t138.5 61.5q42 0 74.5 -14t58.5 -32
t50 -31.5t49 -13.5q28 0 45 21t28 65h136q-21 -106 -78 -166t-135 -60z" />
    <glyph glyph-name="Odieresis" unicode="&#xd6;" horiz-adv-x="1562" 
d="M699 -21q-172 0 -301.5 73t-201 209t-71.5 324q0 179 56.5 345t162 296.5t253.5 207.5t331 77q172 0 300.5 -73t200.5 -208.5t72 -324.5q0 -179 -56.5 -345t-162.5 -297t-253.5 -207.5t-329.5 -76.5zM708 186q135 0 240.5 61.5t179 165t111.5 231t38 258.5
q0 132 -45.5 221.5t-126 135t-186.5 45.5q-135 0 -240.5 -61.5t-179 -165.5t-112 -231t-38.5 -258t45.5 -220.5t126.5 -135.5t187 -46zM1180 1666q-53 0 -85 37.5t-23 90.5t53 90t98 37t85.5 -37t22.5 -90t-53 -90.5t-98 -37.5zM752 1666q-54 0 -85.5 37.5t-22.5 90.5t53 90
t98 37t85 -37t23 -90q-9 -53 -53 -90.5t-98 -37.5z" />
    <glyph glyph-name="multiply" unicode="&#xd7;" horiz-adv-x="1354" 
d="M953 98l-698 836l154 134l698 -837zM267 101l-124 145l958 820l125 -147z" />
    <glyph glyph-name="Oslash" unicode="&#xd8;" horiz-adv-x="1562" 
d="M699 -21q-172 0 -301.5 73t-201 209t-71.5 324q0 179 56.5 345t162 296.5t253.5 207.5t331 77q172 0 300.5 -73t200.5 -208.5t72 -324.5q0 -179 -56.5 -345t-162.5 -297t-253.5 -207.5t-329.5 -76.5zM708 186q135 0 240.5 61.5t179 165t111.5 231t38 258.5
q0 132 -45.5 221.5t-126 135t-186.5 45.5q-135 0 -240.5 -61.5t-179 -165.5t-112 -231t-38.5 -258t45.5 -220.5t126.5 -135.5t187 -46zM203 -54l-121 100l1343 1498l121 -101z" />
    <glyph glyph-name="Ugrave" unicode="&#xd9;" horiz-adv-x="1498" 
d="M667 -23q-182 0 -307 70.5t-179.5 193.5t-29.5 279l161 970h227l-160 -967q-17 -102 13.5 -178.5t103 -119t180.5 -42.5q115 0 207.5 46.5t152.5 126.5t76 182l158 952h227l-163 -985q-26 -157 -117.5 -276t-232.5 -185.5t-317 -66.5zM848 1632l-151 301h227l91 -301
h-167z" />
    <glyph glyph-name="Uacute" unicode="&#xda;" horiz-adv-x="1498" 
d="M667 -23q-182 0 -307 70.5t-179.5 193.5t-29.5 279l161 970h227l-160 -967q-17 -102 13.5 -178.5t103 -119t180.5 -42.5q115 0 207.5 46.5t152.5 126.5t76 182l158 952h227l-163 -985q-26 -157 -117.5 -276t-232.5 -185.5t-317 -66.5zM836 1653l190 284h226l-248 -284
h-168z" />
    <glyph glyph-name="Ucircumflex" unicode="&#xdb;" horiz-adv-x="1498" 
d="M667 -23q-182 0 -307 70.5t-179.5 193.5t-29.5 279l161 970h227l-160 -967q-17 -102 13.5 -178.5t103 -119t180.5 -42.5q115 0 207.5 46.5t152.5 126.5t76 182l158 952h227l-163 -985q-26 -157 -117.5 -276t-232.5 -185.5t-317 -66.5zM788 1648h-202l1 7l295 278h190
l204 -278l-1 -7h-203l-113 174z" />
    <glyph glyph-name="Udieresis" unicode="&#xdc;" horiz-adv-x="1498" 
d="M667 -23q-182 0 -307 70.5t-179.5 193.5t-29.5 279l161 970h227l-160 -967q-17 -102 13.5 -178.5t103 -119t180.5 -42.5q115 0 207.5 46.5t152.5 126.5t76 182l158 952h227l-163 -985q-26 -157 -117.5 -276t-232.5 -185.5t-317 -66.5zM1147 1666q-53 0 -85 37.5t-23 90.5
t53 90t98 37t85.5 -37t22.5 -90t-53 -90.5t-98 -37.5zM719 1666q-54 0 -85.5 37.5t-22.5 90.5t53 90t98 37t85 -37t23 -90q-9 -53 -53 -90.5t-98 -37.5z" />
    <glyph glyph-name="Yacute" unicode="&#xdd;" horiz-adv-x="1408" 
d="M501 0l98 594l-401 896h250l202 -474q33 -76 57.5 -147t46.5 -169h-73q54 99 102.5 171t103.5 145l357 474h276l-695 -896l-98 -594h-226zM791 1653l190 284h226l-248 -284h-168z" />
    <glyph glyph-name="Thorn" unicode="&#xde;" horiz-adv-x="1310" 
d="M304 1490h229l-248 -1490h-227zM360 1194h385q167 0 271.5 -58.5t148 -156t24.5 -217.5q-18 -122 -93.5 -222.5t-199.5 -160t-292 -59.5h-386l31 188h385q100 0 171 30.5t113 86t54 129.5q13 75 -11.5 131t-86 88t-160.5 32h-384z" />
    <glyph glyph-name="germandbls" unicode="&#xdf;" horiz-adv-x="1274" 
d="M67 0l183 1104q21 125 93.5 216t184 140.5t247.5 49.5q131 0 229.5 -46t146.5 -133.5t28 -211.5q-21 -123 -98 -208t-185 -119l-2 -15q141 -13 213.5 -113t45.5 -256q-20 -122 -92 -214t-181.5 -143t-243.5 -51h-174l33 192h159q73 0 132.5 29t98 80t49.5 118
q19 106 -42.5 173.5t-188.5 67.5h-125l31 191h87q67 0 121 33t89 87.5t45 115.5q16 96 -36.5 162.5t-165.5 66.5q-105 0 -184.5 -62.5t-97.5 -165.5l-180 -1088h-220z" />
    <glyph glyph-name="agrave" unicode="&#xe0;" horiz-adv-x="1249" 
d="M460 -22q-136 0 -229.5 70t-131.5 198.5t-9 304.5q30 178 111 305t198 195.5t251 68.5q96 0 154 -31t89.5 -75.5t47.5 -84.5h11l29 175h217l-183 -1104h-213l28 171h-15q-31 -42 -78 -87t-115 -75.5t-162 -30.5zM540 164q93 0 165.5 49.5t121.5 136.5t67 202
q20 116 0 201.5t-77 133t-150 47.5q-95 0 -168.5 -49.5t-121 -135t-65.5 -197.5t1 -200t76 -138t151 -50zM657 1246l-151 301h227l91 -301h-167z" />
    <glyph glyph-name="aacute" unicode="&#xe1;" horiz-adv-x="1249" 
d="M460 -22q-136 0 -229.5 70t-131.5 198.5t-9 304.5q30 178 111 305t198 195.5t251 68.5q96 0 154 -31t89.5 -75.5t47.5 -84.5h11l29 175h217l-183 -1104h-213l28 171h-15q-31 -42 -78 -87t-115 -75.5t-162 -30.5zM540 164q93 0 165.5 49.5t121.5 136.5t67 202
q20 116 0 201.5t-77 133t-150 47.5q-95 0 -168.5 -49.5t-121 -135t-65.5 -197.5t1 -200t76 -138t151 -50zM645 1267l190 284h226l-248 -284h-168z" />
    <glyph glyph-name="acircumflex" unicode="&#xe2;" horiz-adv-x="1249" 
d="M460 -22q-136 0 -229.5 70t-131.5 198.5t-9 304.5q30 178 111 305t198 195.5t251 68.5q96 0 154 -31t89.5 -75.5t47.5 -84.5h11l29 175h217l-183 -1104h-213l28 171h-15q-31 -42 -78 -87t-115 -75.5t-162 -30.5zM540 164q93 0 165.5 49.5t121.5 136.5t67 202
q20 116 0 201.5t-77 133t-150 47.5q-95 0 -168.5 -49.5t-121 -135t-65.5 -197.5t1 -200t76 -138t151 -50zM598 1262h-202l1 7l295 278h190l204 -278l-1 -7h-203l-113 174z" />
    <glyph glyph-name="atilde" unicode="&#xe3;" horiz-adv-x="1249" 
d="M460 -22q-136 0 -229.5 70t-131.5 198.5t-9 304.5q30 178 111 305t198 195.5t251 68.5q96 0 154 -31t89.5 -75.5t47.5 -84.5h11l29 175h217l-183 -1104h-213l28 171h-15q-31 -42 -78 -87t-115 -75.5t-162 -30.5zM540 164q93 0 165.5 49.5t121.5 136.5t67 202
q20 116 0 201.5t-77 133t-150 47.5q-95 0 -168.5 -49.5t-121 -135t-65.5 -197.5t1 -200t76 -138t151 -50zM879 1290q-40 0 -74 13.5t-62 31.5t-52 31t-44 13q-29 0 -47 -26t-25 -58h-138q20 103 75.5 164.5t138.5 61.5q42 0 74.5 -14t58.5 -32t50 -31.5t49 -13.5q28 0 45 21
t28 65h136q-21 -106 -78 -166t-135 -60z" />
    <glyph glyph-name="adieresis" unicode="&#xe4;" horiz-adv-x="1249" 
d="M460 -22q-136 0 -229.5 70t-131.5 198.5t-9 304.5q30 178 111 305t198 195.5t251 68.5q96 0 154 -31t89.5 -75.5t47.5 -84.5h11l29 175h217l-183 -1104h-213l28 171h-15q-31 -42 -78 -87t-115 -75.5t-162 -30.5zM540 164q93 0 165.5 49.5t121.5 136.5t67 202
q20 116 0 201.5t-77 133t-150 47.5q-95 0 -168.5 -49.5t-121 -135t-65.5 -197.5t1 -200t76 -138t151 -50zM957 1280q-53 0 -85 37.5t-23 90.5t53 90t98 37t85.5 -37t22.5 -90t-53 -90.5t-98 -37.5zM529 1280q-54 0 -85.5 37.5t-22.5 90.5t53 90t98 37t85 -37t23 -90
q-9 -53 -53 -90.5t-98 -37.5z" />
    <glyph glyph-name="aring" unicode="&#xe5;" horiz-adv-x="1249" 
d="M460 -22q-136 0 -229.5 70t-131.5 198.5t-9 304.5q30 178 111 305t198 195.5t251 68.5q96 0 154 -31t89.5 -75.5t47.5 -84.5h11l29 175h217l-183 -1104h-213l28 171h-15q-31 -42 -78 -87t-115 -75.5t-162 -30.5zM540 164q93 0 165.5 49.5t121.5 136.5t67 202
q20 116 0 201.5t-77 133t-150 47.5q-95 0 -168.5 -49.5t-121 -135t-65.5 -197.5t1 -200t76 -138t151 -50zM726 1180q-73 0 -126.5 33.5t-79.5 90.5t-15 126q12 69 56.5 125t109.5 89.5t138 33.5t126.5 -33.5t79.5 -89.5t14 -125q-11 -69 -55.5 -126t-109.5 -90.5t-138 -33.5
zM746 1309q52 0 93 35t49 86q8 52 -21.5 86t-77.5 34q-51 0 -92 -34.5t-50 -85.5q-9 -50 20 -85.5t79 -35.5z" />
    <glyph glyph-name="ae" unicode="&#xe6;" horiz-adv-x="1850" 
d="M386 -16q-178 0 -269.5 91t-65.5 244q14 85 64.5 154.5t145 110.5t238.5 41h103t104.5 -0.5t127.5 0.5l-16 -152h-150.5t-147.5 -1q-103 0 -173.5 -37t-82.5 -115q-14 -81 29 -122.5t136 -41.5q95 0 161.5 35t106.5 91.5t51 120.5l63 352q18 98 -28 146t-161 48
q-65 0 -118.5 -21t-89 -58.5t-49.5 -90.5l-212 7q23 101 92 177.5t173 119t232 42.5q127 0 212.5 -44t123 -124.5t18.5 -187.5l-80 -488l-17 -4q-37 -87 -107.5 -153t-173.5 -103t-240 -37zM1211 -24q-143 0 -243 55.5t-150.5 161.5t-44.5 257q3 145 50 268.5t128.5 215
t189 142.5t233.5 51q112 0 197 -38t133 -108t48 -167q0 -96 -53 -161.5t-161 -105.5t-270.5 -57t-383.5 -17l25 149q186 0 308.5 10t193 32.5t100 60t29.5 93.5q0 60 -49.5 94t-133.5 34q-91 0 -166 -42.5t-125.5 -117t-66.5 -172.5q-8 -51 -14 -87t-9 -62t-3 -45
q0 -129 63 -196.5t185 -67.5q103 0 181 45t114 119l205 -29q-61 -147 -195.5 -231t-314.5 -84z" />
    <glyph glyph-name="ccedilla" unicode="&#xe7;" horiz-adv-x="1162" 
d="M525 -23q-138 0 -237.5 56.5t-153 159.5t-53.5 240q0 130 41 253t119.5 221t191.5 155.5t256 57.5q90 0 165 -24t130.5 -69.5t88 -109t37.5 -142.5l-212 -32q-4 43 -18.5 78t-41 60.5t-64.5 39.5t-89 14q-95 0 -167 -45t-120.5 -119.5t-73 -163t-24.5 -175.5
q0 -78 24 -139.5t75.5 -96t131.5 -34.5q54 0 101.5 15t87 42.5t69 65.5t47.5 83l204 -45q-31 -80 -82 -143.5t-118 -109t-146.5 -69.5t-168.5 -24zM330 -418l18 110h120q51 0 75.5 14.5t29.5 49.5q6 34 -12.5 49t-71.5 15h-84l70 227h101l-8 -47l-15 -86q93 -2 135 -41.5
t29 -117.5q-14 -90 -77.5 -131.5t-184.5 -41.5h-125z" />
    <glyph glyph-name="egrave" unicode="&#xe8;" horiz-adv-x="1169" 
d="M530 -24q-140 0 -241 53t-155 155t-53 248q1 145 47.5 271t130.5 221t195.5 149t242.5 54q112 0 196.5 -37.5t132 -107t47.5 -166.5q0 -98 -53 -164.5t-160.5 -106.5t-271 -57.5t-384.5 -17.5l27 153q186 0 308 9.5t192.5 31.5t100 59t29.5 91q0 61 -50 96.5t-136 35.5
q-106 0 -179.5 -50t-118 -129.5t-65 -168.5t-20.5 -169q-1 -75 22.5 -137.5t79 -99t150.5 -36.5q103 0 180 44t114 119l202 -34q-59 -141 -194.5 -225t-315.5 -84zM642 1246l-151 301h227l91 -301h-167z" />
    <glyph glyph-name="eacute" unicode="&#xe9;" horiz-adv-x="1169" 
d="M530 -24q-140 0 -241 53t-155 155t-53 248q1 145 47.5 271t130.5 221t195.5 149t242.5 54q112 0 196.5 -37.5t132 -107t47.5 -166.5q0 -98 -53 -164.5t-160.5 -106.5t-271 -57.5t-384.5 -17.5l27 153q186 0 308 9.5t192.5 31.5t100 59t29.5 91q0 61 -50 96.5t-136 35.5
q-106 0 -179.5 -50t-118 -129.5t-65 -168.5t-20.5 -169q-1 -75 22.5 -137.5t79 -99t150.5 -36.5q103 0 180 44t114 119l202 -34q-59 -141 -194.5 -225t-315.5 -84zM630 1267l190 284h226l-248 -284h-168z" />
    <glyph glyph-name="ecircumflex" unicode="&#xea;" horiz-adv-x="1169" 
d="M530 -24q-140 0 -241 53t-155 155t-53 248q1 145 47.5 271t130.5 221t195.5 149t242.5 54q112 0 196.5 -37.5t132 -107t47.5 -166.5q0 -98 -53 -164.5t-160.5 -106.5t-271 -57.5t-384.5 -17.5l27 153q186 0 308 9.5t192.5 31.5t100 59t29.5 91q0 61 -50 96.5t-136 35.5
q-106 0 -179.5 -50t-118 -129.5t-65 -168.5t-20.5 -169q-1 -75 22.5 -137.5t79 -99t150.5 -36.5q103 0 180 44t114 119l202 -34q-59 -141 -194.5 -225t-315.5 -84zM583 1262h-202l1 7l295 278h190l204 -278l-1 -7h-203l-113 174z" />
    <glyph glyph-name="edieresis" unicode="&#xeb;" horiz-adv-x="1169" 
d="M530 -24q-140 0 -241 53t-155 155t-53 248q1 145 47.5 271t130.5 221t195.5 149t242.5 54q112 0 196.5 -37.5t132 -107t47.5 -166.5q0 -98 -53 -164.5t-160.5 -106.5t-271 -57.5t-384.5 -17.5l27 153q186 0 308 9.5t192.5 31.5t100 59t29.5 91q0 61 -50 96.5t-136 35.5
q-106 0 -179.5 -50t-118 -129.5t-65 -168.5t-20.5 -169q-1 -75 22.5 -137.5t79 -99t150.5 -36.5q103 0 180 44t114 119l202 -34q-59 -141 -194.5 -225t-315.5 -84zM942 1280q-53 0 -85 37.5t-23 90.5t53 90t98 37t85.5 -37t22.5 -90t-53 -90.5t-98 -37.5zM514 1280
q-54 0 -85.5 37.5t-22.5 90.5t53 90t98 37t85 -37t23 -90q-9 -53 -53 -90.5t-98 -37.5z" />
    <glyph glyph-name="igrave" unicode="&#xec;" horiz-adv-x="502" 
d="M51 0l182 1104h218l-182 -1104h-218zM286 1246l-151 301h227l91 -301h-167z" />
    <glyph glyph-name="iacute" unicode="&#xed;" horiz-adv-x="502" 
d="M51 0l182 1104h218l-182 -1104h-218zM274 1267l190 284h226l-248 -284h-168z" />
    <glyph glyph-name="icircumflex" unicode="&#xee;" horiz-adv-x="502" 
d="M51 0l182 1104h218l-182 -1104h-218zM227 1262h-202l1 7l295 278h190l204 -278l-1 -7h-203l-113 174z" />
    <glyph glyph-name="idieresis" unicode="&#xef;" horiz-adv-x="502" 
d="M51 0l182 1104h218l-182 -1104h-218zM586 1280q-53 0 -85 37.5t-23 90.5t53 90t98 37t85.5 -37t22.5 -90t-53 -90.5t-98 -37.5zM158 1280q-54 0 -85.5 37.5t-22.5 90.5t53 90t98 37t85 -37t23 -90q-9 -53 -53 -90.5t-98 -37.5z" />
    <glyph glyph-name="eth" unicode="&#xf0;" horiz-adv-x="1189" 
d="M1098 1411l-678 -308l-19 119l677 308zM498 -24q-153 0 -255 68.5t-144 189.5t-16 277q25 155 104 275.5t191.5 188.5t240.5 68q79 0 135 -25.5t92.5 -64.5t56.5 -80h14q-21 95 -76.5 197.5t-152 198.5t-242.5 172l83 137q127 -54 243 -147t201 -222t121.5 -292t5.5 -358
q-29 -183 -113.5 -313.5t-210 -200t-278.5 -69.5zM532 159q96 0 169.5 46t120.5 125.5t63 178.5q15 93 -1.5 178t-72.5 140t-159 55q-99 0 -172.5 -50t-119 -133t-62.5 -182q-15 -95 2.5 -177t74 -131.5t157.5 -49.5z" />
    <glyph glyph-name="ntilde" unicode="&#xf1;" horiz-adv-x="1213" 
d="M375 643l-107 -643h-218l183 1104h209l-42 -271l-30 7q72 146 173 213t229 67q116 0 196.5 -49.5t115 -145t11.5 -234.5l-115 -691h-218l113 679q21 123 -29.5 186.5t-155.5 63.5q-76 0 -142.5 -33.5t-112 -97.5t-60.5 -155zM863 1290q-40 0 -74 13.5t-62 31.5t-52 31
t-44 13q-29 0 -47 -26t-25 -58h-138q20 103 75.5 164.5t138.5 61.5q42 0 74.5 -14t58.5 -32t50 -31.5t49 -13.5q28 0 45 21t28 65h136q-21 -106 -78 -166t-135 -60z" />
    <glyph glyph-name="ograve" unicode="&#xf2;" horiz-adv-x="1217" 
d="M526 -23q-139 0 -238.5 56.5t-153 159.5t-53.5 240q0 133 42 256t121 220.5t192 154t254 56.5q139 0 239 -56t153 -159.5t53 -242.5q0 -133 -42 -256t-122 -220t-192.5 -153t-252.5 -56zM532 162q96 0 168 45.5t120 120t72 163t24 172.5q0 80 -25 141t-77 96t-132 35
q-94 0 -165.5 -45.5t-120 -120t-73 -163t-24.5 -174.5q0 -118 57 -194t176 -76zM643 1246l-151 301h227l91 -301h-167z" />
    <glyph glyph-name="oacute" unicode="&#xf3;" horiz-adv-x="1217" 
d="M526 -23q-139 0 -238.5 56.5t-153 159.5t-53.5 240q0 133 42 256t121 220.5t192 154t254 56.5q139 0 239 -56t153 -159.5t53 -242.5q0 -133 -42 -256t-122 -220t-192.5 -153t-252.5 -56zM532 162q96 0 168 45.5t120 120t72 163t24 172.5q0 80 -25 141t-77 96t-132 35
q-94 0 -165.5 -45.5t-120 -120t-73 -163t-24.5 -174.5q0 -118 57 -194t176 -76zM631 1267l190 284h226l-248 -284h-168z" />
    <glyph glyph-name="ocircumflex" unicode="&#xf4;" horiz-adv-x="1217" 
d="M526 -23q-139 0 -238.5 56.5t-153 159.5t-53.5 240q0 133 42 256t121 220.5t192 154t254 56.5q139 0 239 -56t153 -159.5t53 -242.5q0 -133 -42 -256t-122 -220t-192.5 -153t-252.5 -56zM532 162q96 0 168 45.5t120 120t72 163t24 172.5q0 80 -25 141t-77 96t-132 35
q-94 0 -165.5 -45.5t-120 -120t-73 -163t-24.5 -174.5q0 -118 57 -194t176 -76zM583 1262h-202l1 7l295 278h190l204 -278l-1 -7h-203l-113 174z" />
    <glyph glyph-name="otilde" unicode="&#xf5;" horiz-adv-x="1217" 
d="M526 -23q-139 0 -238.5 56.5t-153 159.5t-53.5 240q0 133 42 256t121 220.5t192 154t254 56.5q139 0 239 -56t153 -159.5t53 -242.5q0 -133 -42 -256t-122 -220t-192.5 -153t-252.5 -56zM532 162q96 0 168 45.5t120 120t72 163t24 172.5q0 80 -25 141t-77 96t-132 35
q-94 0 -165.5 -45.5t-120 -120t-73 -163t-24.5 -174.5q0 -118 57 -194t176 -76zM864 1290q-40 0 -74 13.5t-62 31.5t-52 31t-44 13q-29 0 -47 -26t-25 -58h-138q20 103 75.5 164.5t138.5 61.5q42 0 74.5 -14t58.5 -32t50 -31.5t49 -13.5q28 0 45 21t28 65h136
q-21 -106 -78 -166t-135 -60z" />
    <glyph glyph-name="odieresis" unicode="&#xf6;" horiz-adv-x="1217" 
d="M526 -23q-139 0 -238.5 56.5t-153 159.5t-53.5 240q0 133 42 256t121 220.5t192 154t254 56.5q139 0 239 -56t153 -159.5t53 -242.5q0 -133 -42 -256t-122 -220t-192.5 -153t-252.5 -56zM532 162q96 0 168 45.5t120 120t72 163t24 172.5q0 80 -25 141t-77 96t-132 35
q-94 0 -165.5 -45.5t-120 -120t-73 -163t-24.5 -174.5q0 -118 57 -194t176 -76zM942 1280q-53 0 -85 37.5t-23 90.5t53 90t98 37t85.5 -37t22.5 -90t-53 -90.5t-98 -37.5zM514 1280q-54 0 -85.5 37.5t-22.5 90.5t53 90t98 37t85 -37t23 -90q-9 -53 -53 -90.5t-98 -37.5z" />
    <glyph glyph-name="divide" unicode="&#xf7;" horiz-adv-x="1354" 
d="M1179 683l-31 -193h-962l32 193h961zM605 55q-66 1 -102.5 47t-27.5 109q5 37 28 67.5t57.5 48.5t72.5 18q60 0 98 -43.5t29 -109.5q-7 -59 -54.5 -97.5t-100.5 -39.5zM733 829q-43 0 -75 20.5t-48 56t-9 78.5q9 56 56 95.5t105 39.5q60 0 98.5 -45t27.5 -110
q-9 -56 -54.5 -95.5t-100.5 -39.5z" />
    <glyph glyph-name="oslash" unicode="&#xf8;" horiz-adv-x="1217" 
d="M526 -23q-139 0 -238.5 56.5t-153 159.5t-53.5 240q0 133 42 256t121 220.5t192 154t254 56.5q139 0 239 -56t153 -159.5t53 -242.5q0 -133 -42 -256t-122 -220t-192.5 -153t-252.5 -56zM532 162q96 0 168 45.5t120 120t72 163t24 172.5q0 80 -25 141t-77 96t-132 35
q-94 0 -165.5 -45.5t-120 -120t-73 -163t-24.5 -174.5q0 -118 57 -194t176 -76zM82 -46l-91 92l1142 1104l91 -92z" />
    <glyph glyph-name="ugrave" unicode="&#xf9;" horiz-adv-x="1214" 
d="M430 -15q-112 0 -190.5 47t-111.5 141t-10 233l115 698h218l-110 -671q-20 -122 30.5 -190t161.5 -68q73 0 136.5 31.5t108.5 94t60 153.5l107 650h219l-183 -1104h-210l44 271h28q-74 -149 -179 -217.5t-234 -68.5zM641 1246l-151 301h227l91 -301h-167z" />
    <glyph glyph-name="uacute" unicode="&#xfa;" horiz-adv-x="1214" 
d="M430 -15q-112 0 -190.5 47t-111.5 141t-10 233l115 698h218l-110 -671q-20 -122 30.5 -190t161.5 -68q73 0 136.5 31.5t108.5 94t60 153.5l107 650h219l-183 -1104h-210l44 271h28q-74 -149 -179 -217.5t-234 -68.5zM630 1267l190 284h226l-248 -284h-168z" />
    <glyph glyph-name="ucircumflex" unicode="&#xfb;" horiz-adv-x="1214" 
d="M430 -15q-112 0 -190.5 47t-111.5 141t-10 233l115 698h218l-110 -671q-20 -122 30.5 -190t161.5 -68q73 0 136.5 31.5t108.5 94t60 153.5l107 650h219l-183 -1104h-210l44 271h28q-74 -149 -179 -217.5t-234 -68.5zM582 1262h-202l1 7l295 278h190l204 -278l-1 -7h-203
l-113 174z" />
    <glyph glyph-name="udieresis" unicode="&#xfc;" horiz-adv-x="1214" 
d="M430 -15q-112 0 -190.5 47t-111.5 141t-10 233l115 698h218l-110 -671q-20 -122 30.5 -190t161.5 -68q73 0 136.5 31.5t108.5 94t60 153.5l107 650h219l-183 -1104h-210l44 271h28q-74 -149 -179 -217.5t-234 -68.5zM941 1280q-53 0 -85 37.5t-23 90.5t53 90t98 37
t85.5 -37t22.5 -90t-53 -90.5t-98 -37.5zM513 1280q-54 0 -85.5 37.5t-22.5 90.5t53 90t98 37t85 -37t23 -90q-9 -53 -53 -90.5t-98 -37.5z" />
    <glyph glyph-name="yacute" unicode="&#xfd;" horiz-adv-x="1156" 
d="M-25 -406l71 180l44 -5q51 -11 93.5 -3t78 41.5t64.5 98.5l45 92l-238 1106h226l116 -623q18 -100 27 -199.5t21 -198.5h-66q45 99 88 199t95 199l324 623h242l-694 -1266q-47 -85 -105.5 -143.5t-129.5 -88.5t-157 -30q-45 0 -83.5 6t-61.5 12zM598 1267l190 284h226
l-248 -284h-168z" />
    <glyph glyph-name="thorn" unicode="&#xfe;" horiz-adv-x="1247" 
d="M597 -22q-93 0 -151 30.5t-90 75.5t-49 87h-11l-97 -589h-218l316 1908h218l-93 -561h10q30 40 76 84.5t114.5 75.5t163.5 31q135 0 228.5 -68t132.5 -195t10 -306q-29 -178 -110.5 -306.5t-198 -197.5t-251.5 -69zM581 164q93 0 166 50t121.5 137.5t66.5 200.5
q19 112 -0.5 198t-75.5 135t-151 49q-93 0 -166 -47.5t-121 -133t-67 -201.5q-19 -114 0.5 -201.5t76.5 -137t150 -49.5z" />
    <glyph glyph-name="ydieresis" unicode="&#xff;" horiz-adv-x="1156" 
d="M-25 -406l71 180l44 -5q51 -11 93.5 -3t78 41.5t64.5 98.5l45 92l-238 1106h226l116 -623q18 -100 27 -199.5t21 -198.5h-66q45 99 88 199t95 199l324 623h242l-694 -1266q-47 -85 -105.5 -143.5t-129.5 -88.5t-157 -30q-45 0 -83.5 6t-61.5 12zM910 1280q-53 0 -85 37.5
t-23 90.5t53 90t98 37t85.5 -37t22.5 -90t-53 -90.5t-98 -37.5zM482 1280q-54 0 -85.5 37.5t-22.5 90.5t53 90t98 37t85 -37t23 -90q-9 -53 -53 -90.5t-98 -37.5z" />
    <glyph glyph-name="Amacron" unicode="&#x100;" horiz-adv-x="1436" 
d="M-48 0l779 1490h278l292 -1490h-236l-152 831q-15 96 -34.5 234t-41.5 329h50q-82 -185 -145 -322.5t-114 -240.5l-423 -831h-253zM307 391l31 190h768l-31 -190h-768zM1217 1867l-27 -158h-562l27 158h562z" />
    <glyph glyph-name="amacron" unicode="&#x101;" horiz-adv-x="1249" 
d="M460 -22q-136 0 -229.5 70t-131.5 198.5t-9 304.5q30 178 111 305t198 195.5t251 68.5q96 0 154 -31t89.5 -75.5t47.5 -84.5h11l29 175h217l-183 -1104h-213l28 171h-15q-31 -42 -78 -87t-115 -75.5t-162 -30.5zM540 164q93 0 165.5 49.5t121.5 136.5t67 202
q20 116 0 201.5t-77 133t-150 47.5q-95 0 -168.5 -49.5t-121 -135t-65.5 -197.5t1 -200t76 -138t151 -50zM1058 1481l-27 -158h-562l27 158h562z" />
    <glyph glyph-name="Abreve" unicode="&#x102;" horiz-adv-x="1436" 
d="M-48 0l779 1490h278l292 -1490h-236l-152 831q-15 96 -34.5 234t-41.5 329h50q-82 -185 -145 -322.5t-114 -240.5l-423 -831h-253zM307 391l31 190h768l-31 -190h-768zM896 1640q-86 0 -149 39t-92.5 105t-16.5 147h146q-11 -67 27.5 -109.5t108.5 -42.5q47 0 86.5 19.5
t66.5 54t34 78.5h146q-13 -81 -65 -147.5t-128.5 -105t-163.5 -38.5z" />
    <glyph glyph-name="abreve" unicode="&#x103;" horiz-adv-x="1249" 
d="M460 -22q-136 0 -229.5 70t-131.5 198.5t-9 304.5q30 178 111 305t198 195.5t251 68.5q96 0 154 -31t89.5 -75.5t47.5 -84.5h11l29 175h217l-183 -1104h-213l28 171h-15q-31 -42 -78 -87t-115 -75.5t-162 -30.5zM540 164q93 0 165.5 49.5t121.5 136.5t67 202
q20 116 0 201.5t-77 133t-150 47.5q-95 0 -168.5 -49.5t-121 -135t-65.5 -197.5t1 -200t76 -138t151 -50zM738 1254q-86 0 -149 39t-92.5 105t-16.5 147h146q-11 -67 27.5 -109.5t108.5 -42.5q47 0 86.5 19.5t66.5 54t34 78.5h146q-13 -81 -65 -147.5t-128.5 -105
t-163.5 -38.5z" />
    <glyph glyph-name="Aogonek" unicode="&#x104;" horiz-adv-x="1436" 
d="M-48 0l779 1490h278l292 -1490h-236l-152 831q-15 96 -34.5 234t-41.5 329h50q-82 -185 -145 -322.5t-114 -240.5l-423 -831h-253zM307 391l31 190h768l-31 -190h-768zM1096 -431q-101 0 -164 51t-47 149q12 72 64 134t134 116l217 -19q-85 -52 -134.5 -96t-59.5 -97
q-6 -37 11.5 -56.5t56.5 -19.5q25 0 47 6.5t39 14.5l24 -144q-35 -14 -84 -26.5t-104 -12.5z" />
    <glyph glyph-name="aogonek" unicode="&#x105;" horiz-adv-x="1249" 
d="M460 -22q-136 0 -229.5 70t-131.5 198.5t-9 304.5q30 178 111 305t198 195.5t251 68.5q96 0 154 -31t89.5 -75.5t47.5 -84.5h11l29 175h217l-183 -1104h-213l28 171h-15q-31 -42 -78 -87t-115 -75.5t-162 -30.5zM540 164q93 0 165.5 49.5t121.5 136.5t67 202
q20 116 0 201.5t-77 133t-150 47.5q-95 0 -168.5 -49.5t-121 -135t-65.5 -197.5t1 -200t76 -138t151 -50zM816 -424q-104 0 -163.5 51t-44.5 146q12 73 64.5 132.5t134.5 110.5l208 -16q-76 -46 -129.5 -89t-62.5 -99q-6 -35 11 -55t57 -20q24 0 45.5 6.5t39.5 13.5l24 -142
q-34 -14 -81.5 -26.5t-102.5 -12.5z" />
    <glyph glyph-name="Cacute" unicode="&#x106;" horiz-adv-x="1498" 
d="M700 -21q-174 0 -303.5 73t-200.5 208.5t-71 323.5q0 179 56 345t161.5 297.5t254 208t331.5 76.5q121 0 221 -34.5t173 -99.5t113 -159t39 -214h-228q-3 72 -27.5 128t-67.5 94.5t-101.5 58t-128.5 19.5q-135 0 -241 -61.5t-180 -165t-112.5 -231t-38.5 -258.5
q0 -130 45 -220t126 -136t191 -46q74 0 143 19.5t128.5 58t105.5 94t72 127.5h230q-37 -112 -103.5 -204.5t-157.5 -160.5t-200 -104.5t-229 -36.5zM865 1653l190 284h226l-248 -284h-168z" />
    <glyph glyph-name="cacute" unicode="&#x107;" horiz-adv-x="1162" 
d="M525 -23q-138 0 -237.5 56.5t-153 159.5t-53.5 240q0 130 41 253t119.5 221t191.5 155.5t256 57.5q90 0 165 -24t130.5 -69.5t88 -109t37.5 -142.5l-212 -32q-4 43 -18.5 78t-41 60.5t-64.5 39.5t-89 14q-95 0 -167 -45t-120.5 -119.5t-73 -163t-24.5 -175.5
q0 -78 24 -139.5t75.5 -96t131.5 -34.5q54 0 101.5 15t87 42.5t69 65.5t47.5 83l204 -45q-31 -80 -82 -143.5t-118 -109t-146.5 -69.5t-168.5 -24zM629 1267l190 284h226l-248 -284h-168z" />
    <glyph glyph-name="Ccircumflex" unicode="&#x108;" horiz-adv-x="1498" 
d="M700 -21q-174 0 -303.5 73t-200.5 208.5t-71 323.5q0 179 56 345t161.5 297.5t254 208t331.5 76.5q121 0 221 -34.5t173 -99.5t113 -159t39 -214h-228q-3 72 -27.5 128t-67.5 94.5t-101.5 58t-128.5 19.5q-135 0 -241 -61.5t-180 -165t-112.5 -231t-38.5 -258.5
q0 -130 45 -220t126 -136t191 -46q74 0 143 19.5t128.5 58t105.5 94t72 127.5h230q-37 -112 -103.5 -204.5t-157.5 -160.5t-200 -104.5t-229 -36.5zM817 1648h-202l1 7l295 278h190l204 -278l-1 -7h-203l-113 174z" />
    <glyph glyph-name="ccircumflex" unicode="&#x109;" horiz-adv-x="1162" 
d="M525 -23q-138 0 -237.5 56.5t-153 159.5t-53.5 240q0 130 41 253t119.5 221t191.5 155.5t256 57.5q90 0 165 -24t130.5 -69.5t88 -109t37.5 -142.5l-212 -32q-4 43 -18.5 78t-41 60.5t-64.5 39.5t-89 14q-95 0 -167 -45t-120.5 -119.5t-73 -163t-24.5 -175.5
q0 -78 24 -139.5t75.5 -96t131.5 -34.5q54 0 101.5 15t87 42.5t69 65.5t47.5 83l204 -45q-31 -80 -82 -143.5t-118 -109t-146.5 -69.5t-168.5 -24zM581 1262h-202l1 7l295 278h190l204 -278l-1 -7h-203l-113 174z" />
    <glyph glyph-name="Cdotaccent" unicode="&#x10a;" horiz-adv-x="1498" 
d="M700 -21q-174 0 -303.5 73t-200.5 208.5t-71 323.5q0 179 56 345t161.5 297.5t254 208t331.5 76.5q121 0 221 -34.5t173 -99.5t113 -159t39 -214h-228q-3 72 -27.5 128t-67.5 94.5t-101.5 58t-128.5 19.5q-135 0 -241 -61.5t-180 -165t-112.5 -231t-38.5 -258.5
q0 -130 45 -220t126 -136t191 -46q74 0 143 19.5t128.5 58t105.5 94t72 127.5h230q-37 -112 -103.5 -204.5t-157.5 -160.5t-200 -104.5t-229 -36.5zM962 1663q-57 0 -90.5 38.5t-24.5 92.5q9 55 55.5 92.5t103.5 37.5t90.5 -37.5t24.5 -92.5q-8 -54 -55 -92.5t-104 -38.5z
" />
    <glyph glyph-name="cdotaccent" unicode="&#x10b;" horiz-adv-x="1162" 
d="M525 -23q-138 0 -237.5 56.5t-153 159.5t-53.5 240q0 130 41 253t119.5 221t191.5 155.5t256 57.5q90 0 165 -24t130.5 -69.5t88 -109t37.5 -142.5l-212 -32q-4 43 -18.5 78t-41 60.5t-64.5 39.5t-89 14q-95 0 -167 -45t-120.5 -119.5t-73 -163t-24.5 -175.5
q0 -78 24 -139.5t75.5 -96t131.5 -34.5q54 0 101.5 15t87 42.5t69 65.5t47.5 83l204 -45q-31 -80 -82 -143.5t-118 -109t-146.5 -69.5t-168.5 -24zM726 1277q-57 0 -90.5 38.5t-24.5 92.5q9 55 55.5 92.5t103.5 37.5t90.5 -37.5t24.5 -92.5q-8 -54 -55 -92.5t-104 -38.5z
" />
    <glyph glyph-name="Ccaron" unicode="&#x10c;" horiz-adv-x="1498" 
d="M700 -21q-174 0 -303.5 73t-200.5 208.5t-71 323.5q0 179 56 345t161.5 297.5t254 208t331.5 76.5q121 0 221 -34.5t173 -99.5t113 -159t39 -214h-228q-3 72 -27.5 128t-67.5 94.5t-101.5 58t-128.5 19.5q-135 0 -241 -61.5t-180 -165t-112.5 -231t-38.5 -258.5
q0 -130 45 -220t126 -136t191 -46q74 0 143 19.5t128.5 58t105.5 94t72 127.5h230q-37 -112 -103.5 -204.5t-157.5 -160.5t-200 -104.5t-229 -36.5zM864 1933l114 -173l170 173h203l-1 -7l-297 -278h-190l-202 278l1 7h202z" />
    <glyph glyph-name="ccaron" unicode="&#x10d;" horiz-adv-x="1162" 
d="M525 -23q-138 0 -237.5 56.5t-153 159.5t-53.5 240q0 130 41 253t119.5 221t191.5 155.5t256 57.5q90 0 165 -24t130.5 -69.5t88 -109t37.5 -142.5l-212 -32q-4 43 -18.5 78t-41 60.5t-64.5 39.5t-89 14q-95 0 -167 -45t-120.5 -119.5t-73 -163t-24.5 -175.5
q0 -78 24 -139.5t75.5 -96t131.5 -34.5q54 0 101.5 15t87 42.5t69 65.5t47.5 83l204 -45q-31 -80 -82 -143.5t-118 -109t-146.5 -69.5t-168.5 -24zM628 1547l114 -173l170 173h203l-1 -7l-297 -278h-190l-202 278l1 7h202z" />
    <glyph glyph-name="Dcaron" unicode="&#x10e;" horiz-adv-x="1465" 
d="M586 0h-404l33 198h355q171 0 294.5 64.5t199.5 187.5t104 297q29 175 -4.5 296.5t-130.5 185t-260 63.5h-384l33 198h370q220 0 367.5 -89.5t209.5 -256t23 -398.5q-39 -234 -143 -400.5t-270.5 -256t-392.5 -89.5zM541 1490l-247 -1490h-227l247 1490h227zM694 1933
l114 -173l170 173h203l-1 -7l-297 -278h-190l-202 278l1 7h202z" />
    <glyph glyph-name="dcaron" unicode="&#x10f;" horiz-adv-x="1424" 
d="M473 -22q-180 0 -286.5 118.5t-106.5 325.5q0 129 37.5 253.5t109.5 225t175 160t235 59.5q99 0 159.5 -32.5t93.5 -78.5t49 -87h10l93 568h219l-247 -1490h-213l29 171h-14q-30 -45 -75 -89.5t-111 -74t-157 -29.5zM526 164q93 0 163.5 45.5t118.5 120t72.5 164
t24.5 177.5q0 122 -57 192.5t-170 70.5q-92 0 -162.5 -44.5t-118 -118t-72 -162t-24.5 -176.5q0 -122 56 -195.5t169 -73.5zM1350 1182l62 380h195l-114 -380h-143z" />
    <glyph glyph-name="Dcroat" unicode="&#x110;" horiz-adv-x="1516" 
d="M638 0h-404l33 198h355q171 0 294.5 64.5t199.5 187.5t104 297q29 175 -4.5 296.5t-130.5 185t-260 63.5h-384l33 198h370q220 0 367.5 -89.5t209.5 -256t23 -398.5q-39 -234 -143 -400.5t-270.5 -256t-392.5 -89.5zM593 1490l-247 -1490h-227l247 1490h227zM40 659
l29 172h784l-28 -172h-785z" />
    <glyph glyph-name="dcroat" unicode="&#x111;" horiz-adv-x="1247" 
d="M473 -22q-180 0 -286.5 118.5t-106.5 325.5q0 129 37.5 253.5t109.5 225t175 160t235 59.5q99 0 159.5 -32.5t93.5 -78.5t49 -87h10l93 568h219l-247 -1490h-213l29 171h-14q-30 -45 -75 -89.5t-111 -74t-157 -29.5zM526 164q93 0 163.5 45.5t118.5 120t72.5 164
t24.5 177.5q0 122 -57 192.5t-170 70.5q-92 0 -162.5 -44.5t-118 -118t-72 -162t-24.5 -176.5q0 -122 56 -195.5t169 -73.5zM686 1218l25 154h673l-26 -154h-672z" />
    <glyph glyph-name="Emacron" unicode="&#x112;" horiz-adv-x="1231" 
d="M67 0l247 1490h952l-33 -195h-725l-73 -444h673l-32 -194h-674l-76 -462h730l-32 -195h-957zM1137 1867l-27 -158h-562l27 158h562z" />
    <glyph glyph-name="emacron" unicode="&#x113;" horiz-adv-x="1169" 
d="M530 -24q-140 0 -241 53t-155 155t-53 248q1 145 47.5 271t130.5 221t195.5 149t242.5 54q112 0 196.5 -37.5t132 -107t47.5 -166.5q0 -98 -53 -164.5t-160.5 -106.5t-271 -57.5t-384.5 -17.5l27 153q186 0 308 9.5t192.5 31.5t100 59t29.5 91q0 61 -50 96.5t-136 35.5
q-106 0 -179.5 -50t-118 -129.5t-65 -168.5t-20.5 -169q-1 -75 22.5 -137.5t79 -99t150.5 -36.5q103 0 180 44t114 119l202 -34q-59 -141 -194.5 -225t-315.5 -84zM1043 1481l-27 -158h-562l27 158h562z" />
    <glyph glyph-name="Ebreve" unicode="&#x114;" horiz-adv-x="1231" 
d="M67 0l247 1490h952l-33 -195h-725l-73 -444h673l-32 -194h-674l-76 -462h730l-32 -195h-957zM817 1640q-86 0 -149 39t-92.5 105t-16.5 147h146q-11 -67 27.5 -109.5t108.5 -42.5q47 0 86.5 19.5t66.5 54t34 78.5h146q-13 -81 -65 -147.5t-128.5 -105t-163.5 -38.5z" />
    <glyph glyph-name="ebreve" unicode="&#x115;" horiz-adv-x="1169" 
d="M530 -24q-140 0 -241 53t-155 155t-53 248q1 145 47.5 271t130.5 221t195.5 149t242.5 54q112 0 196.5 -37.5t132 -107t47.5 -166.5q0 -98 -53 -164.5t-160.5 -106.5t-271 -57.5t-384.5 -17.5l27 153q186 0 308 9.5t192.5 31.5t100 59t29.5 91q0 61 -50 96.5t-136 35.5
q-106 0 -179.5 -50t-118 -129.5t-65 -168.5t-20.5 -169q-1 -75 22.5 -137.5t79 -99t150.5 -36.5q103 0 180 44t114 119l202 -34q-59 -141 -194.5 -225t-315.5 -84zM723 1254q-86 0 -149 39t-92.5 105t-16.5 147h146q-11 -67 27.5 -109.5t108.5 -42.5q47 0 86.5 19.5t66.5 54
t34 78.5h146q-13 -81 -65 -147.5t-128.5 -105t-163.5 -38.5z" />
    <glyph glyph-name="Edotaccent" unicode="&#x116;" horiz-adv-x="1231" 
d="M67 0l247 1490h952l-33 -195h-725l-73 -444h673l-32 -194h-674l-76 -462h730l-32 -195h-957zM821 1663q-57 0 -90.5 38.5t-24.5 92.5q9 55 55.5 92.5t103.5 37.5t90.5 -37.5t24.5 -92.5q-8 -54 -55 -92.5t-104 -38.5z" />
    <glyph glyph-name="edotaccent" unicode="&#x117;" horiz-adv-x="1169" 
d="M530 -24q-140 0 -241 53t-155 155t-53 248q1 145 47.5 271t130.5 221t195.5 149t242.5 54q112 0 196.5 -37.5t132 -107t47.5 -166.5q0 -98 -53 -164.5t-160.5 -106.5t-271 -57.5t-384.5 -17.5l27 153q186 0 308 9.5t192.5 31.5t100 59t29.5 91q0 61 -50 96.5t-136 35.5
q-106 0 -179.5 -50t-118 -129.5t-65 -168.5t-20.5 -169q-1 -75 22.5 -137.5t79 -99t150.5 -36.5q103 0 180 44t114 119l202 -34q-59 -141 -194.5 -225t-315.5 -84zM727 1277q-57 0 -90.5 38.5t-24.5 92.5q9 55 55.5 92.5t103.5 37.5t90.5 -37.5t24.5 -92.5q-8 -54 -55 -92.5
t-104 -38.5z" />
    <glyph glyph-name="Eogonek" unicode="&#x118;" horiz-adv-x="1231" 
d="M67 0l247 1490h952l-33 -195h-725l-73 -444h673l-32 -194h-674l-76 -462h730l-32 -195h-957zM823 -431q-103 0 -163 51.5t-44 147.5q12 72 66.5 137t146.5 120l195 -25q-84 -51 -135 -95.5t-59 -98.5q-6 -36 11 -55.5t57 -19.5q23 0 45 6t40 15l24 -144
q-34 -14 -81.5 -26.5t-102.5 -12.5z" />
    <glyph glyph-name="eogonek" unicode="&#x119;" horiz-adv-x="1169" 
d="M530 -24q-140 0 -241 53t-155 155t-53 248q1 145 47.5 271t130.5 221t195.5 149t242.5 54q112 0 196.5 -37.5t132 -107t47.5 -166.5q0 -98 -53 -164.5t-160.5 -106.5t-271 -57.5t-384.5 -17.5l27 153q186 0 308 9.5t192.5 31.5t100 59t29.5 91q0 61 -50 96.5t-136 35.5
q-106 0 -179.5 -50t-118 -129.5t-65 -168.5t-20.5 -169q-1 -75 22.5 -137.5t79 -99t150.5 -36.5q103 0 180 44t114 119l202 -34q-59 -141 -194.5 -225t-315.5 -84zM718 -431q-106 0 -166 51t-44 147q12 73 61.5 139t120.5 139l350 240q-36 -85 -87.5 -152.5t-102.5 -123
t-87 -105.5t-42 -98q-4 -35 11.5 -55t60.5 -20q24 0 46 6.5t39 14.5l24 -144q-34 -14 -81.5 -26.5t-102.5 -12.5z" />
    <glyph glyph-name="Ecaron" unicode="&#x11a;" horiz-adv-x="1231" 
d="M67 0l247 1490h952l-33 -195h-725l-73 -444h673l-32 -194h-674l-76 -462h730l-32 -195h-957zM724 1933l114 -173l170 173h203l-1 -7l-297 -278h-190l-202 278l1 7h202z" />
    <glyph glyph-name="ecaron" unicode="&#x11b;" horiz-adv-x="1169" 
d="M530 -24q-140 0 -241 53t-155 155t-53 248q1 145 47.5 271t130.5 221t195.5 149t242.5 54q112 0 196.5 -37.5t132 -107t47.5 -166.5q0 -98 -53 -164.5t-160.5 -106.5t-271 -57.5t-384.5 -17.5l27 153q186 0 308 9.5t192.5 31.5t100 59t29.5 91q0 61 -50 96.5t-136 35.5
q-106 0 -179.5 -50t-118 -129.5t-65 -168.5t-20.5 -169q-1 -75 22.5 -137.5t79 -99t150.5 -36.5q103 0 180 44t114 119l202 -34q-59 -141 -194.5 -225t-315.5 -84zM630 1547l114 -173l170 173h203l-1 -7l-297 -278h-190l-202 278l1 7h202z" />
    <glyph glyph-name="Gcircumflex" unicode="&#x11c;" horiz-adv-x="1524" 
d="M704 -21q-178 0 -308 73.5t-200.5 209t-70.5 321.5q0 178 56 344.5t161 298t252.5 208.5t330.5 77q121 0 222.5 -36t175.5 -101.5t114.5 -156.5t39.5 -202h-232q-8 66 -32.5 119.5t-66 91.5t-99 58t-129.5 20q-133 0 -238.5 -61.5t-179 -164.5t-112.5 -230t-39 -258
q0 -195 99.5 -299.5t265.5 -104.5q123 0 225 50.5t170 142.5t88 213l57 -16h-426l31 187h588l-29 -178q-24 -139 -87.5 -250.5t-158.5 -191t-214.5 -122t-253.5 -42.5zM813 1648h-202l1 7l295 278h190l204 -278l-1 -7h-203l-113 174z" />
    <glyph glyph-name="gcircumflex" unicode="&#x11d;" horiz-adv-x="1249" 
d="M456 -440q-134 0 -226 36t-145 96.5t-67 134.5l194 58q12 -35 38.5 -69t76.5 -57t132 -23q133 0 225.5 66.5t114.5 194.5l33 198l-16 -3q-30 -42 -74.5 -84t-108.5 -70t-156 -28q-117 0 -206.5 50t-139 145t-49.5 230q0 127 38 248.5t110 220t175 157.5t233 59
q74 0 126 -19t87 -49.5t56.5 -65t33.5 -64.5l15 3l29 179h214l-186 -1121q-25 -149 -104.5 -242.5t-197 -137t-255.5 -43.5zM531 193q94 0 164.5 42t117.5 112.5t70 155.5t23 171q0 120 -57 190t-170 70q-90 0 -160.5 -43t-119 -114t-73 -157.5t-24.5 -173.5
q0 -118 58 -185.5t171 -67.5zM578 1262h-202l1 7l295 278h190l204 -278l-1 -7h-203l-113 174z" />
    <glyph glyph-name="Gbreve" unicode="&#x11e;" horiz-adv-x="1524" 
d="M704 -21q-178 0 -308 73.5t-200.5 209t-70.5 321.5q0 178 56 344.5t161 298t252.5 208.5t330.5 77q121 0 222.5 -36t175.5 -101.5t114.5 -156.5t39.5 -202h-232q-8 66 -32.5 119.5t-66 91.5t-99 58t-129.5 20q-133 0 -238.5 -61.5t-179 -164.5t-112.5 -230t-39 -258
q0 -195 99.5 -299.5t265.5 -104.5q123 0 225 50.5t170 142.5t88 213l57 -16h-426l31 187h588l-29 -178q-24 -139 -87.5 -250.5t-158.5 -191t-214.5 -122t-253.5 -42.5zM953 1640q-86 0 -149 39t-92.5 105t-16.5 147h146q-11 -67 27.5 -109.5t108.5 -42.5q47 0 86.5 19.5
t66.5 54t34 78.5h146q-13 -81 -65 -147.5t-128.5 -105t-163.5 -38.5z" />
    <glyph glyph-name="gbreve" unicode="&#x11f;" horiz-adv-x="1249" 
d="M456 -440q-134 0 -226 36t-145 96.5t-67 134.5l194 58q12 -35 38.5 -69t76.5 -57t132 -23q133 0 225.5 66.5t114.5 194.5l33 198l-16 -3q-30 -42 -74.5 -84t-108.5 -70t-156 -28q-117 0 -206.5 50t-139 145t-49.5 230q0 127 38 248.5t110 220t175 157.5t233 59
q74 0 126 -19t87 -49.5t56.5 -65t33.5 -64.5l15 3l29 179h214l-186 -1121q-25 -149 -104.5 -242.5t-197 -137t-255.5 -43.5zM531 193q94 0 164.5 42t117.5 112.5t70 155.5t23 171q0 120 -57 190t-170 70q-90 0 -160.5 -43t-119 -114t-73 -157.5t-24.5 -173.5
q0 -118 58 -185.5t171 -67.5zM718 1254q-86 0 -149 39t-92.5 105t-16.5 147h146q-11 -67 27.5 -109.5t108.5 -42.5q47 0 86.5 19.5t66.5 54t34 78.5h146q-13 -81 -65 -147.5t-128.5 -105t-163.5 -38.5z" />
    <glyph glyph-name="Gdotaccent" unicode="&#x120;" horiz-adv-x="1524" 
d="M704 -21q-178 0 -308 73.5t-200.5 209t-70.5 321.5q0 178 56 344.5t161 298t252.5 208.5t330.5 77q121 0 222.5 -36t175.5 -101.5t114.5 -156.5t39.5 -202h-232q-8 66 -32.5 119.5t-66 91.5t-99 58t-129.5 20q-133 0 -238.5 -61.5t-179 -164.5t-112.5 -230t-39 -258
q0 -195 99.5 -299.5t265.5 -104.5q123 0 225 50.5t170 142.5t88 213l57 -16h-426l31 187h588l-29 -178q-24 -139 -87.5 -250.5t-158.5 -191t-214.5 -122t-253.5 -42.5zM958 1663q-57 0 -90.5 38.5t-24.5 92.5q9 55 55.5 92.5t103.5 37.5t90.5 -37.5t24.5 -92.5
q-8 -54 -55 -92.5t-104 -38.5z" />
    <glyph glyph-name="gdotaccent" unicode="&#x121;" horiz-adv-x="1249" 
d="M456 -440q-134 0 -226 36t-145 96.5t-67 134.5l194 58q12 -35 38.5 -69t76.5 -57t132 -23q133 0 225.5 66.5t114.5 194.5l33 198l-16 -3q-30 -42 -74.5 -84t-108.5 -70t-156 -28q-117 0 -206.5 50t-139 145t-49.5 230q0 127 38 248.5t110 220t175 157.5t233 59
q74 0 126 -19t87 -49.5t56.5 -65t33.5 -64.5l15 3l29 179h214l-186 -1121q-25 -149 -104.5 -242.5t-197 -137t-255.5 -43.5zM531 193q94 0 164.5 42t117.5 112.5t70 155.5t23 171q0 120 -57 190t-170 70q-90 0 -160.5 -43t-119 -114t-73 -157.5t-24.5 -173.5
q0 -118 58 -185.5t171 -67.5zM723 1277q-57 0 -90.5 38.5t-24.5 92.5q9 55 55.5 92.5t103.5 37.5t90.5 -37.5t24.5 -92.5q-8 -54 -55 -92.5t-104 -38.5z" />
    <glyph glyph-name="uni0122" unicode="&#x122;" horiz-adv-x="1524" 
d="M704 -21q-178 0 -308 73.5t-200.5 209t-70.5 321.5q0 178 56 344.5t161 298t252.5 208.5t330.5 77q121 0 222.5 -36t175.5 -101.5t114.5 -156.5t39.5 -202h-232q-8 66 -32.5 119.5t-66 91.5t-99 58t-129.5 20q-133 0 -238.5 -61.5t-179 -164.5t-112.5 -230t-39 -258
q0 -195 99.5 -299.5t265.5 -104.5q123 0 225 50.5t170 142.5t88 213l57 -16h-426l31 187h588l-29 -178q-24 -139 -87.5 -250.5t-158.5 -191t-214.5 -122t-253.5 -42.5zM407 -488l146 370h215l-198 -370h-163z" />
    <glyph glyph-name="uni0123" unicode="&#x123;" horiz-adv-x="1249" 
d="M456 -440q-134 0 -226 36t-145 96.5t-67 134.5l194 58q12 -35 38.5 -69t76.5 -57t132 -23q133 0 225.5 66.5t114.5 194.5l33 198l-16 -3q-30 -42 -74.5 -84t-108.5 -70t-156 -28q-117 0 -206.5 50t-139 145t-49.5 230q0 127 38 248.5t110 220t175 157.5t233 59
q74 0 126 -19t87 -49.5t56.5 -65t33.5 -64.5l15 3l29 179h214l-186 -1121q-25 -149 -104.5 -242.5t-197 -137t-255.5 -43.5zM531 193q94 0 164.5 42t117.5 112.5t70 155.5t23 171q0 120 -57 190t-170 70q-90 0 -160.5 -43t-119 -114t-73 -157.5t-24.5 -173.5
q0 -118 58 -185.5t171 -67.5zM626 1223l22 132q11 70 41 128t68.5 103t75.5 74l112 -73q-45 -57 -78 -113.5t-45 -128.5l-21 -122h-175z" />
    <glyph glyph-name="Hcircumflex" unicode="&#x124;" horiz-adv-x="1510" 
d="M67 0l247 1490h227l-105 -630h739l104 630h227l-247 -1490h-227l111 664h-739l-110 -664h-227zM793 1648h-202l1 7l295 278h190l204 -278l-1 -7h-203l-113 174z" />
    <glyph glyph-name="hcircumflex" unicode="&#x125;" horiz-adv-x="1213" 
d="M375 650l-107 -650h-218l247 1490h216l-109 -657h-34q50 100 110.5 163t134 93.5t160.5 30.5q112 0 193 -48t116.5 -141.5t11.5 -231.5l-116 -699h-219l112 672q21 123 -31.5 190t-161.5 67q-73 0 -137 -32t-108 -93.5t-60 -153.5zM288 1648h-202l1 7l295 278h190
l204 -278l-1 -7h-203l-113 174z" />
    <glyph glyph-name="Hbar" unicode="&#x126;" horiz-adv-x="1594" 
d="M1618 1193l-25 -160h-1429l24 160h1430zM111 0l247 1490h228l-105 -630h738l105 630h227l-247 -1490h-227l110 664h-739l-109 -664h-228z" />
    <glyph glyph-name="hbar" unicode="&#x127;" horiz-adv-x="1213" 
d="M375 650l-107 -650h-218l247 1490h216l-109 -657h-34q50 100 110.5 163t134 93.5t160.5 30.5q112 0 193 -48t116.5 -141.5t11.5 -231.5l-116 -699h-219l112 672q21 123 -31.5 190t-161.5 67q-73 0 -137 -32t-108 -93.5t-60 -153.5zM106 1218l25 154h673l-26 -154h-672z
" />
    <glyph glyph-name="Itilde" unicode="&#x128;" horiz-adv-x="544" 
d="M541 1490l-247 -1490h-227l247 1490h227zM592 1676q-40 0 -74 13.5t-62 31.5t-52 31t-44 13q-29 0 -47 -26t-25 -58h-138q20 103 75.5 164.5t138.5 61.5q42 0 74.5 -14t58.5 -32t50 -31.5t49 -13.5q28 0 45 21t28 65h136q-21 -106 -78 -166t-135 -60z" />
    <glyph glyph-name="itilde" unicode="&#x129;" horiz-adv-x="502" 
d="M51 0l182 1104h218l-182 -1104h-218zM508 1290q-40 0 -74 13.5t-62 31.5t-52 31t-44 13q-29 0 -47 -26t-25 -58h-138q20 103 75.5 164.5t138.5 61.5q42 0 74.5 -14t58.5 -32t50 -31.5t49 -13.5q28 0 45 21t28 65h136q-21 -106 -78 -166t-135 -60z" />
    <glyph glyph-name="Imacron" unicode="&#x12a;" horiz-adv-x="544" 
d="M541 1490l-247 -1490h-227l247 1490h227zM772 1867l-27 -158h-562l27 158h562z" />
    <glyph glyph-name="imacron" unicode="&#x12b;" horiz-adv-x="502" 
d="M51 0l182 1104h218l-182 -1104h-218zM687 1481l-27 -158h-562l27 158h562z" />
    <glyph glyph-name="Ibreve" unicode="&#x12c;" horiz-adv-x="544" 
d="M541 1490l-247 -1490h-227l247 1490h227zM451 1640q-86 0 -149 39t-92.5 105t-16.5 147h146q-11 -67 27.5 -109.5t108.5 -42.5q47 0 86.5 19.5t66.5 54t34 78.5h146q-13 -81 -65 -147.5t-128.5 -105t-163.5 -38.5z" />
    <glyph glyph-name="ibreve" unicode="&#x12d;" horiz-adv-x="502" 
d="M51 0l182 1104h218l-182 -1104h-218zM367 1254q-86 0 -149 39t-92.5 105t-16.5 147h146q-11 -67 27.5 -109.5t108.5 -42.5q47 0 86.5 19.5t66.5 54t34 78.5h146q-13 -81 -65 -147.5t-128.5 -105t-163.5 -38.5z" />
    <glyph glyph-name="Iogonek" unicode="&#x12e;" horiz-adv-x="544" 
d="M541 1490l-247 -1490h-227l247 1490h227zM93 -431q-103 0 -163 51.5t-44 147.5q12 72 66.5 137t146.5 120l195 -25q-84 -51 -135 -95.5t-59 -98.5q-6 -36 11 -55.5t57 -19.5q23 0 45 6t40 15l24 -144q-34 -14 -81.5 -26.5t-102.5 -12.5z" />
    <glyph glyph-name="iogonek" unicode="&#x12f;" horiz-adv-x="502" 
d="M51 0l182 1104h218l-182 -1104h-218zM68 -431q-103 0 -163 51.5t-44 147.5q12 72 66.5 137t146.5 120l195 -25q-84 -51 -135 -95.5t-59 -98.5q-6 -36 11 -55.5t57 -19.5q23 0 45 6t40 15l24 -144q-34 -14 -81.5 -26.5t-102.5 -12.5zM371 1277q-57 0 -90.5 38.5
t-24.5 92.5q9 55 55.5 92.5t103.5 37.5t90.5 -37.5t24.5 -92.5q-8 -54 -55 -92.5t-104 -38.5z" />
    <glyph glyph-name="Idotaccent" unicode="&#x130;" horiz-adv-x="544" 
d="M541 1490l-247 -1490h-227l247 1490h227zM456 1663q-57 0 -90.5 38.5t-24.5 92.5q9 55 55.5 92.5t103.5 37.5t90.5 -37.5t24.5 -92.5q-8 -54 -55 -92.5t-104 -38.5z" />
    <glyph glyph-name="dotlessi" unicode="&#x131;" horiz-adv-x="502" 
d="M51 0l182 1104h218l-182 -1104h-218z" />
    <glyph glyph-name="IJ" unicode="&#x132;" horiz-adv-x="1708" 
d="M541 1490l-247 -1490h-227l247 1490h227zM1007 -20q-184 0 -295 93t-111 265q0 16 1.5 34.5t6.5 52.5t14 91h226q-9 -53 -13.5 -82t-5.5 -43t-1 -24q0 -95 52.5 -144.5t145.5 -49.5q105 0 181 65.5t97 193.5l176 1058h226l-176 -1057q-35 -217 -175 -335t-349 -118z" />
    <glyph glyph-name="ij" unicode="&#x133;" horiz-adv-x="1003" 
d="M51 0l182 1104h218l-182 -1104h-218zM371 1277q-57 0 -90.5 38.5t-24.5 92.5q9 55 55.5 92.5t103.5 37.5t90.5 -37.5t24.5 -92.5q-8 -54 -55 -92.5t-104 -38.5zM734 1104h219l-197 -1189q-17 -107 -69 -181.5t-135.5 -113t-195.5 -38.5h-54l30 187h41q74 0 114 38.5
t52 115.5zM872 1277q-57 0 -90.5 38.5t-24.5 92.5q9 55 55.5 92.5t103.5 37.5t90.5 -37.5t24.5 -92.5q-8 -54 -55 -92.5t-104 -38.5z" />
    <glyph glyph-name="Jcircumflex" unicode="&#x134;" horiz-adv-x="1164" 
d="M463 -20q-184 0 -295 93t-111 265q0 16 1.5 34.5t6.5 52.5t14 91h226q-9 -53 -13.5 -82t-5.5 -43t-1 -24q0 -95 52.5 -144.5t145.5 -49.5q105 0 181 65.5t97 193.5l176 1058h226l-176 -1057q-35 -217 -175 -335t-349 -118zM933 1648h-202l1 7l295 278h190l204 -278l-1 -7
h-203l-113 174z" />
    <glyph glyph-name="jcircumflex" unicode="&#x135;" horiz-adv-x="501" 
d="M232 1104h219l-197 -1189q-17 -107 -69 -181.5t-135.5 -113t-195.5 -38.5h-54l30 187h41q74 0 114 38.5t52 115.5zM226 1262h-202l1 7l295 278h190l204 -278l-1 -7h-203l-113 174z" />
    <glyph glyph-name="uni0136" unicode="&#x136;" horiz-adv-x="1392" 
d="M293 394l29 241q62 71 122 135t122.5 127t131.5 129l497 464h299l-749 -697l-15 3zM67 0l247 1490h229l-79 -477l-60 -340l-15 -111l-93 -562h-229zM1002 0l-387 731l153 174l485 -905h-251zM341 -488l146 370h215l-198 -370h-163z" />
    <glyph glyph-name="uni0137" unicode="&#x137;" horiz-adv-x="1129" 
d="M313 372l44 265h33l520 467h264l-594 -534h-36zM50 0l247 1490h218l-247 -1490h-218zM752 0l-311 522l177 153l403 -675h-269zM218 -488l146 370h215l-198 -370h-163z" />
    <glyph glyph-name="kgreenlandic" unicode="&#x138;" horiz-adv-x="1102" 
d="M451 1104l-182 -1104h-218l182 1104h218zM1178 1104l-636 -645h-267l29 183h170l440 462h264zM720 0l-297 466l162 147l403 -613h-268z" />
    <glyph glyph-name="Lacute" unicode="&#x139;" horiz-adv-x="1148" 
d="M67 0l247 1490h227l-215 -1294h681l-32 -196h-908zM358 1653l190 284h226l-248 -284h-168z" />
    <glyph glyph-name="lacute" unicode="&#x13a;" horiz-adv-x="501" 
d="M515 1490l-247 -1490h-218l247 1490h218zM337 1653l190 284h226l-248 -284h-168z" />
    <glyph glyph-name="uni013B" unicode="&#x13b;" horiz-adv-x="1148" 
d="M67 0l247 1490h227l-215 -1294h681l-32 -196h-908zM245 -488l146 370h215l-198 -370h-163z" />
    <glyph glyph-name="uni013C" unicode="&#x13c;" horiz-adv-x="501" 
d="M515 1490l-247 -1490h-218l247 1490h218zM-114 -488l146 370h215l-198 -370h-163z" />
    <glyph glyph-name="Lcaron" unicode="&#x13d;" horiz-adv-x="1148" 
d="M67 0l247 1490h227l-215 -1294h681l-32 -196h-908zM735 1182l62 380h195l-114 -380h-143z" />
    <glyph glyph-name="lcaron" unicode="&#x13e;" horiz-adv-x="655" 
d="M515 1490l-247 -1490h-218l247 1490h218zM604 1182l62 380h195l-114 -380h-143z" />
    <glyph glyph-name="Ldot" unicode="&#x13f;" horiz-adv-x="1149" 
d="M68 0l247 1490h227l-215 -1294h681l-32 -196h-908zM753 725q-57 0 -90.5 38.5t-24.5 92.5q9 55 55.5 92.5t103.5 37.5t90.5 -37.5t24.5 -92.5q-8 -54 -55 -92.5t-104 -38.5z" />
    <glyph glyph-name="ldot" unicode="&#x140;" horiz-adv-x="783" 
d="M515 1490l-247 -1490h-218l247 1490h218zM649 599q-64 0 -103 47t-29 113q10 57 55 94t100 37q66 0 104 -46.5t28 -110.5q-8 -56 -53 -95t-102 -39z" />
    <glyph glyph-name="Lslash" unicode="&#x141;" horiz-adv-x="1148" 
d="M67 0l247 1490h227l-215 -1294h681l-32 -196h-908zM100 470l35 212l851 449l-35 -212z" />
    <glyph glyph-name="lslash" unicode="&#x142;" horiz-adv-x="501" 
d="M515 1490l-247 -1490h-218l247 1490h218zM-11 617l30 183l593 313l-30 -183z" />
    <glyph glyph-name="Nacute" unicode="&#x143;" horiz-adv-x="1530" 
d="M67 0l247 1490h253l416 -890q17 -37 41.5 -95.5t51.5 -133.5t52 -161l-25 -11q6 79 15.5 160.5t19.5 153.5t18 120l142 857h229l-247 -1490h-253l-374 796q-25 56 -52.5 120.5t-61 151.5t-80.5 208l31 10q-14 -117 -25.5 -211.5t-20.5 -164.5t-16 -113l-132 -797h-229z
M852 1653l190 284h226l-248 -284h-168z" />
    <glyph glyph-name="nacute" unicode="&#x144;" horiz-adv-x="1213" 
d="M375 643l-107 -643h-218l183 1104h209l-42 -271l-30 7q72 146 173 213t229 67q116 0 196.5 -49.5t115 -145t11.5 -234.5l-115 -691h-218l113 679q21 123 -29.5 186.5t-155.5 63.5q-76 0 -142.5 -33.5t-112 -97.5t-60.5 -155zM629 1267l190 284h226l-248 -284h-168z" />
    <glyph glyph-name="uni0145" unicode="&#x145;" horiz-adv-x="1530" 
d="M67 0l247 1490h253l416 -890q17 -37 41.5 -95.5t51.5 -133.5t52 -161l-25 -11q6 79 15.5 160.5t19.5 153.5t18 120l142 857h229l-247 -1490h-253l-374 796q-25 56 -52.5 120.5t-61 151.5t-80.5 208l31 10q-14 -117 -25.5 -211.5t-20.5 -164.5t-16 -113l-132 -797h-229z
M402 -488l146 370h215l-198 -370h-163z" />
    <glyph glyph-name="uni0146" unicode="&#x146;" horiz-adv-x="1213" 
d="M375 643l-107 -643h-218l183 1104h209l-42 -271l-30 7q72 146 173 213t229 67q116 0 196.5 -49.5t115 -145t11.5 -234.5l-115 -691h-218l113 679q21 123 -29.5 186.5t-155.5 63.5q-76 0 -142.5 -33.5t-112 -97.5t-60.5 -155zM242 -488l146 370h215l-198 -370h-163z" />
    <glyph glyph-name="Ncaron" unicode="&#x147;" horiz-adv-x="1530" 
d="M67 0l247 1490h253l416 -890q17 -37 41.5 -95.5t51.5 -133.5t52 -161l-25 -11q6 79 15.5 160.5t19.5 153.5t18 120l142 857h229l-247 -1490h-253l-374 796q-25 56 -52.5 120.5t-61 151.5t-80.5 208l31 10q-14 -117 -25.5 -211.5t-20.5 -164.5t-16 -113l-132 -797h-229z
M852 1933l114 -173l170 173h203l-1 -7l-297 -278h-190l-202 278l1 7h202z" />
    <glyph glyph-name="ncaron" unicode="&#x148;" horiz-adv-x="1213" 
d="M375 643l-107 -643h-218l183 1104h209l-42 -271l-30 7q72 146 173 213t229 67q116 0 196.5 -49.5t115 -145t11.5 -234.5l-115 -691h-218l113 679q21 123 -29.5 186.5t-155.5 63.5q-76 0 -142.5 -33.5t-112 -97.5t-60.5 -155zM629 1547l114 -173l170 173h203l-1 -7
l-297 -278h-190l-202 278l1 7h202z" />
    <glyph glyph-name="Eng" unicode="&#x14a;" horiz-adv-x="1530" 
d="M782 -418l30 184q18 -2 39.5 -3t37.5 -1q76 0 108 24t40 73l44 268h227l-46 -279q-23 -135 -114.5 -205t-244.5 -70q-38 0 -69.5 2.5t-51.5 6.5zM67 0l247 1490h253l416 -890q17 -37 41.5 -95.5t51.5 -133.5t52 -161l-25 -11q6 79 15.5 160.5t19.5 153.5t18 120l142 857
h229l-247 -1490h-253l-374 796q-25 56 -52.5 120.5t-61 151.5t-80.5 208l31 10q-14 -117 -25.5 -211.5t-20.5 -164.5t-16 -113l-132 -797h-229z" />
    <glyph glyph-name="eng" unicode="&#x14b;" horiz-adv-x="1213" 
d="M477 -418l30 184q19 -2 43.5 -3t39.5 -1q73 0 106 22.5t42 74.5l23 141h219l-25 -152q-24 -137 -116 -206t-243 -69q-37 0 -68 2.5t-51 6.5zM375 643l-107 -643h-218l183 1104h209l-42 -271l-30 7q72 146 173 213t229 67q116 0 196.5 -49.5t115 -145t11.5 -234.5
l-115 -691h-218l113 679q21 123 -29.5 186.5t-155.5 63.5q-76 0 -142.5 -33.5t-112 -97.5t-60.5 -155z" />
    <glyph glyph-name="Omacron" unicode="&#x14c;" horiz-adv-x="1562" 
d="M699 -21q-172 0 -301.5 73t-201 209t-71.5 324q0 179 56.5 345t162 296.5t253.5 207.5t331 77q172 0 300.5 -73t200.5 -208.5t72 -324.5q0 -179 -56.5 -345t-162.5 -297t-253.5 -207.5t-329.5 -76.5zM708 186q135 0 240.5 61.5t179 165t111.5 231t38 258.5
q0 132 -45.5 221.5t-126 135t-186.5 45.5q-135 0 -240.5 -61.5t-179 -165.5t-112 -231t-38.5 -258t45.5 -220.5t126.5 -135.5t187 -46zM1281 1867l-27 -158h-562l27 158h562z" />
    <glyph glyph-name="omacron" unicode="&#x14d;" horiz-adv-x="1217" 
d="M526 -23q-139 0 -238.5 56.5t-153 159.5t-53.5 240q0 133 42 256t121 220.5t192 154t254 56.5q139 0 239 -56t153 -159.5t53 -242.5q0 -133 -42 -256t-122 -220t-192.5 -153t-252.5 -56zM532 162q96 0 168 45.5t120 120t72 163t24 172.5q0 80 -25 141t-77 96t-132 35
q-94 0 -165.5 -45.5t-120 -120t-73 -163t-24.5 -174.5q0 -118 57 -194t176 -76zM1044 1481l-27 -158h-562l27 158h562z" />
    <glyph glyph-name="Obreve" unicode="&#x14e;" horiz-adv-x="1562" 
d="M699 -21q-172 0 -301.5 73t-201 209t-71.5 324q0 179 56.5 345t162 296.5t253.5 207.5t331 77q172 0 300.5 -73t200.5 -208.5t72 -324.5q0 -179 -56.5 -345t-162.5 -297t-253.5 -207.5t-329.5 -76.5zM708 186q135 0 240.5 61.5t179 165t111.5 231t38 258.5
q0 132 -45.5 221.5t-126 135t-186.5 45.5q-135 0 -240.5 -61.5t-179 -165.5t-112 -231t-38.5 -258t45.5 -220.5t126.5 -135.5t187 -46zM960 1640q-86 0 -149 39t-92.5 105t-16.5 147h146q-11 -67 27.5 -109.5t108.5 -42.5q47 0 86.5 19.5t66.5 54t34 78.5h146
q-13 -81 -65 -147.5t-128.5 -105t-163.5 -38.5z" />
    <glyph glyph-name="obreve" unicode="&#x14f;" horiz-adv-x="1217" 
d="M526 -23q-139 0 -238.5 56.5t-153 159.5t-53.5 240q0 133 42 256t121 220.5t192 154t254 56.5q139 0 239 -56t153 -159.5t53 -242.5q0 -133 -42 -256t-122 -220t-192.5 -153t-252.5 -56zM532 162q96 0 168 45.5t120 120t72 163t24 172.5q0 80 -25 141t-77 96t-132 35
q-94 0 -165.5 -45.5t-120 -120t-73 -163t-24.5 -174.5q0 -118 57 -194t176 -76zM723 1254q-86 0 -149 39t-92.5 105t-16.5 147h146q-11 -67 27.5 -109.5t108.5 -42.5q47 0 86.5 19.5t66.5 54t34 78.5h146q-13 -81 -65 -147.5t-128.5 -105t-163.5 -38.5z" />
    <glyph glyph-name="Ohungarumlaut" unicode="&#x150;" horiz-adv-x="1562" 
d="M699 -21q-172 0 -301.5 73t-201 209t-71.5 324q0 179 56.5 345t162 296.5t253.5 207.5t331 77q172 0 300.5 -73t200.5 -208.5t72 -324.5q0 -179 -56.5 -345t-162.5 -297t-253.5 -207.5t-329.5 -76.5zM708 186q135 0 240.5 61.5t179 165t111.5 231t38 258.5
q0 132 -45.5 221.5t-126 135t-186.5 45.5q-135 0 -240.5 -61.5t-179 -165.5t-112 -231t-38.5 -258t45.5 -220.5t126.5 -135.5t187 -46zM804 1632h-167l166 301h222zM1134 1632h-170l220 301h229z" />
    <glyph glyph-name="ohungarumlaut" unicode="&#x151;" horiz-adv-x="1217" 
d="M526 -23q-139 0 -238.5 56.5t-153 159.5t-53.5 240q0 133 42 256t121 220.5t192 154t254 56.5q139 0 239 -56t153 -159.5t53 -242.5q0 -133 -42 -256t-122 -220t-192.5 -153t-252.5 -56zM532 162q96 0 168 45.5t120 120t72 163t24 172.5q0 80 -25 141t-77 96t-132 35
q-94 0 -165.5 -45.5t-120 -120t-73 -163t-24.5 -174.5q0 -118 57 -194t176 -76zM567 1246h-167l166 301h222zM897 1246h-170l220 301h229z" />
    <glyph glyph-name="OE" unicode="&#x152;" horiz-adv-x="2004" 
d="M688 0q-203 0 -340 91t-193 258t-18 395q38 231 149.5 398t278 257.5t366.5 90.5h249l-31 -191h-246q-140 0 -253.5 -66t-190 -190.5t-105.5 -298.5q-29 -172 6.5 -296t128.5 -190.5t234 -66.5h242l-34 -191h-243zM839 0l247 1490h952l-32 -195h-725l-73 -444h673
l-33 -194h-673l-77 -462h730l-31 -195h-958z" />
    <glyph glyph-name="oe" unicode="&#x153;" horiz-adv-x="1997" 
d="M526 -23q-139 0 -238.5 56.5t-153 159.5t-53.5 240q0 133 42 256t121 220.5t192 154t254 56.5q139 0 239 -56t153 -159.5t53 -242.5q0 -133 -42 -256t-122 -220t-192.5 -153t-252.5 -56zM532 162q96 0 168 45.5t120 120t72 163t24 172.5q0 80 -25 141t-77 96t-132 35
q-94 0 -165.5 -45.5t-120 -120t-73 -163t-24.5 -174.5q0 -118 57 -194t176 -76zM1357 -24q-140 0 -241 53t-155 155t-53 248q1 145 47.5 271t130.5 221t195.5 149t242.5 54q112 0 196.5 -37.5t132 -107t47.5 -166.5q0 -98 -53 -164.5t-160.5 -106.5t-271 -57.5t-384.5 -17.5
l27 153q186 0 308 9.5t192.5 31.5t100 59t29.5 91q0 61 -50 96.5t-136 35.5q-106 0 -179.5 -50t-118 -129.5t-65 -168.5t-20.5 -169q-1 -75 22.5 -137.5t79 -99t150.5 -36.5q103 0 180 44t114 119l202 -34q-59 -141 -194.5 -225t-315.5 -84z" />
    <glyph glyph-name="Racute" unicode="&#x154;" horiz-adv-x="1323" 
d="M67 0l247 1490h540q171 0 276.5 -59.5t146 -164.5t18.5 -243q-23 -138 -99.5 -242t-202.5 -161t-296 -57h-407l32 194h390q107 0 181 32t117 92.5t56 142.5q22 130 -43.5 200.5t-222.5 70.5h-292l-214 -1295h-227zM920 0l-247 673h246l255 -673h-254zM739 1653l190 284
h226l-248 -284h-168z" />
    <glyph glyph-name="racute" unicode="&#x155;" horiz-adv-x="771" 
d="M51 0l182 1104h211l-29 -177h10q45 90 127.5 141t181.5 51q21 0 46.5 -1.5t41.5 -3.5l-34 -207q-15 3 -47 7t-66 4q-72 0 -135 -31t-105.5 -87.5t-55.5 -132.5l-110 -667h-218zM448 1267l190 284h226l-248 -284h-168z" />
    <glyph glyph-name="uni0156" unicode="&#x156;" horiz-adv-x="1323" 
d="M67 0l247 1490h540q171 0 276.5 -59.5t146 -164.5t18.5 -243q-23 -138 -99.5 -242t-202.5 -161t-296 -57h-407l32 194h390q107 0 181 32t117 92.5t56 142.5q22 130 -43.5 200.5t-222.5 70.5h-292l-214 -1295h-227zM920 0l-247 673h246l255 -673h-254zM312 -488l146 370
h215l-198 -370h-163z" />
    <glyph glyph-name="uni0157" unicode="&#x157;" horiz-adv-x="771" 
d="M51 0l182 1104h211l-29 -177h10q45 90 127.5 141t181.5 51q21 0 46.5 -1.5t41.5 -3.5l-34 -207q-15 3 -47 7t-66 4q-72 0 -135 -31t-105.5 -87.5t-55.5 -132.5l-110 -667h-218zM-113 -488l146 370h215l-198 -370h-163z" />
    <glyph glyph-name="Rcaron" unicode="&#x158;" horiz-adv-x="1323" 
d="M67 0l247 1490h540q171 0 276.5 -59.5t146 -164.5t18.5 -243q-23 -138 -99.5 -242t-202.5 -161t-296 -57h-407l32 194h390q107 0 181 32t117 92.5t56 142.5q22 130 -43.5 200.5t-222.5 70.5h-292l-214 -1295h-227zM920 0l-247 673h246l255 -673h-254zM738 1933l114 -173
l170 173h203l-1 -7l-297 -278h-190l-202 278l1 7h202z" />
    <glyph glyph-name="rcaron" unicode="&#x159;" horiz-adv-x="771" 
d="M51 0l182 1104h211l-29 -177h10q45 90 127.5 141t181.5 51q21 0 46.5 -1.5t41.5 -3.5l-34 -207q-15 3 -47 7t-66 4q-72 0 -135 -31t-105.5 -87.5t-55.5 -132.5l-110 -667h-218zM448 1547l114 -173l170 173h203l-1 -7l-297 -278h-190l-202 278l1 7h202z" />
    <glyph glyph-name="Sacute" unicode="&#x15a;" horiz-adv-x="1313" 
d="M582 -24q-169 0 -288.5 54.5t-176 156.5t-39.5 242h227q-8 -84 27 -141t104 -86t160 -29q96 0 176 30.5t131.5 84.5t63.5 127q11 63 -17 104t-86 69.5t-141 51.5l-166 45q-176 48 -267.5 143t-65.5 254q21 129 102 225.5t205.5 150t276.5 53.5q154 0 265.5 -54
t166.5 -150t38 -221h-220q7 108 -66 168t-203 60q-91 0 -163 -28.5t-117.5 -79t-56.5 -114.5q-11 -66 21 -109t90 -69t123 -44l142 -38q76 -20 147.5 -52t126 -81t80 -120t9.5 -168q-21 -128 -99.5 -226t-207 -153.5t-302.5 -55.5zM742 1653l190 284h226l-248 -284h-168z
" />
    <glyph glyph-name="sacute" unicode="&#x15b;" horiz-adv-x="1080" 
d="M457 -24q-119 0 -208 34.5t-140.5 100.5t-58.5 160q-1 6 -1 12.5v13.5l209 22q5 -87 56.5 -126.5t147.5 -39.5q71 0 130 21.5t96 59t42 84.5t-26 77.5t-103 47.5l-178 42q-142 33 -208 109t-54 191q11 102 76 177.5t167.5 116.5t224.5 41q172 0 266.5 -71.5t111.5 -188.5
q2 -9 3.5 -19t1.5 -20l-199 -23q-6 65 -49 107.5t-137 42.5q-63 0 -117.5 -21t-89.5 -57.5t-40 -83.5q-7 -49 26 -79t114 -49l173 -40q143 -33 208 -106.5t53 -186.5q-8 -79 -49.5 -143t-109 -110t-154 -71t-184.5 -25zM564 1267l190 284h226l-248 -284h-168z" />
    <glyph glyph-name="Scircumflex" unicode="&#x15c;" horiz-adv-x="1313" 
d="M582 -24q-169 0 -288.5 54.5t-176 156.5t-39.5 242h227q-8 -84 27 -141t104 -86t160 -29q96 0 176 30.5t131.5 84.5t63.5 127q11 63 -17 104t-86 69.5t-141 51.5l-166 45q-176 48 -267.5 143t-65.5 254q21 129 102 225.5t205.5 150t276.5 53.5q154 0 265.5 -54
t166.5 -150t38 -221h-220q7 108 -66 168t-203 60q-91 0 -163 -28.5t-117.5 -79t-56.5 -114.5q-11 -66 21 -109t90 -69t123 -44l142 -38q76 -20 147.5 -52t126 -81t80 -120t9.5 -168q-21 -128 -99.5 -226t-207 -153.5t-302.5 -55.5zM694 1648h-202l1 7l295 278h190l204 -278
l-1 -7h-203l-113 174z" />
    <glyph glyph-name="scircumflex" unicode="&#x15d;" horiz-adv-x="1080" 
d="M457 -24q-119 0 -208 34.5t-140.5 100.5t-58.5 160q-1 6 -1 12.5v13.5l209 22q5 -87 56.5 -126.5t147.5 -39.5q71 0 130 21.5t96 59t42 84.5t-26 77.5t-103 47.5l-178 42q-142 33 -208 109t-54 191q11 102 76 177.5t167.5 116.5t224.5 41q172 0 266.5 -71.5t111.5 -188.5
q2 -9 3.5 -19t1.5 -20l-199 -23q-6 65 -49 107.5t-137 42.5q-63 0 -117.5 -21t-89.5 -57.5t-40 -83.5q-7 -49 26 -79t114 -49l173 -40q143 -33 208 -106.5t53 -186.5q-8 -79 -49.5 -143t-109 -110t-154 -71t-184.5 -25zM516 1262h-202l1 7l295 278h190l204 -278l-1 -7h-203
l-113 174z" />
    <glyph glyph-name="Scedilla" unicode="&#x15e;" horiz-adv-x="1313" 
d="M582 -24q-169 0 -288.5 54.5t-176 156.5t-39.5 242h227q-8 -84 27 -141t104 -86t160 -29q96 0 176 30.5t131.5 84.5t63.5 127q11 63 -17 104t-86 69.5t-141 51.5l-166 45q-176 48 -267.5 143t-65.5 254q21 129 102 225.5t205.5 150t276.5 53.5q154 0 265.5 -54
t166.5 -150t38 -221h-220q7 108 -66 168t-203 60q-91 0 -163 -28.5t-117.5 -79t-56.5 -114.5q-11 -66 21 -109t90 -69t123 -44l142 -38q76 -20 147.5 -52t126 -81t80 -120t9.5 -168q-21 -128 -99.5 -226t-207 -153.5t-302.5 -55.5zM381 -418l18 110h120q51 0 75.5 14.5
t29.5 49.5q6 34 -12.5 49t-71.5 15h-84l70 227h101l-8 -47l-15 -86q93 -2 135 -41.5t29 -117.5q-14 -90 -77.5 -131.5t-184.5 -41.5h-125z" />
    <glyph glyph-name="scedilla" unicode="&#x15f;" horiz-adv-x="1080" 
d="M457 -24q-119 0 -208 34.5t-140.5 100.5t-58.5 160q-1 6 -1 12.5v13.5l209 22q5 -87 56.5 -126.5t147.5 -39.5q71 0 130 21.5t96 59t42 84.5t-26 77.5t-103 47.5l-178 42q-142 33 -208 109t-54 191q11 102 76 177.5t167.5 116.5t224.5 41q172 0 266.5 -71.5t111.5 -188.5
q2 -9 3.5 -19t1.5 -20l-199 -23q-6 65 -49 107.5t-137 42.5q-63 0 -117.5 -21t-89.5 -57.5t-40 -83.5q-7 -49 26 -79t114 -49l173 -40q143 -33 208 -106.5t53 -186.5q-8 -79 -49.5 -143t-109 -110t-154 -71t-184.5 -25zM265 -418l18 110h120q51 0 75.5 14.5t29.5 49.5
q6 34 -12.5 49t-71.5 15h-84l70 227h101l-8 -47l-15 -86q93 -2 135 -41.5t29 -117.5q-14 -90 -77.5 -131.5t-184.5 -41.5h-125z" />
    <glyph glyph-name="Scaron" unicode="&#x160;" horiz-adv-x="1313" 
d="M582 -24q-169 0 -288.5 54.5t-176 156.5t-39.5 242h227q-8 -84 27 -141t104 -86t160 -29q96 0 176 30.5t131.5 84.5t63.5 127q11 63 -17 104t-86 69.5t-141 51.5l-166 45q-176 48 -267.5 143t-65.5 254q21 129 102 225.5t205.5 150t276.5 53.5q154 0 265.5 -54
t166.5 -150t38 -221h-220q7 108 -66 168t-203 60q-91 0 -163 -28.5t-117.5 -79t-56.5 -114.5q-11 -66 21 -109t90 -69t123 -44l142 -38q76 -20 147.5 -52t126 -81t80 -120t9.5 -168q-21 -128 -99.5 -226t-207 -153.5t-302.5 -55.5zM741 1933l114 -173l170 173h203l-1 -7
l-297 -278h-190l-202 278l1 7h202z" />
    <glyph glyph-name="scaron" unicode="&#x161;" horiz-adv-x="1080" 
d="M457 -24q-119 0 -208 34.5t-140.5 100.5t-58.5 160q-1 6 -1 12.5v13.5l209 22q5 -87 56.5 -126.5t147.5 -39.5q71 0 130 21.5t96 59t42 84.5t-26 77.5t-103 47.5l-178 42q-142 33 -208 109t-54 191q11 102 76 177.5t167.5 116.5t224.5 41q172 0 266.5 -71.5t111.5 -188.5
q2 -9 3.5 -19t1.5 -20l-199 -23q-6 65 -49 107.5t-137 42.5q-63 0 -117.5 -21t-89.5 -57.5t-40 -83.5q-7 -49 26 -79t114 -49l173 -40q143 -33 208 -106.5t53 -186.5q-8 -79 -49.5 -143t-109 -110t-154 -71t-184.5 -25zM563 1547l114 -173l170 173h203l-1 -7l-297 -278h-190
l-202 278l1 7h202z" />
    <glyph glyph-name="uni021A" unicode="&#x162;" horiz-adv-x="1323" 
d="M205 1295l33 195h1159l-33 -195h-465l-214 -1295h-227l214 1295h-467zM385 -418l18 110h120q51 0 75.5 14.5t29.5 49.5q6 34 -12.5 49t-71.5 15h-84l70 227h101l-8 -47l-15 -86q93 -2 135 -41.5t29 -117.5q-14 -90 -77.5 -131.5t-184.5 -41.5h-125z" />
    <glyph glyph-name="uni0163" unicode="&#x163;" horiz-adv-x="694" 
d="M719 1104l-30 -178h-607l29 178h608zM325 1375h218l-178 -1078q-12 -67 11.5 -96t87.5 -29q18 0 46.5 3.5t49.5 6.5l1 -176q-33 -8 -73 -12.5t-78 -4.5q-153 0 -221.5 75t-45.5 213zM163 -418l18 110h120q51 0 75.5 14.5t29.5 49.5q6 34 -12.5 49t-71.5 15h-84l70 227
h101l-8 -47l-15 -86q93 -2 135 -41.5t29 -117.5q-14 -90 -77.5 -131.5t-184.5 -41.5h-125z" />
    <glyph glyph-name="Tcaron" unicode="&#x164;" horiz-adv-x="1323" 
d="M205 1295l33 195h1159l-33 -195h-465l-214 -1295h-227l214 1295h-467zM749 1933l114 -173l170 173h203l-1 -7l-297 -278h-190l-202 278l1 7h202z" />
    <glyph glyph-name="tcaron" unicode="&#x165;" horiz-adv-x="715" 
d="M719 1104l-30 -178h-607l29 178h608zM325 1375h218l-178 -1078q-12 -67 11.5 -96t87.5 -29q18 0 46.5 3.5t49.5 6.5l1 -176q-33 -8 -73 -12.5t-78 -4.5q-153 0 -221.5 75t-45.5 213zM642 1238l62 380h195l-114 -380h-143z" />
    <glyph glyph-name="Tbar" unicode="&#x166;" horiz-adv-x="1323" 
d="M205 1295l33 195h1159l-33 -195h-465l-214 -1295h-227l214 1295h-467zM264 660l29 172h833l-29 -172h-833z" />
    <glyph glyph-name="tbar" unicode="&#x167;" horiz-adv-x="695" 
d="M659 741l-28 -164h-607l27 164h608zM720 1104l-30 -178h-607l29 178h608zM326 1375h218l-178 -1078q-12 -67 11.5 -96t87.5 -29q18 0 46.5 3.5t49.5 6.5l1 -176q-33 -8 -73 -12.5t-78 -4.5q-153 0 -221.5 75t-45.5 213z" />
    <glyph glyph-name="Utilde" unicode="&#x168;" horiz-adv-x="1498" 
d="M667 -23q-182 0 -307 70.5t-179.5 193.5t-29.5 279l161 970h227l-160 -967q-17 -102 13.5 -178.5t103 -119t180.5 -42.5q115 0 207.5 46.5t152.5 126.5t76 182l158 952h227l-163 -985q-26 -157 -117.5 -276t-232.5 -185.5t-317 -66.5zM1069 1676q-40 0 -74 13.5t-62 31.5
t-52 31t-44 13q-29 0 -47 -26t-25 -58h-138q20 103 75.5 164.5t138.5 61.5q42 0 74.5 -14t58.5 -32t50 -31.5t49 -13.5q28 0 45 21t28 65h136q-21 -106 -78 -166t-135 -60z" />
    <glyph glyph-name="utilde" unicode="&#x169;" horiz-adv-x="1214" 
d="M430 -15q-112 0 -190.5 47t-111.5 141t-10 233l115 698h218l-110 -671q-20 -122 30.5 -190t161.5 -68q73 0 136.5 31.5t108.5 94t60 153.5l107 650h219l-183 -1104h-210l44 271h28q-74 -149 -179 -217.5t-234 -68.5zM863 1290q-40 0 -74 13.5t-62 31.5t-52 31t-44 13
q-29 0 -47 -26t-25 -58h-138q20 103 75.5 164.5t138.5 61.5q42 0 74.5 -14t58.5 -32t50 -31.5t49 -13.5q28 0 45 21t28 65h136q-21 -106 -78 -166t-135 -60z" />
    <glyph glyph-name="Umacron" unicode="&#x16a;" horiz-adv-x="1498" 
d="M667 -23q-182 0 -307 70.5t-179.5 193.5t-29.5 279l161 970h227l-160 -967q-17 -102 13.5 -178.5t103 -119t180.5 -42.5q115 0 207.5 46.5t152.5 126.5t76 182l158 952h227l-163 -985q-26 -157 -117.5 -276t-232.5 -185.5t-317 -66.5zM1249 1867l-27 -158h-562l27 158
h562z" />
    <glyph glyph-name="umacron" unicode="&#x16b;" horiz-adv-x="1214" 
d="M430 -15q-112 0 -190.5 47t-111.5 141t-10 233l115 698h218l-110 -671q-20 -122 30.5 -190t161.5 -68q73 0 136.5 31.5t108.5 94t60 153.5l107 650h219l-183 -1104h-210l44 271h28q-74 -149 -179 -217.5t-234 -68.5zM1043 1481l-27 -158h-562l27 158h562z" />
    <glyph glyph-name="Ubreve" unicode="&#x16c;" horiz-adv-x="1498" 
d="M667 -23q-182 0 -307 70.5t-179.5 193.5t-29.5 279l161 970h227l-160 -967q-17 -102 13.5 -178.5t103 -119t180.5 -42.5q115 0 207.5 46.5t152.5 126.5t76 182l158 952h227l-163 -985q-26 -157 -117.5 -276t-232.5 -185.5t-317 -66.5zM928 1640q-86 0 -149 39t-92.5 105
t-16.5 147h146q-11 -67 27.5 -109.5t108.5 -42.5q47 0 86.5 19.5t66.5 54t34 78.5h146q-13 -81 -65 -147.5t-128.5 -105t-163.5 -38.5z" />
    <glyph glyph-name="ubreve" unicode="&#x16d;" horiz-adv-x="1214" 
d="M430 -15q-112 0 -190.5 47t-111.5 141t-10 233l115 698h218l-110 -671q-20 -122 30.5 -190t161.5 -68q73 0 136.5 31.5t108.5 94t60 153.5l107 650h219l-183 -1104h-210l44 271h28q-74 -149 -179 -217.5t-234 -68.5zM722 1254q-86 0 -149 39t-92.5 105t-16.5 147h146
q-11 -67 27.5 -109.5t108.5 -42.5q47 0 86.5 19.5t66.5 54t34 78.5h146q-13 -81 -65 -147.5t-128.5 -105t-163.5 -38.5z" />
    <glyph glyph-name="Uring" unicode="&#x16e;" horiz-adv-x="1498" 
d="M667 -23q-182 0 -307 70.5t-179.5 193.5t-29.5 279l161 970h227l-160 -967q-17 -102 13.5 -178.5t103 -119t180.5 -42.5q115 0 207.5 46.5t152.5 126.5t76 182l158 952h227l-163 -985q-26 -157 -117.5 -276t-232.5 -185.5t-317 -66.5zM927 1550q-77 0 -133.5 35.5
t-83 94.5t-14.5 130q11 65 52 117t102.5 83t132.5 31q78 0 134.5 -35t83 -94t14.5 -130q-10 -65 -52 -118t-103.5 -83.5t-132.5 -30.5zM936 1678q49 0 89.5 33t49.5 83q9 51 -19.5 85.5t-80.5 34.5q-50 0 -90 -34t-49 -83q-8 -50 20.5 -84.5t79.5 -34.5z" />
    <glyph glyph-name="uring" unicode="&#x16f;" horiz-adv-x="1214" 
d="M430 -15q-112 0 -190.5 47t-111.5 141t-10 233l115 698h218l-110 -671q-20 -122 30.5 -190t161.5 -68q73 0 136.5 31.5t108.5 94t60 153.5l107 650h219l-183 -1104h-210l44 271h28q-74 -149 -179 -217.5t-234 -68.5zM711 1180q-73 0 -126.5 33.5t-79.5 90.5t-15 126
q12 69 56.5 125t109.5 89.5t138 33.5t126.5 -33.5t79.5 -89.5t14 -125q-11 -69 -55.5 -126t-109.5 -90.5t-138 -33.5zM731 1309q52 0 93 35t49 86q8 52 -21.5 86t-77.5 34q-51 0 -92 -34.5t-50 -85.5q-9 -50 20 -85.5t79 -35.5z" />
    <glyph glyph-name="Uhungarumlaut" unicode="&#x170;" horiz-adv-x="1498" 
d="M667 -23q-182 0 -307 70.5t-179.5 193.5t-29.5 279l161 970h227l-160 -967q-17 -102 13.5 -178.5t103 -119t180.5 -42.5q115 0 207.5 46.5t152.5 126.5t76 182l158 952h227l-163 -985q-26 -157 -117.5 -276t-232.5 -185.5t-317 -66.5zM772 1632h-167l166 301h222z
M1102 1632h-170l220 301h229z" />
    <glyph glyph-name="uhungarumlaut" unicode="&#x171;" horiz-adv-x="1214" 
d="M430 -15q-112 0 -190.5 47t-111.5 141t-10 233l115 698h218l-110 -671q-20 -122 30.5 -190t161.5 -68q73 0 136.5 31.5t108.5 94t60 153.5l107 650h219l-183 -1104h-210l44 271h28q-74 -149 -179 -217.5t-234 -68.5zM565 1246h-167l166 301h222zM895 1246h-170l220 301
h229z" />
    <glyph glyph-name="Uogonek" unicode="&#x172;" horiz-adv-x="1498" 
d="M667 -23q-182 0 -307 70.5t-179.5 193.5t-29.5 279l161 970h227l-160 -967q-17 -102 13.5 -178.5t103 -119t180.5 -42.5q115 0 207.5 46.5t152.5 126.5t76 182l158 952h227l-163 -985q-26 -157 -117.5 -276t-232.5 -185.5t-317 -66.5zM652 -431q-103 0 -164 51t-45 148
q11 67 56.5 115t113.5 85.5t147.5 72t159.5 74.5t150 93t120 126.5t67 177.5l77 -7q-22 -130 -77.5 -219.5t-129.5 -149.5t-152.5 -101.5t-147.5 -75t-115 -69t-54 -84.5q-6 -36 11 -55.5t57 -19.5q25 0 47 6.5t39 14.5l23 -144q-34 -14 -81 -26.5t-102 -12.5z" />
    <glyph glyph-name="uogonek" unicode="&#x173;" horiz-adv-x="1214" 
d="M430 -15q-112 0 -190.5 47t-111.5 141t-10 233l115 698h218l-110 -671q-20 -122 30.5 -190t161.5 -68q73 0 136.5 31.5t108.5 94t60 153.5l107 650h219l-183 -1104h-210l44 271h28q-74 -149 -179 -217.5t-234 -68.5zM780 -431q-103 0 -163 51.5t-44 147.5q12 72 66.5 137
t146.5 120l195 -25q-84 -51 -135 -95.5t-59 -98.5q-6 -36 11 -55.5t57 -19.5q23 0 45 6t40 15l24 -144q-34 -14 -81.5 -26.5t-102.5 -12.5z" />
    <glyph glyph-name="Wcircumflex" unicode="&#x174;" horiz-adv-x="2036" 
d="M355 0l-157 1490h237l74 -856q6 -80 9.5 -163.5t6 -168.5t3.5 -170h-34q30 85 60.5 170t63 168.5t65.5 163.5l365 856h248l79 -856q7 -80 11.5 -163.5t8 -168.5t5.5 -170h-37q30 85 60.5 170t62.5 168.5t64 163.5l357 856h241l-652 -1490h-262l-90 889
q-11 103 -13.5 219.5t-4.5 257.5h52q-47 -136 -87.5 -252t-87.5 -225l-385 -889h-263zM1057 1648h-202l1 7l295 278h190l204 -278l-1 -7h-203l-113 174z" />
    <glyph glyph-name="wcircumflex" unicode="&#x175;" horiz-adv-x="1673" 
d="M293 0l-152 1104h229l47 -456q10 -105 19.5 -229.5t14.5 -274.5h-32q53 145 104 270t98 234l199 456h216l45 -456q11 -105 20 -229.5t15 -274.5h-33q53 145 103 269.5t97 234.5l199 456h233l-518 -1104h-220l-58 476q-8 68 -15 145t-13 159.5t-12 162.5h45
q-33 -80 -66 -161.5t-65.5 -159t-64.5 -146.5l-215 -476h-220zM811 1262h-202l1 7l295 278h190l204 -278l-1 -7h-203l-113 174z" />
    <glyph glyph-name="Ycircumflex" unicode="&#x176;" horiz-adv-x="1408" 
d="M501 0l98 594l-401 896h250l202 -474q33 -76 57.5 -147t46.5 -169h-73q54 99 102.5 171t103.5 145l357 474h276l-695 -896l-98 -594h-226zM743 1648h-202l1 7l295 278h190l204 -278l-1 -7h-203l-113 174z" />
    <glyph glyph-name="ycircumflex" unicode="&#x177;" horiz-adv-x="1156" 
d="M-25 -406l71 180l44 -5q51 -11 93.5 -3t78 41.5t64.5 98.5l45 92l-238 1106h226l116 -623q18 -100 27 -199.5t21 -198.5h-66q45 99 88 199t95 199l324 623h242l-694 -1266q-47 -85 -105.5 -143.5t-129.5 -88.5t-157 -30q-45 0 -83.5 6t-61.5 12zM551 1262h-202l1 7
l295 278h190l204 -278l-1 -7h-203l-113 174z" />
    <glyph glyph-name="Ydieresis" unicode="&#x178;" horiz-adv-x="1408" 
d="M501 0l98 594l-401 896h250l202 -474q33 -76 57.5 -147t46.5 -169h-73q54 99 102.5 171t103.5 145l357 474h276l-695 -896l-98 -594h-226zM1102 1666q-53 0 -85 37.5t-23 90.5t53 90t98 37t85.5 -37t22.5 -90t-53 -90.5t-98 -37.5zM674 1666q-54 0 -85.5 37.5t-22.5 90.5
t53 90t98 37t85 -37t23 -90q-9 -53 -53 -90.5t-98 -37.5z" />
    <glyph glyph-name="Zacute" unicode="&#x179;" horiz-adv-x="1299" 
d="M28 0l25 149l970 1147h-787l32 194h1068l-25 -151l-972 -1145h788l-32 -194h-1067zM738 1653l190 284h226l-248 -284h-168z" />
    <glyph glyph-name="zacute" unicode="&#x17a;" horiz-adv-x="1115" 
d="M26 0l25 150l710 756l1 9h-569l30 189h849l-27 -161l-688 -745l-1 -9h581l-31 -189h-880zM573 1267l190 284h226l-248 -284h-168z" />
    <glyph glyph-name="Zdotaccent" unicode="&#x17b;" horiz-adv-x="1299" 
d="M28 0l25 149l970 1147h-787l32 194h1068l-25 -151l-972 -1145h788l-32 -194h-1067zM835 1663q-57 0 -90.5 38.5t-24.5 92.5q9 55 55.5 92.5t103.5 37.5t90.5 -37.5t24.5 -92.5q-8 -54 -55 -92.5t-104 -38.5z" />
    <glyph glyph-name="zdotaccent" unicode="&#x17c;" horiz-adv-x="1115" 
d="M26 0l25 150l710 756l1 9h-569l30 189h849l-27 -161l-688 -745l-1 -9h581l-31 -189h-880zM670 1277q-57 0 -90.5 38.5t-24.5 92.5q9 55 55.5 92.5t103.5 37.5t90.5 -37.5t24.5 -92.5q-8 -54 -55 -92.5t-104 -38.5z" />
    <glyph glyph-name="Zcaron" unicode="&#x17d;" horiz-adv-x="1299" 
d="M28 0l25 149l970 1147h-787l32 194h1068l-25 -151l-972 -1145h788l-32 -194h-1067zM737 1933l114 -173l170 173h203l-1 -7l-297 -278h-190l-202 278l1 7h202z" />
    <glyph glyph-name="zcaron" unicode="&#x17e;" horiz-adv-x="1115" 
d="M26 0l25 150l710 756l1 9h-569l30 189h849l-27 -161l-688 -745l-1 -9h581l-31 -189h-880zM573 1547l114 -173l170 173h203l-1 -7l-297 -278h-190l-202 278l1 7h202z" />
    <glyph glyph-name="longs" unicode="&#x17f;" horiz-adv-x="637" 
d="M-136 -442q-23 0 -44 1t-41 4t-41 7l47 186q17 -4 43.5 -6.5t43.5 -2.5q71 0 109.5 36.5t51.5 117.5l213 1286q20 116 73 195.5t137 120.5t194 41q41 0 77 -4.5t72 -11.5l-52 -177q-19 3 -51 4.5t-62 1.5q-73 0 -114 -40.5t-55 -126.5l-213 -1287q-19 -113 -68.5 -190
t-129.5 -116t-190 -39z" />
    <glyph glyph-name="bbar" unicode="&#x180;" horiz-adv-x="1247" 
d="M610 -22q-96 0 -157 31.5t-95 77t-52 89.5h-13l-30 -176h-213l247 1490h218l-94 -560h11q30 42 74 86t109 74t158 30q119 0 207.5 -53t137.5 -152t49 -238q0 -126 -37 -250t-108 -225.5t-174.5 -162.5t-237.5 -61zM567 164q94 0 164.5 46t118.5 121.5t72.5 164
t24.5 174.5q0 120 -56.5 192t-170.5 72q-93 0 -163.5 -44.5t-118.5 -118t-72 -162.5t-24 -177q0 -123 57 -195.5t168 -72.5zM109 1218l25 154h673l-26 -154h-672z" />
    <glyph glyph-name="uni0181" unicode="&#x181;" horiz-adv-x="1654" 
d="M141 1086l15 96q25 152 119.5 230t264.5 78h90l-33 -195h-85q-66 0 -101.5 -29.5t-46.5 -94.5l-14 -85h-209zM383 0l247 1490h544q157 0 255 -53t137.5 -144t21.5 -206q-14 -87 -58.5 -149t-109 -101t-139.5 -59v-8q76 -6 140 -52t96.5 -128t13.5 -197t-87 -203.5
t-187.5 -139t-293.5 -50.5h-580zM642 193h319q161 0 246.5 67.5t102.5 168.5q11 70 -15 124t-85.5 84.5t-148.5 30.5h-340zM750 846h301q77 0 143.5 30.5t112 85.5t57.5 129q15 90 -37.5 148t-184.5 58h-317z" />
    <glyph glyph-name="uni0182" unicode="&#x182;" horiz-adv-x="1329" 
d="M67 0l247 1490h931l-33 -194h-703l-68 -405h331q167 0 274.5 -54.5t153 -153t22.5 -232.5q-22 -133 -100.5 -234.5t-204.5 -159t-292 -57.5h-558zM326 191h330q96 0 168.5 37t117 97t56.5 129q18 102 -47.5 173.5t-209.5 71.5h-331z" />
    <glyph glyph-name="uni0183" unicode="&#x183;" horiz-adv-x="1247" 
d="M379 1312l-82 178h843l-29 -178h-732zM610 -22q-96 0 -157 31.5t-95 77t-52 89.5h-13l-30 -176h-213l247 1490h218l-94 -560h11q30 42 74 86t109 74t158 30q119 0 207.5 -53t137.5 -152t49 -238q0 -126 -37 -250t-108 -225.5t-174.5 -162.5t-237.5 -61zM567 164
q94 0 164.5 46t118.5 121.5t72.5 164t24.5 174.5q0 120 -56.5 192t-170.5 72q-93 0 -163.5 -44.5t-118.5 -118t-72 -162.5t-24 -177q0 -123 57 -195.5t168 -72.5z" />
    <glyph glyph-name="uni0184" unicode="&#x184;" horiz-adv-x="1627" 
d="M285 941l-161 99l326 450h238zM679 922h398q162 0 269.5 -55t154 -157t23.5 -241q-23 -144 -101.5 -249.5t-202 -162.5t-284.5 -57h-567l247 1490h227l-215 -1298h327q92 0 164 34t119 96t61 146q14 82 -10 141t-84 90t-152 31h-405z" />
    <glyph glyph-name="uni0185" unicode="&#x185;" horiz-adv-x="1429" 
d="M211 609l-146 86l298 409h224zM618 727h325q134 0 221.5 -46t124.5 -127t19 -188q-18 -106 -82 -188.5t-166 -130t-236 -47.5h-492l183 1104h218l-152 -915h270q95 0 161.5 48t78.5 124q13 79 -35 128t-143 49h-327z" />
    <glyph glyph-name="uni0186" unicode="&#x186;" horiz-adv-x="1498" 
d="M862 1511q175 0 304 -73t200 -208.5t71 -323.5q0 -179 -56 -345t-161.5 -297.5t-253.5 -208t-332 -76.5q-121 0 -221 34.5t-173 99.5t-113 159t-39 214h228q3 -72 27.5 -128t67.5 -94.5t101.5 -58t128.5 -19.5q135 0 241 61.5t180 165t112.5 231t38.5 258.5
q0 130 -45 220t-126 136t-191 46q-74 0 -143 -19.5t-128.5 -58t-105.5 -94t-72 -127.5h-230q37 112 103.5 204.5t157.5 160.5t200 104.5t229 36.5z" />
    <glyph glyph-name="uni0187" unicode="&#x187;" horiz-adv-x="1498" 
d="M1262 1004l66 407q23 137 115.5 205.5t242.5 68.5q38 0 68.5 -2.5t50.5 -6.5l-28 -173q-17 2 -39 3t-37 1q-77 0 -114.5 -24t-45.5 -73l-66 -406h-213zM700 -21q-174 0 -303.5 73t-200.5 208.5t-71 323.5q0 179 56 345t161.5 297.5t254 208t331.5 76.5q121 0 221 -34.5
t173 -99.5t113 -159t39 -214h-228q-3 72 -27.5 128t-67.5 94.5t-101.5 58t-128.5 19.5q-135 0 -241 -61.5t-180 -165t-112.5 -231t-38.5 -258.5q0 -130 45 -220t126 -136t191 -46q74 0 143 19.5t128.5 58t105.5 94t72 127.5h230q-37 -112 -103.5 -204.5t-157.5 -160.5
t-200 -104.5t-229 -36.5z" />
    <glyph glyph-name="uni0188" unicode="&#x188;" horiz-adv-x="1162" 
d="M923 758l-13 225q-16 163 61.5 239t236.5 76q35 0 61 -2t43 -5l-29 -174q-20 2 -45.5 3.5t-43.5 1.5q-55 0 -80 -28t-19 -90l15 -229zM525 -23q-138 0 -237.5 56.5t-153 159.5t-53.5 240q0 130 41 253t119.5 221t191.5 155.5t256 57.5q90 0 165 -24t130.5 -69.5t88 -109
t37.5 -142.5l-212 -32q-4 43 -18.5 78t-41 60.5t-64.5 39.5t-89 14q-95 0 -167 -45t-120.5 -119.5t-73 -163t-24.5 -175.5q0 -78 24 -139.5t75.5 -96t131.5 -34.5q54 0 101.5 15t87 42.5t69 65.5t47.5 83l204 -45q-31 -80 -82 -143.5t-118 -109t-146.5 -69.5t-168.5 -24z
" />
    <glyph glyph-name="Dbar1" unicode="&#x189;" horiz-adv-x="1516" 
d="M638 0h-404l33 198h355q171 0 294.5 64.5t199.5 187.5t104 297q29 175 -4.5 296.5t-130.5 185t-260 63.5h-384l33 198h370q220 0 367.5 -89.5t209.5 -256t23 -398.5q-39 -234 -143 -400.5t-270.5 -256t-392.5 -89.5zM593 1490l-247 -1490h-227l247 1490h227zM40 659
l29 172h784l-28 -172h-785z" />
    <glyph glyph-name="uni018A" unicode="&#x18a;" horiz-adv-x="1781" 
d="M141 1086l15 96q26 152 120 230t264 78h90l-33 -195h-85q-66 0 -101.5 -29.5t-46.5 -94.5l-14 -85h-209zM902 0h-404l33 198h355q171 0 294.5 64.5t199.5 187.5t104 297q29 175 -4.5 296.5t-130.5 185t-260 63.5h-384l33 198h370q220 0 367.5 -89.5t209.5 -256t23 -398.5
q-39 -234 -143 -400.5t-270.5 -256t-392.5 -89.5zM857 1490l-247 -1490h-227l247 1490h227z" />
    <glyph glyph-name="uni018B" unicode="&#x18b;" horiz-adv-x="1307" 
d="M1101 0h-556q-165 0 -273 57t-153.5 159t-23.5 235t101 233t206 155.5t293 55.5h310l62 371h-683l31 201h928zM890 197l82 500h-312q-145 0 -223 -70.5t-95 -172.5q-10 -69 9.5 -127.5t75 -94t151.5 -35.5h312z" />
    <glyph glyph-name="uni018C" unicode="&#x18c;" horiz-adv-x="1247" 
d="M1120 1312h-732l29 178h844zM473 -22q-180 0 -286.5 118.5t-106.5 325.5q0 129 37.5 253.5t109.5 225t175 160t235 59.5q99 0 159.5 -32.5t93.5 -78.5t49 -87h10l93 568h219l-247 -1490h-213l29 171h-14q-30 -45 -75 -89.5t-111 -74t-157 -29.5zM526 164q93 0 163.5 45.5
t118.5 120t72.5 164t24.5 177.5q0 122 -57 192.5t-170 70.5q-92 0 -162.5 -44.5t-118 -118t-72 -162t-24.5 -176.5q0 -122 56 -195.5t169 -73.5z" />
    <glyph glyph-name="deltaturn" unicode="&#x18d;" horiz-adv-x="1168" 
d="M794 -376h-747l33 185h433q-10 14 -37 43t-60.5 63t-65.5 63q-91 88 -156 177t-94.5 186t-13.5 209l3 20q26 169 105.5 295.5t202.5 196.5t278 70q159 0 259 -69.5t139.5 -193.5t16.5 -287l-4 -20q-17 -125 -87.5 -228t-180 -170.5t-245.5 -85.5q-15 -2 -22 -2t-19 -1
q35 -36 73.5 -76.5t77 -82t73.5 -82t61 -77.5zM847 550l3 20q16 106 3.5 190.5t-63 133.5t-146.5 49q-93 0 -158.5 -48.5t-105.5 -133t-56 -191.5l-3 -20q-18 -118 20.5 -202t97.5 -126q17 -6 34 -8.5t39 -2.5q98 0 167 47t111 124.5t57 167.5z" />
    <glyph glyph-name="Eturn" unicode="&#x18e;" horiz-adv-x="1231" 
d="M1229 1490l-247 -1490h-952l32 195h725l73 444h-673l33 194h673l77 462h-731l32 195h958z" />
    <glyph glyph-name="uni018F" unicode="&#x18f;" horiz-adv-x="1522" 
d="M655 -21q-181 0 -312.5 76t-192.5 213.5t-32 323.5l28 171h1158l-31 -187h-996l62 9q-20 -121 19.5 -211t125.5 -139t204 -49q135 0 245.5 66t186 191.5t104.5 302.5q29 178 -8.5 302.5t-127 190t-219.5 65.5q-74 0 -140.5 -20t-122.5 -58t-100 -91.5t-74 -119.5h-232
q36 110 105 201t162.5 157t204.5 102t232 36q195 0 331 -93.5t194.5 -264.5t19.5 -407q-28 -176 -98.5 -317.5t-175.5 -242t-236.5 -154t-283.5 -53.5z" />
    <glyph glyph-name="Epsilon1" unicode="&#x190;" horiz-adv-x="1273" 
d="M542 -21q-153 0 -264 56t-164 154t-32 223q16 92 65 166t127 122.5t180 63.5l1 10q-114 31 -170.5 118t-36.5 210q20 113 93.5 205.5t188.5 148t259 55.5q140 0 244 -53.5t155.5 -148t33.5 -218.5h-218q10 72 -19.5 123.5t-87 79t-133.5 27.5q-78 0 -141 -29t-103.5 -81
t-52.5 -123q-11 -70 15.5 -122.5t85.5 -81.5t143 -29h126l-30 -185h-126q-102 0 -181 -32t-127.5 -88t-61.5 -131q-11 -73 18 -129t92 -87t151 -31q84 0 155.5 28.5t120.5 82t64 126.5h228q-24 -127 -107 -223.5t-210 -151.5t-281 -55z" />
    <glyph glyph-name="uni0191" unicode="&#x191;" horiz-adv-x="1195" 
d="M-211 -418l30 184q18 -2 39.5 -3t37.5 -1q76 0 107.5 24t39.5 73l45 268h227l-47 -279q-22 -135 -113.5 -205t-244.5 -70q-38 0 -69.5 2.5t-51.5 6.5zM67 0l247 1490h937l-33 -195h-710l-78 -473h645l-32 -194h-645l-104 -628h-227z" />
    <glyph glyph-name="florin" unicode="&#x192;" horiz-adv-x="834" 
d="M798 1082l-29 -173h-209l-160 -965q-19 -119 -72.5 -199.5t-136 -121.5t-189.5 -41q-33 0 -62 2.5t-61 11.5l45 185q16 -6 48 -8t47 -2q62 0 104 46t55 127l160 965h-177l30 173h176l17 104q20 120 77.5 202.5t142 125t187.5 42.5q43 0 90 -7t77 -18l-70 -182
q-15 4 -35.5 7t-49.5 3q-81 0 -131.5 -43t-65.5 -130l-17 -104h209z" />
    <glyph glyph-name="uni0193" unicode="&#x193;" horiz-adv-x="1524" 
d="M1333 1049l14 362q3 95 47 155t120.5 88t172.5 28q37 0 68 -2.5t51 -6.5l-28 -173q-18 2 -39.5 3t-37.5 1q-76 0 -113.5 -23.5t-45.5 -73.5l-64 -392zM704 -21q-178 0 -308 73.5t-200.5 209t-70.5 321.5q0 178 56 344.5t161 298t252.5 208.5t330.5 77q121 0 222.5 -36
t175.5 -101.5t114.5 -156.5t39.5 -202h-232q-8 66 -32.5 119.5t-66 91.5t-99 58t-129.5 20q-133 0 -238.5 -61.5t-179 -164.5t-112.5 -230t-39 -258q0 -195 99.5 -299.5t265.5 -104.5q123 0 225 50.5t170 142.5t88 213l57 -16h-426l31 187h588l-29 -178
q-24 -139 -87.5 -250.5t-158.5 -191t-214.5 -122t-253.5 -42.5z" />
    <glyph glyph-name="Gamma1" unicode="&#x194;" horiz-adv-x="1356" 
d="M183 1490h252l297 -1124q39 -144 71 -250t48 -180.5t7 -124.5q-13 -81 -60.5 -137.5t-120.5 -86t-164 -29.5q-138 0 -210.5 65.5t-52.5 189.5q5 29 18.5 62t36.5 75.5t58.5 100t83.5 135t111 181.5l672 1123h253l-841 -1365q-49 -81 -83.5 -137.5t-54.5 -96.5t-24 -71
q-6 -36 12.5 -58t53.5 -23q36 1 60 25t29 57q4 32 -1.5 72.5t-20 96.5t-37.5 135z" />
    <glyph glyph-name="uni0195" unicode="&#x195;" horiz-adv-x="1955" 
d="M50 0l247 1490h216l-92 -556h15q54 92 143.5 145t219.5 53q115 0 193 -47.5t111 -141t9 -233.5l-25 -152h-220l21 125q19 123 -32.5 191t-163.5 68q-76 0 -142 -32.5t-111.5 -94.5t-60.5 -152l-109 -663h-219zM1171 -20q-119 0 -201 50.5t-115.5 152.5t-7.5 256l20 119
h220l-20 -119q-19 -110 2 -169t62 -81t84 -22q88 0 173 81t156.5 259t120.5 469l23 142h220l-24 -142q-57 -348 -161.5 -568t-245 -324t-306.5 -104z" />
    <glyph glyph-name="Iota" unicode="&#x196;" horiz-adv-x="567" 
d="M331 -6q-144 0 -201.5 67t-36.5 199l204 1230h218l-197 -1191q-11 -67 3.5 -94.5t68.5 -27.5q23 0 37.5 1.5t25.5 4.5l2 -174q-23 -6 -55.5 -10.5t-68.5 -4.5z" />
    <glyph glyph-name="uni0197" unicode="&#x197;" horiz-adv-x="698" 
d="M618 1490l-247 -1490h-227l247 1490h227zM43 705l22 134h661l-22 -134h-661z" />
    <glyph glyph-name="uni0198" unicode="&#x198;" horiz-adv-x="1406" 
d="M67 0l247 1490h226l-116 -706h18l656 605q74 68 152.5 97t154 20t140.5 -58l-111 -164q-44 30 -94 20t-114 -67l-470 -424l486 -813h-273l-382 653l-217 -205l-76 -448h-227z" />
    <glyph glyph-name="uni0199" unicode="&#x199;" horiz-adv-x="1130" 
d="M201 904l32 200l21 122q22 133 114 204t248 71q39 0 69.5 -2.5t51.5 -6.5l-29 -173q-18 2 -39.5 3t-38.5 1q-73 0 -111 -23t-47 -75l-20 -121l-33 -200h-218zM315 372l43 265h34l519 467h264l-593 -534h-36zM51 0l183 1104h218l-183 -1104h-218zM754 0l-312 522l177 153
l404 -675h-269z" />
    <glyph glyph-name="uni019A" unicode="&#x19a;" horiz-adv-x="501" 
d="M515 1490l-247 -1490h-218l247 1490h218zM-64 691l25 154h673l-26 -154h-672z" />
    <glyph glyph-name="lambdabar" unicode="&#x19b;" horiz-adv-x="1307" 
d="M873 1410l-31 -181l-571 -192l30 178zM660 753l-391 -753h-260l600 1106l164 -6zM517 1520q110 0 161.5 -44t70.5 -125l249 -1079q7 -31 17.5 -52t26.5 -31t39 -10h19.5h15.5l-27 -188q-16 -4 -40.5 -6.5t-51.5 -2.5q-67 0 -114 17.5t-77 63t-49 129.5l-170 780l-65 266
q-13 52 -39 72t-67 20q-11 0 -26 -0.5t-27 -3.5l27 178q21 7 61 11.5t66 4.5z" />
    <glyph glyph-name="mcapturn" unicode="&#x19c;" horiz-adv-x="1874" 
d="M1425 227l210 1263h235l-246 -1490h-220zM1494 504l95 2q-25 -151 -88.5 -270t-167 -187.5t-248.5 -68.5q-111 0 -184.5 43.5t-101 144t-1.5 268.5l175 1054h235l-175 -1054q-16 -100 -1 -157.5t51 -81t85 -23.5q100 0 166 43t105 118t55 169zM834 504l96 2
q-24 -152 -88.5 -271t-169 -187t-251.5 -68q-112 0 -185.5 43.5t-99.5 143.5t1 269l175 1054h236l-175 -1054q-16 -103 -1 -160t51.5 -79.5t81.5 -22.5q100 0 167.5 43t106.5 117.5t55 169.5z" />
    <glyph glyph-name="Nhook" unicode="&#x19d;" horiz-adv-x="1530" 
d="M-211 -418l30 184q18 -2 39.5 -3t37.5 -1q76 0 107.5 24t39.5 73l45 268h227l-47 -279q-22 -135 -113.5 -205t-244.5 -70q-38 0 -69.5 2.5t-51.5 6.5zM67 0l247 1490h253l416 -890q17 -37 41.5 -95.5t51.5 -133.5t52 -161l-25 -11q6 79 15.5 160.5t19.5 153.5t18 120
l142 857h229l-247 -1490h-253l-374 796q-25 56 -52.5 120.5t-61 151.5t-80.5 208l31 10q-14 -117 -25.5 -211.5t-20.5 -164.5t-16 -113l-132 -797h-229z" />
    <glyph glyph-name="uni019E" unicode="&#x19e;" horiz-adv-x="1214" 
d="M376 650l-107 -650h-218l182 1104h210l-44 -271l-28 1q50 99 109.5 162.5t132 93.5t159.5 30q113 0 194 -48t117.5 -141.5t13.5 -232.5l-185 -1116h-219l181 1090q21 123 -25 190t-155 67q-74 0 -141 -32t-114.5 -93.5t-62.5 -153.5z" />
    <glyph glyph-name="Obar" unicode="&#x19f;" horiz-adv-x="1562" 
d="M1318 831l-12 -173h-1004l12 173h1004zM699 -21q-172 0 -301.5 73t-201 209t-71.5 324q0 179 56.5 345t162 296.5t253.5 207.5t331 77q172 0 300.5 -73t200.5 -208.5t72 -324.5q0 -179 -56.5 -345t-162.5 -297t-253.5 -207.5t-329.5 -76.5zM708 186q135 0 240.5 61.5
t179 165t111.5 231t38 258.5q0 132 -45.5 221.5t-126 135t-186.5 45.5q-135 0 -240.5 -61.5t-179 -165.5t-112 -231t-38.5 -258t45.5 -220.5t126.5 -135.5t187 -46z" />
    <glyph glyph-name="Ohorn" unicode="&#x1a0;" horiz-adv-x="1564" 
d="M915 1362l25 149q45 0 76 -2t60 -5.5t67 -6.5t96 -5t149 -2q20 0 24 21l31 194h202l-31 -194q-16 -91 -71 -135t-145 -44q-43 0 -80.5 4.5t-86.5 10.5t-124 10.5t-192 4.5zM699 -21q-172 0 -301.5 73t-201 209t-71.5 324q0 179 56.5 345t162 296.5t253.5 207.5t331 77
q172 0 300.5 -73t200.5 -208.5t72 -324.5q0 -179 -56.5 -345t-162.5 -297t-253.5 -207.5t-329.5 -76.5zM708 186q135 0 240.5 61.5t179 165t111.5 231t38 258.5q0 132 -45.5 221.5t-126 135t-186.5 45.5q-135 0 -240.5 -61.5t-179 -165.5t-112 -231t-38.5 -258t45.5 -220.5
t126.5 -135.5t187 -46z" />
    <glyph glyph-name="ohorn" unicode="&#x1a1;" horiz-adv-x="1213" 
d="M677 978l23 142q42 -1 81.5 -3.5l79 -5t82 -4t88.5 -1.5q22 0 25 20l33 193h192l-30 -175q-9 -60 -38 -99.5t-74.5 -58t-105.5 -18.5q-87 0 -178 5t-178 5zM526 -23q-139 0 -238.5 56.5t-153 159.5t-53.5 240q0 133 42 256t121 220.5t192 154t254 56.5q139 0 239 -56
t153 -159.5t53 -242.5q0 -133 -42 -256t-122 -220t-192.5 -153t-252.5 -56zM532 162q96 0 168 45.5t120 120t72 163t24 172.5q0 80 -25 141t-77 96t-132 35q-94 0 -165.5 -45.5t-120 -120t-73 -163t-24.5 -174.5q0 -118 57 -194t176 -76z" />
    <glyph glyph-name="OI" unicode="&#x1a2;" horiz-adv-x="1811" 
d="M1308 803l-101 -609q-54 -64 -139.5 -112t-192 -75t-224.5 -27q-201 0 -329.5 85.5t-177.5 242.5t-14 373l19 115l248 4l-20 -119q-25 -159 0 -272t104 -173t215 -60q86 0 161 24t127 69l88 534h236zM1390 1296l-99 -597l-236 -1l87 520q-34 44 -101.5 69t-153.5 25
q-104 0 -185.5 -32t-142 -95.5t-101 -158t-60.5 -217.5l-19 -113h-245l17 113q36 222 139.5 378.5t264 239.5t364.5 83q114 0 208.5 -28t162.5 -76.5t100 -109.5zM1804 1490l-316 -1908h-236l275 1653l-282 -106l38 224l341 137h180z" />
    <glyph glyph-name="uni01A3" unicode="&#x1a3;" horiz-adv-x="1358" 
d="M497 169q46 0 81.5 12t66.5 33l60 359h236l-68 -414q-47 -50 -107.5 -91t-136.5 -64.5t-170 -23.5q-160 0 -255.5 73.5t-130 197t-11.5 272.5l5 36q25 163 101 292.5t199.5 205t290.5 75.5q87 0 154.5 -25.5t116 -67.5t75.5 -93l-69 -417l-237 8l60 356q-23 24 -57.5 37
t-81.5 13q-98 0 -162 -52.5t-101 -140t-53 -191.5l-5 -36q-16 -109 -0.5 -188t65 -122.5t134.5 -43.5zM1383 1118l-252 -1536h-236l206 1247l-245 -117l44 267l308 139h175z" />
    <glyph glyph-name="uni01A4" unicode="&#x1a4;" horiz-adv-x="1620" 
d="M141 1086l15 96q26 152 120 230t264 78h90l-33 -195h-85q-66 0 -101.5 -29.5t-46.5 -94.5l-14 -85h-209zM383 0l247 1490h536q169 0 274 -62t146.5 -170.5t18.5 -247.5q-22 -138 -99 -246.5t-203.5 -171t-296.5 -62.5h-379l32 194h360q109 0 183.5 37t118 102.5
t56.5 147.5q14 84 -8.5 147.5t-85 100t-170.5 36.5h-289l-214 -1295h-227z" />
    <glyph glyph-name="uni01A5" unicode="&#x1a5;" horiz-adv-x="1247" 
d="M200 904l32 200l21 122q22 133 114.5 204t247.5 71q39 0 69.5 -2.5t51.5 -6.5l-29 -173q-18 2 -39 3t-38 1q-74 0 -112 -23t-47 -75l-20 -121l-33 -200h-218zM-19 -418l252 1522h213l-29 -175h7q29 44 75 88t113.5 73.5t160.5 29.5q119 0 207.5 -53t137.5 -152t49 -238
q0 -125 -37 -249.5t-108 -226t-174.5 -162.5t-237.5 -61q-97 0 -157.5 33t-93.5 79.5t-49 87.5h-13l-98 -596h-218zM567 164q94 0 164.5 46t118.5 121.5t72.5 164t24.5 174.5q0 120 -56.5 192t-170.5 72q-93 0 -163.5 -44.5t-118.5 -118t-72 -162.5t-24 -177
q0 -123 57 -195.5t168 -72.5z" />
    <glyph glyph-name="YR" unicode="&#x1a6;" horiz-adv-x="1495" 
d="M238 1390l34 202h248l-34 -202h-248zM256 1490h514q170 0 279 -51t154 -149.5t20 -240.5q-18 -107 -72.5 -189.5t-138 -139t-190.5 -87.5l-77 -33h-456l31 195h333q96 0 164.5 32.5t108.5 88.5t51 125q18 113 -36.5 181.5t-205.5 68.5h-265l-214 -1291h-248zM980 -356
l-369 1015h258l376 -1004l-2 -11h-263z" />
    <glyph glyph-name="uni01A7" unicode="&#x1a7;" horiz-adv-x="1315" 
d="M561 -24q-174 0 -290 56.5t-166 155.5t-29 226q15 96 63 166t118 118.5t152.5 81t166.5 52.5l154 38q72 18 139 45t113.5 70t57.5 110q10 65 -16.5 114.5t-85.5 77t-147 27.5t-162.5 -27.5t-126 -78.5t-70.5 -122h-221q25 125 106 220.5t205.5 150t278.5 54.5
q153 0 265 -54t165.5 -151t32.5 -226q-26 -156 -146.5 -251.5t-316.5 -144.5l-181 -45q-88 -22 -156.5 -50.5t-110.5 -70t-53 -106.5q-17 -109 59 -174t219 -65q92 0 173.5 29t139.5 86t77 141h227q-28 -140 -113.5 -242t-217.5 -156.5t-303 -54.5z" />
    <glyph glyph-name="uni01A8" unicode="&#x1a8;" horiz-adv-x="1081" 
d="M154 818q32 92 96.5 159.5t159 105t216.5 37.5q125 0 215 -41.5t132 -115t25 -172.5q-19 -116 -106 -194t-252 -114l-191 -42q-80 -17 -125.5 -51t-54.5 -88q-11 -64 45.5 -106.5t159.5 -42.5q97 0 165 41t99 125l208 -24q-32 -102 -103 -173t-173 -108t-227 -37
q-132 0 -226.5 43.5t-139 120.5t-28.5 179q19 114 105.5 188.5t248.5 110.5l186 40q88 20 135.5 53.5t56.5 88.5q12 65 -42 105t-144 40q-100 0 -160 -46.5t-85 -107.5z" />
    <glyph glyph-name="uni01A9" unicode="&#x1a9;" horiz-adv-x="1308" 
d="M13 0l30 177l492 436q36 31 73 61.5t72.5 58t66.5 51t55 42.5l-18 -109q-21 22 -55 55.5t-71.5 73t-70.5 79.5l-320 396l27 169h1118l-33 -195h-568q-88 0 -166 1t-147 5l-7 41q25 -25 60.5 -58.5t76 -76.5t80.5 -94l250 -313l-12 -80l-356 -319q-61 -54 -120 -101.5
t-111 -87t-94 -71.5l21 48q77 4 161 5t183 1h578l-32 -195h-1163z" />
    <glyph glyph-name="eshlooprev" unicode="&#x1aa;" horiz-adv-x="1170" 
d="M699 1084l256 110l-208 -1248q-16 -95 11.5 -136t94.5 -41q16 0 36 3t39 7l-30 -187q-29 -8 -64.5 -11.5t-68.5 -3.5q-153 0 -219.5 94t-36.5 275zM219 1192q16 101 79 184t155 132.5t194 49.5t177 -49.5t111 -132.5t19 -184q-16 -98 -80 -180.5t-155.5 -132.5
t-193.5 -50q-100 0 -175 48.5t-111 131.5t-20 183zM562 1039q42 0 78.5 17.5t62.5 52t34 87.5q13 78 -24 118t-100 40q-42 0 -80 -17.5t-63.5 -53t-34.5 -88.5q-13 -80 26 -118t101 -38z" />
    <glyph glyph-name="uni01AB" unicode="&#x1ab;" horiz-adv-x="694" 
d="M57 -419l29 173q17 -1 39 -2t39 -1q97 0 139.5 37t41.5 113l3 111h214l-2 -107q1 -96 -43 -171t-129.5 -118.5t-210.5 -43.5q-37 0 -68.5 2.5t-51.5 6.5zM719 1104l-30 -178h-607l29 178h608zM325 1375h218l-178 -1078q-12 -67 11.5 -96t87.5 -29q18 0 46.5 3.5t49.5 6.5
l1 -176q-33 -8 -73 -12.5t-78 -4.5q-153 0 -221.5 75t-45.5 213z" />
    <glyph glyph-name="uni01AC" unicode="&#x1ac;" horiz-adv-x="1359" 
d="M161 1086l16 96q25 152 119 230t264 78h90l-33 -195h-85q-65 0 -101 -29.5t-46 -94.5l-15 -85h-209zM617 1295l33 195h783l-33 -195h-463l-214 -1295h-228l215 1295h-93z" />
    <glyph glyph-name="uni01AD" unicode="&#x1ad;" horiz-adv-x="740" 
d="M434 -11q-144 0 -216 78.5t-50 210.5l124 746h212l-117 -704q-12 -75 14 -109.5t96 -34.5q18 0 39 2t42 5l2 -177q-32 -8 -70 -12.5t-76 -4.5zM115 931l29 173h601l-29 -173h-601zM273 904l32 200l21 122q22 133 114 204t248 71q39 0 69.5 -2.5t51.5 -6.5l-29 -173
q-18 2 -39.5 3t-37.5 1q-74 0 -112 -23t-47 -75l-20 -121l-33 -200h-218z" />
    <glyph glyph-name="Trthook" unicode="&#x1ae;" horiz-adv-x="1323" 
d="M677 0l-18 -105q-13 -80 34.5 -104.5t114.5 -23.5h57l-31 -185h-112q-64 0 -121 17.5t-98.5 55t-59 97t-3.5 142.5l18 106h219zM205 1295l33 195h1159l-33 -195h-465l-214 -1295h-227l214 1295h-467z" />
    <glyph glyph-name="Uhorn" unicode="&#x1af;" horiz-adv-x="1495" 
d="M1246 1330l27 160h180q21 0 24 21l32 194h202l-32 -194q-15 -91 -70.5 -136t-145.5 -45h-217zM667 -23q-182 0 -307 70.5t-179.5 193.5t-29.5 279l161 970h227l-160 -967q-17 -102 13.5 -178.5t103 -119t180.5 -42.5q115 0 207.5 46.5t152.5 126.5t76 182l158 952h227
l-163 -985q-26 -157 -117.5 -276t-232.5 -185.5t-317 -66.5z" />
    <glyph glyph-name="uhorn" unicode="&#x1b0;" horiz-adv-x="1287" 
d="M1014 963l24 141h80q33 0 39 34l35 212h185l-34 -206q-15 -91 -70.5 -136t-145.5 -45h-113zM430 -15q-112 0 -190.5 47t-111.5 141t-10 233l115 698h218l-110 -671q-20 -122 30.5 -190t161.5 -68q73 0 136.5 31.5t108.5 94t60 153.5l107 650h219l-183 -1104h-210l44 271
h28q-74 -149 -179 -217.5t-234 -68.5z" />
    <glyph glyph-name="Upsilon2" unicode="&#x1b1;" horiz-adv-x="1562" 
d="M131 697q33 199 136.5 347.5t259.5 239.5l4 12h-301l32 194h551l-42 -246q-96 -39 -183.5 -117.5t-149 -187t-82.5 -237.5q-23 -145 15.5 -262t128.5 -185t220 -68q132 0 245 68t189.5 185.5t100.5 264.5q22 131 -5 238.5t-88 185.5t-145 115l43 246h550l-31 -194h-301
l-2 -12q125 -88 180.5 -236.5t21.5 -352.5q-26 -157 -97 -288t-177 -226.5t-238 -148t-280 -52.5q-147 0 -262 52.5t-189.5 148t-102 227t-1.5 289.5z" />
    <glyph glyph-name="Vcursive" unicode="&#x1b2;" horiz-adv-x="1306" 
d="M557 -20q-155 0 -269.5 55.5t-167.5 167.5t-26 279l167 1008h246l-168 -1008q-26 -158 43 -232t207 -74q139 0 232.5 74t119.5 232l107 656q17 97 -15.5 133t-108.5 36q-17 0 -37.5 -1.5t-40.5 -4.5l34 191q28 8 62 13t69 5q152 0 234 -95.5t53 -276.5l-109 -656
q-27 -166 -120 -278t-227 -168t-285 -56z" />
    <glyph glyph-name="uni01B3" unicode="&#x1b3;" horiz-adv-x="1493" 
d="M733 779l6 34h34l-4 -34h-36zM204 1490h253l299 -691l402 528q70 91 148 134.5t157.5 46t150.5 -30.5l-83 -178q-55 22 -105 7.5t-102 -81.5l-490 -624l-99 -601h-226l100 601z" />
    <glyph glyph-name="uni01B4" unicode="&#x1b4;" horiz-adv-x="1411" 
d="M971 1104l67 132q33 62 65 111.5t70 84t90.5 52t125.5 17.5q43 0 77 -2.5t59 -7.5l-19 -167q-17 2 -36 2.5t-31 0.5q-53 0 -84 -13.5t-51 -37.5t-38 -58l-66 -114h-229zM-25 -406l71 180l44 -5q51 -11 93.5 -3t78 41.5t64.5 98.5l45 92l-238 1106h226l116 -623
q18 -100 27 -199.5t21 -198.5h-66q45 99 88 199t95 199l324 623h242l-694 -1266q-47 -85 -105.5 -143.5t-129.5 -88.5t-157 -30q-45 0 -83.5 6t-61.5 12z" />
    <glyph glyph-name="Zbar" unicode="&#x1b5;" horiz-adv-x="1299" 
d="M28 0l25 149l970 1147h-787l32 194h1068l-25 -151l-972 -1145h788l-32 -194h-1067zM251 659l29 172h833l-29 -172h-833z" />
    <glyph glyph-name="zbar" unicode="&#x1b6;" horiz-adv-x="1115" 
d="M26 0l25 150l710 756l1 9h-569l30 189h849l-27 -161l-688 -745l-1 -9h581l-31 -189h-880zM213 490l22 134h661l-22 -134h-661z" />
    <glyph glyph-name="uni01B7" unicode="&#x1b7;" horiz-adv-x="1387" 
d="M4 79h229q-10 -95 29.5 -167.5t115.5 -113t174 -40.5q116 0 210 56.5t156 152.5t82 217q23 137 -18 237.5t-133 155.5t-225 54h-127l30 177l546 471v12h-786l34 199h1086l-28 -165l-598 -517l-2 -14q162 -9 273 -89t159 -213.5t19 -304.5q-23 -137 -86.5 -251.5
t-158 -199t-214 -130.5t-254.5 -46q-165 0 -287 65.5t-183 183t-43 270.5z" />
    <glyph glyph-name="uni01B8" unicode="&#x1b8;" horiz-adv-x="1387" 
d="M1227 79q-33 -153 -134 -270.5t-244.5 -183t-309.5 -65.5q-135 0 -239 46.5t-170.5 130.5t-91 199.5t-1.5 252.5q28 172 120 304.5t229 212t301 88.5l2 14l-427 517l28 165h1087l-34 -199h-788v-12l390 -471l-29 -177h-127q-131 1 -241.5 -53.5t-185 -155t-97.5 -238.5
q-19 -122 10.5 -218t105 -152t190.5 -56q100 0 189 40.5t151.5 113t84.5 167.5h231z" />
    <glyph glyph-name="uni01B9" unicode="&#x1b9;" horiz-adv-x="1277" 
d="M479 -407q-155 0 -265.5 57t-163 157t-30.5 229q19 116 91 211.5t185 155.5t253 69l2 10l-327 457l27 165h928l-32 -194h-634l-2 -9l291 -414l-29 -171h-132q-119 0 -201.5 -36.5t-130 -98t-59.5 -138.5q-14 -82 15.5 -139t93 -87t151.5 -30q84 0 155 28t119.5 81
t65.5 127h230q-28 -130 -113.5 -226.5t-212 -150t-275.5 -53.5z" />
    <glyph glyph-name="uni01BA" unicode="&#x1ba;" horiz-adv-x="1118" 
d="M236 1104h882l-24 -142l-642 -480h-128l24 143l390 290h-533zM209 -129q-10 -65 38 -100.5t138 -35.5q58 0 114 16.5t97.5 56.5t57.5 109h230q-15 -89 -82 -172t-178 -136t-260 -53q-133 0 -224.5 41.5t-133 116t-25.5 171.5q12 71 49 124.5t97 93t140.5 68t178.5 48.5
q79 16 130.5 33t79 44.5t34.5 71.5q9 53 -31 83.5t-138 30.5h-97l40 177h87q130 0 218 -38t128.5 -105t25.5 -155q-12 -72 -50.5 -125t-98.5 -90.5t-138.5 -64t-170.5 -46.5q-94 -20 -148 -45.5t-78 -55.5t-30 -63z" />
    <glyph glyph-name="uni01BB" unicode="&#x1bb;" horiz-adv-x="1243" 
d="M38 0l28 167l597 513q93 82 157.5 145.5t101.5 122.5t48 126q13 78 -10 132.5t-76 84t-131 29.5q-81 0 -150.5 -34t-116.5 -96t-61 -147h-215q23 140 100.5 245t194.5 164t259 59q144 0 245.5 -56.5t149.5 -154t26 -222.5q-10 -64 -37 -124.5t-76.5 -125t-127.5 -141
t-191 -172.5l-363 -312l-1 -9h670l-31 -194h-990zM286 549l29 172h833l-29 -172h-833z" />
    <glyph glyph-name="uni01BC" unicode="&#x1bc;" horiz-adv-x="1268" 
d="M532 1490l-32 -194h-295l33 194h294zM560 -20q-141 0 -244.5 54.5t-155 149.5t-35.5 217h220q-8 -100 55 -165t176 -65q86 0 161 39.5t127.5 110t66.5 162.5q15 92 -10.5 162.5t-84.5 110.5t-145 40q-77 0 -157 -28t-128 -78l-205 24l204 776h838l-32 -194h-646
l-114 -421h7q57 49 134 78.5t164 29.5q137 0 234 -64t141.5 -176.5t19.5 -258.5q-24 -146 -107 -260t-208 -179t-276 -65z" />
    <glyph glyph-name="uni01BD" unicode="&#x1bd;" horiz-adv-x="1169" 
d="M413 468l-205 14l173 600h710l-32 -195h-514l-63 -217q36 22 98.5 39t124.5 19q182 3 269.5 -94t58.5 -277q-17 -108 -78 -192.5t-167.5 -133.5t-263.5 -49q-78 0 -153 20t-133 60.5t-86 103t-14 146.5l232 15q-11 -71 40.5 -111.5t143.5 -40.5q109 0 170.5 52t75.5 138
q14 85 -31 136.5t-147 51.5q-78 0 -127.5 -25.5t-81.5 -59.5zM497 1082l-32 -195h-307l32 195h307z" />
    <glyph glyph-name="glottalstopbarinv" unicode="&#x1be;" horiz-adv-x="1119" 
d="M733 296q7 45 -15 76t-59.5 56.5t-79.5 54.5t-77.5 68.5t-52.5 98t-2 145.5l92 551h237l-90 -548q-10 -64 9.5 -105t56 -68.5t79 -52.5t79 -56.5t54.5 -80t6 -125.5q-15 -97 -82 -171t-173 -116.5t-239 -42.5q-149 0 -243.5 53t-133.5 136t-24 173h233q-8 -69 20 -109
t76.5 -57t102.5 -17q65 0 113.5 17.5t77.5 48t35 71.5zM928 1082l-30 -173h-616l32 173h614z" />
    <glyph glyph-name="uni01BF" unicode="&#x1bf;" horiz-adv-x="1310" 
d="M467 910l-196 -1326h-237l226 1534h220zM385 661l-117 -65q42 164 111.5 284t171.5 186t239 66q138 0 222.5 -68.5t116 -193t7.5 -290.5l-7 -50q-30 -209 -146 -343.5t-307 -221t-449 -151.5l21 188q168 33 305 96.5t226.5 169t111.5 262.5l7 50q14 97 0 178.5t-63.5 131
t-141.5 48.5q-84 1 -145 -36t-101 -100t-62 -141z" />
    <glyph glyph-name="pipe" unicode="&#x1c0;" horiz-adv-x="553" 
d="M512 1481l-246 -1481h-167l246 1481h167z" />
    <glyph glyph-name="pipedbl" unicode="&#x1c1;" horiz-adv-x="743" 
d="M476 1481l-246 -1481h-167l246 1481h167zM746 1481l-246 -1481h-167l246 1481h167z" />
    <glyph glyph-name="pipedblbar" unicode="&#x1c2;" horiz-adv-x="501" 
d="M483 1481l-246 -1481h-167l246 1481h167zM-24 936l25 154h673l-26 -154h-672zM-105 447l25 154h673l-26 -154h-672z" />
    <glyph glyph-name="exclam1" unicode="&#x1c3;" horiz-adv-x="589" 
d="M174 463l154 1027h241l-187 -1027h-208zM211 -16q-64 0 -103 47t-29 113q10 57 55 94t100 37q66 0 104 -46.5t28 -110.5q-8 -56 -53 -95t-102 -39z" />
    <glyph glyph-name="Dzcaron_" unicode="&#x1c5;" horiz-adv-x="2580" 
d="M586 0h-404l33 198h355q171 0 294.5 64.5t199.5 187.5t104 297q29 175 -4.5 296.5t-130.5 185t-260 63.5h-384l33 198h370q220 0 367.5 -89.5t209.5 -256t23 -398.5q-39 -234 -143 -400.5t-270.5 -256t-392.5 -89.5zM541 1490l-247 -1490h-227l247 1490h227zM1491 0
l25 150l710 756l1 9h-569l30 189h849l-27 -161l-688 -745l-1 -9h581l-31 -189h-880zM2037 1547l114 -173l170 173h203l-1 -7l-297 -278h-190l-202 278l1 7h202z" />
    <glyph glyph-name="uni01C6" unicode="&#x1c6;" horiz-adv-x="2190" 
d="M473 -22q-180 0 -286.5 118.5t-106.5 325.5q0 129 37.5 253.5t109.5 225t175 160t235 59.5q99 0 159.5 -32.5t93.5 -78.5t49 -87h10l93 568h219l-247 -1490h-213l29 171h-14q-30 -45 -75 -89.5t-111 -74t-157 -29.5zM526 164q93 0 163.5 45.5t118.5 120t72.5 164
t24.5 177.5q0 122 -57 192.5t-170 70.5q-92 0 -162.5 -44.5t-118 -118t-72 -162t-24.5 -176.5q0 -122 56 -195.5t169 -73.5zM1101 0l25 150l710 756l1 9h-569l30 189h849l-27 -161l-688 -745l-1 -9h581l-31 -189h-880zM1648 1547l114 -173l170 173h203l-1 -7l-297 -278h-190
l-202 278l1 7h202z" />
    <glyph glyph-name="uni01C7" unicode="&#x1c7;" horiz-adv-x="2312" 
d="M67 0l247 1490h227l-215 -1294h681l-32 -196h-908zM1611 -20q-184 0 -295 93t-111 265q0 16 1.5 34.5t6.5 52.5t14 91h226q-9 -53 -13.5 -82t-5.5 -43t-1 -24q0 -95 52.5 -144.5t145.5 -49.5q105 0 181 65.5t97 193.5l176 1058h226l-176 -1057q-35 -217 -175 -335
t-349 -118z" />
    <glyph glyph-name="uni01C8" unicode="&#x1c8;" horiz-adv-x="1649" 
d="M67 0l247 1490h227l-215 -1294h681l-32 -196h-908zM1380 1104h219l-197 -1189q-17 -107 -69 -181.5t-135.5 -113t-195.5 -38.5h-54l30 187h41q74 0 114 38.5t52 115.5zM1518 1277q-57 0 -90.5 38.5t-24.5 92.5q9 55 55.5 92.5t103.5 37.5t90.5 -37.5t24.5 -92.5
q-8 -54 -55 -92.5t-104 -38.5z" />
    <glyph glyph-name="uni01C9" unicode="&#x1c9;" horiz-adv-x="1002" 
d="M515 1490l-247 -1490h-218l247 1490h218zM733 1104h219l-197 -1189q-17 -107 -69 -181.5t-135.5 -113t-195.5 -38.5h-54l30 187h41q74 0 114 38.5t52 115.5zM872 1277q-57 0 -90.5 38.5t-24.5 92.5q9 55 55.5 92.5t103.5 37.5t90.5 -37.5t24.5 -92.5q-8 -54 -55 -92.5
t-104 -38.5z" />
    <glyph glyph-name="uni01CA" unicode="&#x1ca;" horiz-adv-x="2695" 
d="M67 0l247 1490h253l416 -890q17 -37 41.5 -95.5t51.5 -133.5t52 -161l-25 -11q6 79 15.5 160.5t19.5 153.5t18 120l142 857h229l-247 -1490h-253l-374 796q-25 56 -52.5 120.5t-61 151.5t-80.5 208l31 10q-14 -117 -25.5 -211.5t-20.5 -164.5t-16 -113l-132 -797h-229z
M1993 -20q-184 0 -295 93t-111 265q0 16 1.5 34.5t6.5 52.5t14 91h226q-9 -53 -13.5 -82t-5.5 -43t-1 -24q0 -95 52.5 -144.5t145.5 -49.5q105 0 181 65.5t97 193.5l176 1058h226l-176 -1057q-35 -217 -175 -335t-349 -118z" />
    <glyph glyph-name="uni01CB" unicode="&#x1cb;" horiz-adv-x="2031" 
d="M67 0l247 1490h253l416 -890q17 -37 41.5 -95.5t51.5 -133.5t52 -161l-25 -11q6 79 15.5 160.5t19.5 153.5t18 120l142 857h229l-247 -1490h-253l-374 796q-25 56 -52.5 120.5t-61 151.5t-80.5 208l31 10q-14 -117 -25.5 -211.5t-20.5 -164.5t-16 -113l-132 -797h-229z
M1762 1104h219l-197 -1189q-17 -107 -69 -181.5t-135.5 -113t-195.5 -38.5h-54l30 187h41q74 0 114 38.5t52 115.5zM1901 1277q-57 0 -90.5 38.5t-24.5 92.5q9 55 55.5 92.5t103.5 37.5t90.5 -37.5t24.5 -92.5q-8 -54 -55 -92.5t-104 -38.5z" />
    <glyph glyph-name="uni01CC" unicode="&#x1cc;" horiz-adv-x="1714" 
d="M375 643l-107 -643h-218l183 1104h209l-42 -271l-30 7q72 146 173 213t229 67q116 0 196.5 -49.5t115 -145t11.5 -234.5l-115 -691h-218l113 679q21 123 -29.5 186.5t-155.5 63.5q-76 0 -142.5 -33.5t-112 -97.5t-60.5 -155zM1445 1104h219l-197 -1189
q-17 -107 -69 -181.5t-135.5 -113t-195.5 -38.5h-54l30 187h41q74 0 114 38.5t52 115.5zM1584 1277q-57 0 -90.5 38.5t-24.5 92.5q9 55 55.5 92.5t103.5 37.5t90.5 -37.5t24.5 -92.5q-8 -54 -55 -92.5t-104 -38.5z" />
    <glyph glyph-name="uni01CD" unicode="&#x1cd;" horiz-adv-x="1436" 
d="M-48 0l779 1490h278l292 -1490h-236l-152 831q-15 96 -34.5 234t-41.5 329h50q-82 -185 -145 -322.5t-114 -240.5l-423 -831h-253zM307 391l31 190h768l-31 -190h-768zM804 1933l114 -173l170 173h203l-1 -7l-297 -278h-190l-202 278l1 7h202z" />
    <glyph glyph-name="uni01CE" unicode="&#x1ce;" horiz-adv-x="1249" 
d="M460 -22q-136 0 -229.5 70t-131.5 198.5t-9 304.5q30 178 111 305t198 195.5t251 68.5q96 0 154 -31t89.5 -75.5t47.5 -84.5h11l29 175h217l-183 -1104h-213l28 171h-15q-31 -42 -78 -87t-115 -75.5t-162 -30.5zM540 164q93 0 165.5 49.5t121.5 136.5t67 202
q20 116 0 201.5t-77 133t-150 47.5q-95 0 -168.5 -49.5t-121 -135t-65.5 -197.5t1 -200t76 -138t151 -50zM645 1547l114 -173l170 173h203l-1 -7l-297 -278h-190l-202 278l1 7h202z" />
    <glyph glyph-name="uni01CF" unicode="&#x1cf;" horiz-adv-x="544" 
d="M541 1490l-247 -1490h-227l247 1490h227zM358 1933l114 -173l170 173h203l-1 -7l-297 -278h-190l-202 278l1 7h202z" />
    <glyph glyph-name="uni01D0" unicode="&#x1d0;" horiz-adv-x="502" 
d="M51 0l182 1104h218l-182 -1104h-218zM274 1547l114 -173l170 173h203l-1 -7l-297 -278h-190l-202 278l1 7h202z" />
    <glyph glyph-name="uni01D1" unicode="&#x1d1;" horiz-adv-x="1562" 
d="M699 -21q-172 0 -301.5 73t-201 209t-71.5 324q0 179 56.5 345t162 296.5t253.5 207.5t331 77q172 0 300.5 -73t200.5 -208.5t72 -324.5q0 -179 -56.5 -345t-162.5 -297t-253.5 -207.5t-329.5 -76.5zM708 186q135 0 240.5 61.5t179 165t111.5 231t38 258.5
q0 132 -45.5 221.5t-126 135t-186.5 45.5q-135 0 -240.5 -61.5t-179 -165.5t-112 -231t-38.5 -258t45.5 -220.5t126.5 -135.5t187 -46zM868 1933l114 -173l170 173h203l-1 -7l-297 -278h-190l-202 278l1 7h202z" />
    <glyph glyph-name="uni01D2" unicode="&#x1d2;" horiz-adv-x="1217" 
d="M526 -23q-139 0 -238.5 56.5t-153 159.5t-53.5 240q0 133 42 256t121 220.5t192 154t254 56.5q139 0 239 -56t153 -159.5t53 -242.5q0 -133 -42 -256t-122 -220t-192.5 -153t-252.5 -56zM532 162q96 0 168 45.5t120 120t72 163t24 172.5q0 80 -25 141t-77 96t-132 35
q-94 0 -165.5 -45.5t-120 -120t-73 -163t-24.5 -174.5q0 -118 57 -194t176 -76zM630 1547l114 -173l170 173h203l-1 -7l-297 -278h-190l-202 278l1 7h202z" />
    <glyph glyph-name="uni01D3" unicode="&#x1d3;" horiz-adv-x="1498" 
d="M667 -23q-182 0 -307 70.5t-179.5 193.5t-29.5 279l161 970h227l-160 -967q-17 -102 13.5 -178.5t103 -119t180.5 -42.5q115 0 207.5 46.5t152.5 126.5t76 182l158 952h227l-163 -985q-26 -157 -117.5 -276t-232.5 -185.5t-317 -66.5zM835 1933l114 -173l170 173h203
l-1 -7l-297 -278h-190l-202 278l1 7h202z" />
    <glyph glyph-name="uni01D4" unicode="&#x1d4;" horiz-adv-x="1214" 
d="M430 -15q-112 0 -190.5 47t-111.5 141t-10 233l115 698h218l-110 -671q-20 -122 30.5 -190t161.5 -68q73 0 136.5 31.5t108.5 94t60 153.5l107 650h219l-183 -1104h-210l44 271h28q-74 -149 -179 -217.5t-234 -68.5zM629 1547l114 -173l170 173h203l-1 -7l-297 -278h-190
l-202 278l1 7h202z" />
    <glyph glyph-name="uni01D5" unicode="&#x1d5;" horiz-adv-x="1498" 
d="M667 -23q-182 0 -307 70.5t-179.5 193.5t-29.5 279l161 970h227l-160 -967q-17 -102 13.5 -178.5t103 -119t180.5 -42.5q115 0 207.5 46.5t152.5 126.5t76 182l158 952h227l-163 -985q-26 -157 -117.5 -276t-232.5 -185.5t-317 -66.5zM1144 1635q-54 0 -85.5 37.5
t-22.5 90.5q8 54 52.5 91t98.5 37t85 -37t22 -91q-8 -53 -52 -90.5t-98 -37.5zM716 1635q-54 0 -85.5 37.5t-22.5 90.5q8 54 52.5 91t98.5 37q53 0 84.5 -37t22.5 -91q-8 -53 -52 -90.5t-98 -37.5zM1325 2162l-26 -139h-562l27 139h561z" />
    <glyph glyph-name="uni01D6" unicode="&#x1d6;" horiz-adv-x="1214" 
d="M430 -15q-112 0 -190.5 47t-111.5 141t-10 233l115 698h218l-110 -671q-20 -122 30.5 -190t161.5 -68q73 0 136.5 31.5t108.5 94t60 153.5l107 650h219l-183 -1104h-210l44 271h28q-74 -149 -179 -217.5t-234 -68.5zM938 1249q-54 0 -85.5 37.5t-22.5 90.5q8 54 52.5 91
t98.5 37t85 -37t22 -91q-8 -53 -52 -90.5t-98 -37.5zM510 1249q-54 0 -85.5 37.5t-22.5 90.5q8 54 52.5 91t98.5 37q53 0 84.5 -37t22.5 -91q-8 -53 -52 -90.5t-98 -37.5zM1119 1776l-26 -139h-562l27 139h561z" />
    <glyph glyph-name="uni01D7" unicode="&#x1d7;" horiz-adv-x="1498" 
d="M667 -23q-182 0 -307 70.5t-179.5 193.5t-29.5 279l161 970h227l-160 -967q-17 -102 13.5 -178.5t103 -119t180.5 -42.5q115 0 207.5 46.5t152.5 126.5t76 182l158 952h227l-163 -985q-26 -157 -117.5 -276t-232.5 -185.5t-317 -66.5zM1144 1635q-54 0 -85.5 37.5
t-22.5 90.5q8 54 52.5 91t98.5 37t85 -37t22 -91q-8 -53 -52 -90.5t-98 -37.5zM716 1635q-54 0 -85.5 37.5t-22.5 90.5q8 54 52.5 91t98.5 37q53 0 84.5 -37t22.5 -91q-8 -53 -52 -90.5t-98 -37.5zM908 1984l183 274h216l-240 -274h-159z" />
    <glyph glyph-name="uni01D8" unicode="&#x1d8;" horiz-adv-x="1214" 
d="M430 -15q-112 0 -190.5 47t-111.5 141t-10 233l115 698h218l-110 -671q-20 -122 30.5 -190t161.5 -68q73 0 136.5 31.5t108.5 94t60 153.5l107 650h219l-183 -1104h-210l44 271h28q-74 -149 -179 -217.5t-234 -68.5zM938 1249q-54 0 -85.5 37.5t-22.5 90.5q8 54 52.5 91
t98.5 37t85 -37t22 -91q-8 -53 -52 -90.5t-98 -37.5zM510 1249q-54 0 -85.5 37.5t-22.5 90.5q8 54 52.5 91t98.5 37q53 0 84.5 -37t22.5 -91q-8 -53 -52 -90.5t-98 -37.5zM702 1598l183 274h216l-240 -274h-159z" />
    <glyph glyph-name="uni01D9" unicode="&#x1d9;" horiz-adv-x="1498" 
d="M667 -23q-182 0 -307 70.5t-179.5 193.5t-29.5 279l161 970h227l-160 -967q-17 -102 13.5 -178.5t103 -119t180.5 -42.5q115 0 207.5 46.5t152.5 126.5t76 182l158 952h227l-163 -985q-26 -157 -117.5 -276t-232.5 -185.5t-317 -66.5zM1144 1635q-54 0 -85.5 37.5
t-22.5 90.5q8 54 52.5 91t98.5 37t85 -37t22 -91q-8 -53 -52 -90.5t-98 -37.5zM716 1635q-54 0 -85.5 37.5t-22.5 90.5q8 54 52.5 91t98.5 37q53 0 84.5 -37t22.5 -91q-8 -53 -52 -90.5t-98 -37.5zM899 2253l110 -168l165 168h193l-2 -6l-284 -268h-181l-194 268l1 6h192z
" />
    <glyph glyph-name="uni01DA" unicode="&#x1da;" horiz-adv-x="1214" 
d="M430 -15q-112 0 -190.5 47t-111.5 141t-10 233l115 698h218l-110 -671q-20 -122 30.5 -190t161.5 -68q73 0 136.5 31.5t108.5 94t60 153.5l107 650h219l-183 -1104h-210l44 271h28q-74 -149 -179 -217.5t-234 -68.5zM938 1249q-54 0 -85.5 37.5t-22.5 90.5q8 54 52.5 91
t98.5 37t85 -37t22 -91q-8 -53 -52 -90.5t-98 -37.5zM510 1249q-54 0 -85.5 37.5t-22.5 90.5q8 54 52.5 91t98.5 37q53 0 84.5 -37t22.5 -91q-8 -53 -52 -90.5t-98 -37.5zM693 1867l110 -168l165 168h193l-2 -6l-284 -268h-181l-194 268l1 6h192z" />
    <glyph glyph-name="uni01DB" unicode="&#x1db;" horiz-adv-x="1498" 
d="M667 -23q-182 0 -307 70.5t-179.5 193.5t-29.5 279l161 970h227l-160 -967q-17 -102 13.5 -178.5t103 -119t180.5 -42.5q115 0 207.5 46.5t152.5 126.5t76 182l158 952h227l-163 -985q-26 -157 -117.5 -276t-232.5 -185.5t-317 -66.5zM1144 1635q-54 0 -85.5 37.5
t-22.5 91.5q8 53 52.5 90t98.5 37t85 -37t22 -90q-8 -54 -52 -91.5t-98 -37.5zM716 1635q-54 0 -85.5 37.5t-22.5 91.5q8 53 52.5 90t98.5 37q53 0 84.5 -37t22.5 -90q-8 -54 -52 -91.5t-98 -37.5zM903 1984l-147 274h215l91 -274h-159z" />
    <glyph glyph-name="uni01DC" unicode="&#x1dc;" horiz-adv-x="1214" 
d="M430 -15q-112 0 -190.5 47t-111.5 141t-10 233l115 698h218l-110 -671q-20 -122 30.5 -190t161.5 -68q73 0 136.5 31.5t108.5 94t60 153.5l107 650h219l-183 -1104h-210l44 271h28q-74 -149 -179 -217.5t-234 -68.5zM938 1249q-54 0 -85.5 37.5t-22.5 91.5q8 53 52.5 90
t98.5 37t85 -37t22 -90q-8 -54 -52 -91.5t-98 -37.5zM510 1249q-54 0 -85.5 37.5t-22.5 91.5q8 53 52.5 90t98.5 37q53 0 84.5 -37t22.5 -90q-8 -54 -52 -91.5t-98 -37.5zM697 1598l-147 274h215l91 -274h-159z" />
    <glyph glyph-name="eturn" unicode="&#x1dd;" horiz-adv-x="1169" 
d="M639 1128q140 0 241.5 -53t155.5 -154.5t52 -248.5q-1 -145 -47.5 -271t-130.5 -221t-195.5 -149t-242.5 -54q-111 0 -196 37.5t-132.5 107t-47.5 166.5q0 98 53 165t161 106.5t271 57.5t384 18l-27 -153q-185 0 -307.5 -10t-193 -32t-100 -58.5t-29.5 -91.5
q0 -60 50 -96t136 -36q107 0 180 50.5t117.5 129.5t65 168.5t21.5 168.5q0 76 -23 138t-78.5 98.5t-151.5 36.5q-101 0 -178.5 -44t-114.5 -118l-202 33q58 141 193.5 225t315.5 84z" />
    <glyph glyph-name="uni01DE" unicode="&#x1de;" horiz-adv-x="1436" 
d="M-48 0l779 1490h278l292 -1490h-236l-152 831q-15 96 -34.5 234t-41.5 329h50q-82 -185 -145 -322.5t-114 -240.5l-423 -831h-253zM307 391l31 190h768l-31 -190h-768zM1113 1635q-54 0 -85.5 37.5t-22.5 90.5q8 54 52.5 91t98.5 37t85 -37t22 -91q-8 -53 -52 -90.5
t-98 -37.5zM685 1635q-54 0 -85.5 37.5t-22.5 90.5q8 54 52.5 91t98.5 37q53 0 84.5 -37t22.5 -91q-8 -53 -52 -90.5t-98 -37.5zM1294 2162l-26 -139h-562l27 139h561z" />
    <glyph glyph-name="uni01DF" unicode="&#x1df;" horiz-adv-x="1249" 
d="M460 -22q-136 0 -229.5 70t-131.5 198.5t-9 304.5q30 178 111 305t198 195.5t251 68.5q96 0 154 -31t89.5 -75.5t47.5 -84.5h11l29 175h217l-183 -1104h-213l28 171h-15q-31 -42 -78 -87t-115 -75.5t-162 -30.5zM540 164q93 0 165.5 49.5t121.5 136.5t67 202
q20 116 0 201.5t-77 133t-150 47.5q-95 0 -168.5 -49.5t-121 -135t-65.5 -197.5t1 -200t76 -138t151 -50zM954 1249q-54 0 -85.5 37.5t-22.5 90.5q8 54 52.5 91t98.5 37t85 -37t22 -91q-8 -53 -52 -90.5t-98 -37.5zM526 1249q-54 0 -85.5 37.5t-22.5 90.5q8 54 52.5 91
t98.5 37q53 0 84.5 -37t22.5 -91q-8 -53 -52 -90.5t-98 -37.5zM1135 1776l-26 -139h-562l27 139h561z" />
    <glyph glyph-name="uni01E0" unicode="&#x1e0;" horiz-adv-x="1436" 
d="M-48 0l779 1490h278l292 -1490h-236l-152 831q-15 96 -34.5 234t-41.5 329h50q-82 -185 -145 -322.5t-114 -240.5l-423 -831h-253zM307 391l31 190h768l-31 -190h-768zM899 1633q-57 0 -90.5 38t-24.5 92q8 55 55 93t103 38q58 0 91.5 -38t24.5 -93q-8 -54 -55 -92
t-104 -38zM1294 2162l-26 -139h-562l27 139h561z" />
    <glyph glyph-name="uni01E1" unicode="&#x1e1;" horiz-adv-x="1249" 
d="M460 -22q-136 0 -229.5 70t-131.5 198.5t-9 304.5q30 178 111 305t198 195.5t251 68.5q96 0 154 -31t89.5 -75.5t47.5 -84.5h11l29 175h217l-183 -1104h-213l28 171h-15q-31 -42 -78 -87t-115 -75.5t-162 -30.5zM540 164q93 0 165.5 49.5t121.5 136.5t67 202
q20 116 0 201.5t-77 133t-150 47.5q-95 0 -168.5 -49.5t-121 -135t-65.5 -197.5t1 -200t76 -138t151 -50zM740 1247q-57 0 -90.5 38t-24.5 92q8 55 55 93t103 38q58 0 91.5 -38t24.5 -93q-8 -54 -55 -92t-104 -38zM1135 1776l-26 -139h-562l27 139h561z" />
    <glyph glyph-name="uni01E2" unicode="&#x1e2;" horiz-adv-x="2035" 
d="M-48 0l931 1490h1184l-33 -195h-709l-74 -451h658l-32 -194h-658l-76 -455h717l-32 -195h-944l213 1281h-114l-784 -1281h-247zM361 399l31 189h706l-31 -189h-706zM1822 1867l-27 -158h-562l27 158h562z" />
    <glyph glyph-name="uni01E3" unicode="&#x1e3;" horiz-adv-x="1850" 
d="M386 -16q-178 0 -269.5 91t-65.5 244q14 85 64.5 154.5t145 110.5t238.5 41h103t104.5 -0.5t127.5 0.5l-16 -152h-150.5t-147.5 -1q-103 0 -173.5 -37t-82.5 -115q-14 -81 29 -122.5t136 -41.5q95 0 161.5 35t106.5 91.5t51 120.5l63 352q18 98 -28 146t-161 48
q-65 0 -118.5 -21t-89 -58.5t-49.5 -90.5l-212 7q23 101 92 177.5t173 119t232 42.5q127 0 212.5 -44t123 -124.5t18.5 -187.5l-80 -488l-17 -4q-37 -87 -107.5 -153t-173.5 -103t-240 -37zM1211 -24q-143 0 -243 55.5t-150.5 161.5t-44.5 257q3 145 50 268.5t128.5 215
t189 142.5t233.5 51q112 0 197 -38t133 -108t48 -167q0 -96 -53 -161.5t-161 -105.5t-270.5 -57t-383.5 -17l25 149q186 0 308.5 10t193 32.5t100 60t29.5 93.5q0 60 -49.5 94t-133.5 34q-91 0 -166 -42.5t-125.5 -117t-66.5 -172.5q-8 -51 -14 -87t-9 -62t-3 -45
q0 -129 63 -196.5t185 -67.5q103 0 181 45t114 119l205 -29q-61 -147 -195.5 -231t-314.5 -84zM1331 1481l-27 -158h-562l27 158h562z" />
    <glyph glyph-name="Gbar" unicode="&#x1e4;" horiz-adv-x="1524" 
d="M704 -21q-178 0 -308 73.5t-200.5 209t-70.5 321.5q0 178 56 344.5t161 298t252.5 208.5t330.5 77q121 0 222.5 -36t175.5 -101.5t114.5 -156.5t39.5 -202h-232q-8 66 -32.5 119.5t-66 91.5t-99 58t-129.5 20q-133 0 -238.5 -61.5t-179 -164.5t-112.5 -230t-39 -258
q0 -195 99.5 -299.5t265.5 -104.5q123 0 225 50.5t170 142.5t88 213l57 -16h-426l31 187h588l-29 -178q-24 -139 -87.5 -250.5t-158.5 -191t-214.5 -122t-253.5 -42.5zM788 336l21 128h670l-21 -128h-670z" />
    <glyph glyph-name="gbar" unicode="&#x1e5;" horiz-adv-x="1249" 
d="M456 -440q-134 0 -226 36t-145 96.5t-67 134.5l194 58q12 -35 38.5 -69t76.5 -57t132 -23q133 0 225.5 66.5t114.5 194.5l33 198l-16 -3q-30 -42 -74.5 -84t-108.5 -70t-156 -28q-117 0 -206.5 50t-139 145t-49.5 230q0 127 38 248.5t110 220t175 157.5t233 59
q74 0 126 -19t87 -49.5t56.5 -65t33.5 -64.5l15 3l29 179h214l-186 -1121q-25 -149 -104.5 -242.5t-197 -137t-255.5 -43.5zM531 193q94 0 164.5 42t117.5 112.5t70 155.5t23 171q0 120 -57 190t-170 70q-90 0 -160.5 -43t-119 -114t-73 -157.5t-24.5 -173.5
q0 -118 58 -185.5t171 -67.5zM662 498l22 134h661l-22 -134h-661z" />
    <glyph glyph-name="Gcaron" unicode="&#x1e6;" horiz-adv-x="1524" 
d="M704 -21q-178 0 -308 73.5t-200.5 209t-70.5 321.5q0 178 56 344.5t161 298t252.5 208.5t330.5 77q121 0 222.5 -36t175.5 -101.5t114.5 -156.5t39.5 -202h-232q-8 66 -32.5 119.5t-66 91.5t-99 58t-129.5 20q-133 0 -238.5 -61.5t-179 -164.5t-112.5 -230t-39 -258
q0 -195 99.5 -299.5t265.5 -104.5q123 0 225 50.5t170 142.5t88 213l57 -16h-426l31 187h588l-29 -178q-24 -139 -87.5 -250.5t-158.5 -191t-214.5 -122t-253.5 -42.5zM860 1933l114 -173l170 173h203l-1 -7l-297 -278h-190l-202 278l1 7h202z" />
    <glyph glyph-name="gcaron" unicode="&#x1e7;" horiz-adv-x="1249" 
d="M456 -440q-134 0 -226 36t-145 96.5t-67 134.5l194 58q12 -35 38.5 -69t76.5 -57t132 -23q133 0 225.5 66.5t114.5 194.5l33 198l-16 -3q-30 -42 -74.5 -84t-108.5 -70t-156 -28q-117 0 -206.5 50t-139 145t-49.5 230q0 127 38 248.5t110 220t175 157.5t233 59
q74 0 126 -19t87 -49.5t56.5 -65t33.5 -64.5l15 3l29 179h214l-186 -1121q-25 -149 -104.5 -242.5t-197 -137t-255.5 -43.5zM531 193q94 0 164.5 42t117.5 112.5t70 155.5t23 171q0 120 -57 190t-170 70q-90 0 -160.5 -43t-119 -114t-73 -157.5t-24.5 -173.5
q0 -118 58 -185.5t171 -67.5zM625 1547l114 -173l170 173h203l-1 -7l-297 -278h-190l-202 278l1 7h202z" />
    <glyph glyph-name="uni01E8" unicode="&#x1e8;" horiz-adv-x="1392" 
d="M293 394l29 241q62 71 122 135t122.5 127t131.5 129l497 464h299l-749 -697l-15 3zM67 0l247 1490h229l-79 -477l-60 -340l-15 -111l-93 -562h-229zM1002 0l-387 731l153 174l485 -905h-251zM790 1933l114 -173l170 173h203l-1 -7l-297 -278h-190l-202 278l1 7h202z" />
    <glyph glyph-name="uni01E9" unicode="&#x1e9;" horiz-adv-x="1129" 
d="M313 372l44 265h33l520 467h264l-594 -534h-36zM50 0l247 1490h218l-247 -1490h-218zM752 0l-311 522l177 153l403 -675h-269zM337 1933l114 -173l170 173h203l-1 -7l-297 -278h-190l-202 278l1 7h202z" />
    <glyph glyph-name="uni01EA" unicode="&#x1ea;" horiz-adv-x="1562" 
d="M699 -21q-172 0 -301.5 73t-201 209t-71.5 324q0 179 56.5 345t162 296.5t253.5 207.5t331 77q172 0 300.5 -73t200.5 -208.5t72 -324.5q0 -179 -56.5 -345t-162.5 -297t-253.5 -207.5t-329.5 -76.5zM708 186q135 0 240.5 61.5t179 165t111.5 231t38 258.5
q0 132 -45.5 221.5t-126 135t-186.5 45.5q-135 0 -240.5 -61.5t-179 -165.5t-112 -231t-38.5 -258t45.5 -220.5t126.5 -135.5t187 -46zM676 -431q-103 0 -164 51.5t-44 150.5q14 80 69.5 137.5t136.5 104.5t175 96.5t187.5 113t173.5 154t134 219.5t66 309h90
q-10 -197 -58 -340t-119 -243.5t-154.5 -169t-166 -115t-152.5 -82t-115 -70t-53 -79.5q-5 -37 12 -56t57 -19q24 0 46 6.5t39 14.5l24 -144q-34 -14 -81.5 -26.5t-102.5 -12.5z" />
    <glyph glyph-name="uni01EB" unicode="&#x1eb;" horiz-adv-x="1217" 
d="M526 -23q-139 0 -238.5 56.5t-153 159.5t-53.5 240q0 133 42 256t121 220.5t192 154t254 56.5q139 0 239 -56t153 -159.5t53 -242.5q0 -133 -42 -256t-122 -220t-192.5 -153t-252.5 -56zM532 162q96 0 168 45.5t120 120t72 163t24 172.5q0 80 -25 141t-77 96t-132 35
q-94 0 -165.5 -45.5t-120 -120t-73 -163t-24.5 -174.5q0 -118 57 -194t176 -76zM509 -431q-109 0 -168 52t-43 146q13 76 63.5 129.5t123.5 97t154 90t157 106.5t131.5 146.5t75.5 210.5h123q-23 -141 -74.5 -237t-118.5 -160.5t-136.5 -108t-131.5 -78t-103.5 -70.5
t-49.5 -87q-6 -36 11.5 -55.5t59.5 -19.5q23 0 43 6t38 15l24 -144q-33 -14 -79 -26.5t-100 -12.5z" />
    <glyph glyph-name="uni01EC" unicode="&#x1ec;" horiz-adv-x="1562" 
d="M699 -21q-172 0 -301.5 73t-201 209t-71.5 324q0 179 56.5 345t162 296.5t253.5 207.5t331 77q172 0 300.5 -73t200.5 -208.5t72 -324.5q0 -179 -56.5 -345t-162.5 -297t-253.5 -207.5t-329.5 -76.5zM708 186q135 0 240.5 61.5t179 165t111.5 231t38 258.5
q0 132 -45.5 221.5t-126 135t-186.5 45.5q-135 0 -240.5 -61.5t-179 -165.5t-112 -231t-38.5 -258t45.5 -220.5t126.5 -135.5t187 -46zM676 -431q-103 0 -164 51.5t-44 150.5q14 80 69.5 137.5t136.5 104.5t175 96.5t187.5 113t173.5 154t134 219.5t66 309h90
q-10 -197 -58 -340t-119 -243.5t-154.5 -169t-166 -115t-152.5 -82t-115 -70t-53 -79.5q-5 -37 12 -56t57 -19q24 0 46 6.5t39 14.5l24 -144q-34 -14 -81.5 -26.5t-102.5 -12.5zM1281 1867l-27 -158h-562l27 158h562z" />
    <glyph glyph-name="uni01ED" unicode="&#x1ed;" horiz-adv-x="1217" 
d="M526 -23q-139 0 -238.5 56.5t-153 159.5t-53.5 240q0 133 42 256t121 220.5t192 154t254 56.5q139 0 239 -56t153 -159.5t53 -242.5q0 -133 -42 -256t-122 -220t-192.5 -153t-252.5 -56zM532 162q96 0 168 45.5t120 120t72 163t24 172.5q0 80 -25 141t-77 96t-132 35
q-94 0 -165.5 -45.5t-120 -120t-73 -163t-24.5 -174.5q0 -118 57 -194t176 -76zM509 -431q-109 0 -168 52t-43 146q13 76 63.5 129.5t123.5 97t154 90t157 106.5t131.5 146.5t75.5 210.5h123q-23 -141 -74.5 -237t-118.5 -160.5t-136.5 -108t-131.5 -78t-103.5 -70.5
t-49.5 -87q-6 -36 11.5 -55.5t59.5 -19.5q23 0 43 6t38 15l24 -144q-33 -14 -79 -26.5t-100 -12.5zM1044 1481l-27 -158h-562l27 158h562z" />
    <glyph glyph-name="uni01EE" unicode="&#x1ee;" horiz-adv-x="1387" 
d="M4 79h229q-10 -95 29.5 -167.5t115.5 -113t174 -40.5q116 0 210 56.5t156 152.5t82 217q23 137 -18 237.5t-133 155.5t-225 54h-127l30 177l546 471v12h-786l34 199h1086l-28 -165l-598 -517l-2 -14q162 -9 273 -89t159 -213.5t19 -304.5q-23 -137 -86.5 -251.5
t-158 -199t-214 -130.5t-254.5 -46q-165 0 -287 65.5t-183 183t-43 270.5zM810 2119l114 -173l170 173h203l-1 -7l-297 -278h-190l-202 278l1 7h202z" />
    <glyph glyph-name="uni01EF" unicode="&#x1ef;" horiz-adv-x="1274" 
d="M499 -407q-148 0 -261.5 53t-172 150t-43.5 227h229q-6 -74 24 -127.5t90 -81.5t143 -28q86 0 160 30.5t124.5 90t64.5 144.5q14 78 -8 141.5t-88 101.5t-187 38h-172l27 167l440 402l2 9h-629l33 194h924l-30 -171l-561 -507v44q167 17 281 -36.5t166 -155.5t30 -232
q-22 -132 -101.5 -234.5t-204 -160.5t-280.5 -58zM656 1547l114 -173l170 173h203l-1 -7l-297 -278h-190l-202 278l1 7h202z" />
    <glyph glyph-name="uni01F0" unicode="&#x1f0;" horiz-adv-x="501" 
d="M232 1104h219l-197 -1189q-17 -107 -69 -181.5t-135.5 -113t-195.5 -38.5h-54l30 187h41q74 0 114 38.5t52 115.5zM273 1547l114 -173l170 173h203l-1 -7l-297 -278h-190l-202 278l1 7h202z" />
    <glyph glyph-name="uni01F1" unicode="&#x1f1;" horiz-adv-x="2764" 
d="M586 0h-404l33 198h355q171 0 294.5 64.5t199.5 187.5t104 297q29 175 -4.5 296.5t-130.5 185t-260 63.5h-384l33 198h370q220 0 367.5 -89.5t209.5 -256t23 -398.5q-39 -234 -143 -400.5t-270.5 -256t-392.5 -89.5zM541 1490l-247 -1490h-227l247 1490h227zM1493 0
l25 149l970 1147h-787l32 194h1068l-25 -151l-972 -1145h788l-32 -194h-1067z" />
    <glyph glyph-name="uni01F2" unicode="&#x1f2;" horiz-adv-x="2580" 
d="M586 0h-404l33 198h355q171 0 294.5 64.5t199.5 187.5t104 297q29 175 -4.5 296.5t-130.5 185t-260 63.5h-384l33 198h370q220 0 367.5 -89.5t209.5 -256t23 -398.5q-39 -234 -143 -400.5t-270.5 -256t-392.5 -89.5zM541 1490l-247 -1490h-227l247 1490h227zM1491 0
l25 150l710 756l1 9h-569l30 189h849l-27 -161l-688 -745l-1 -9h581l-31 -189h-880z" />
    <glyph glyph-name="uni01F3" unicode="&#x1f3;" horiz-adv-x="2190" 
d="M473 -22q-180 0 -286.5 118.5t-106.5 325.5q0 129 37.5 253.5t109.5 225t175 160t235 59.5q99 0 159.5 -32.5t93.5 -78.5t49 -87h10l93 568h219l-247 -1490h-213l29 171h-14q-30 -45 -75 -89.5t-111 -74t-157 -29.5zM526 164q93 0 163.5 45.5t118.5 120t72.5 164
t24.5 177.5q0 122 -57 192.5t-170 70.5q-92 0 -162.5 -44.5t-118 -118t-72 -162t-24.5 -176.5q0 -122 56 -195.5t169 -73.5zM1101 0l25 150l710 756l1 9h-569l30 189h849l-27 -161l-688 -745l-1 -9h581l-31 -189h-880z" />
    <glyph glyph-name="uni01F4" unicode="&#x1f4;" horiz-adv-x="1524" 
d="M704 -21q-178 0 -308 73.5t-200.5 209t-70.5 321.5q0 178 56 344.5t161 298t252.5 208.5t330.5 77q121 0 222.5 -36t175.5 -101.5t114.5 -156.5t39.5 -202h-232q-8 66 -32.5 119.5t-66 91.5t-99 58t-129.5 20q-133 0 -238.5 -61.5t-179 -164.5t-112.5 -230t-39 -258
q0 -195 99.5 -299.5t265.5 -104.5q123 0 225 50.5t170 142.5t88 213l57 -16h-426l31 187h588l-29 -178q-24 -139 -87.5 -250.5t-158.5 -191t-214.5 -122t-253.5 -42.5zM861 1653l190 284h226l-248 -284h-168z" />
    <glyph glyph-name="uni01F5" unicode="&#x1f5;" horiz-adv-x="1249" 
d="M456 -440q-134 0 -226 36t-145 96.5t-67 134.5l194 58q12 -35 38.5 -69t76.5 -57t132 -23q133 0 225.5 66.5t114.5 194.5l33 198l-16 -3q-30 -42 -74.5 -84t-108.5 -70t-156 -28q-117 0 -206.5 50t-139 145t-49.5 230q0 127 38 248.5t110 220t175 157.5t233 59
q74 0 126 -19t87 -49.5t56.5 -65t33.5 -64.5l15 3l29 179h214l-186 -1121q-25 -149 -104.5 -242.5t-197 -137t-255.5 -43.5zM531 193q94 0 164.5 42t117.5 112.5t70 155.5t23 171q0 120 -57 190t-170 70q-90 0 -160.5 -43t-119 -114t-73 -157.5t-24.5 -173.5
q0 -118 58 -185.5t171 -67.5zM626 1267l190 284h226l-248 -284h-168z" />
    <glyph glyph-name="uni01F6" unicode="&#x1f6;" horiz-adv-x="2260" 
d="M1543 -20q-154 0 -260 58.5t-152 168.5t-20 266l29 178h-738l-108 -651h-227l247 1490h227l-106 -643h738l106 643h228l-170 -1029q-24 -146 32.5 -214.5t180.5 -68.5q90 0 158.5 33.5t112.5 100t60 164.5l102 620h225l-105 -637q-26 -157 -104 -264t-195 -161t-261 -54z
" />
    <glyph glyph-name="uni01F7" unicode="&#x1f7;" horiz-adv-x="1356" 
d="M521 1489l-311 -1907h-246l310 1907h247zM126 -183l32 198q171 33 318.5 105.5t262.5 178t189.5 237.5t100.5 284l11 67q17 102 9.5 181t-41 133t-94 82t-149.5 28q-101 0 -178 -34.5t-132.5 -102.5t-91.5 -169l67 396q71 53 160 80.5t204 27.5q182 0 303.5 -73
t172 -212.5t17.5 -340.5l-10 -63q-31 -187 -129.5 -352.5t-251 -299t-348.5 -224t-422 -127.5z" />
    <glyph glyph-name="uni01F8" unicode="&#x1f8;" horiz-adv-x="1530" 
d="M67 0l247 1490h253l416 -890q17 -37 41.5 -95.5t51.5 -133.5t52 -161l-25 -11q6 79 15.5 160.5t19.5 153.5t18 120l142 857h229l-247 -1490h-253l-374 796q-25 56 -52.5 120.5t-61 151.5t-80.5 208l31 10q-14 -117 -25.5 -211.5t-20.5 -164.5t-16 -113l-132 -797h-229z
M864 1632l-151 301h227l91 -301h-167z" />
    <glyph glyph-name="uni01F9" unicode="&#x1f9;" horiz-adv-x="1213" 
d="M375 643l-107 -643h-218l183 1104h209l-42 -271l-30 7q72 146 173 213t229 67q116 0 196.5 -49.5t115 -145t11.5 -234.5l-115 -691h-218l113 679q21 123 -29.5 186.5t-155.5 63.5q-76 0 -142.5 -33.5t-112 -97.5t-60.5 -155zM641 1246l-151 301h227l91 -301h-167z" />
    <glyph glyph-name="Aringacute" unicode="&#x1fa;" horiz-adv-x="1436" 
d="M-48 0l779 1490h278l292 -1490h-236l-152 831q-15 96 -34.5 234t-41.5 329h50q-82 -185 -145 -322.5t-114 -240.5l-423 -831h-253zM307 391l31 190h768l-31 -190h-768zM889 2087l177 189h205l-225 -189h-157zM896 1550q-78 0 -134.5 35t-83 93.5t-14.5 128.5
q11 64 52 116t102.5 82.5t133.5 30.5q78 0 134 -34.5t83 -93t15 -128.5q-11 -65 -52.5 -117.5t-103.5 -82.5t-132 -30zM904 1676q49 0 89.5 33t50.5 82q9 51 -19.5 85.5t-80.5 34.5q-51 0 -91 -34t-49 -83q-8 -49 20.5 -83.5t79.5 -34.5z" />
    <glyph glyph-name="aringacute" unicode="&#x1fb;" horiz-adv-x="1249" 
d="M460 -22q-136 0 -229.5 70t-131.5 198.5t-9 304.5q30 178 111 305t198 195.5t251 68.5q96 0 154 -31t89.5 -75.5t47.5 -84.5h11l29 175h217l-183 -1104h-213l28 171h-15q-31 -42 -78 -87t-115 -75.5t-162 -30.5zM540 164q93 0 165.5 49.5t121.5 136.5t67 202
q20 116 0 201.5t-77 133t-150 47.5q-95 0 -168.5 -49.5t-121 -135t-65.5 -197.5t1 -200t76 -138t151 -50zM730 1701l177 189h205l-225 -189h-157zM737 1164q-78 0 -134.5 35t-83 93.5t-14.5 128.5q11 64 52 116t102.5 82.5t133.5 30.5q78 0 134 -34.5t83 -93t15 -128.5
q-11 -65 -52.5 -117.5t-103.5 -82.5t-132 -30zM745 1290q49 0 89.5 33t50.5 82q9 51 -19.5 85.5t-80.5 34.5q-51 0 -91 -34t-49 -83q-8 -49 20.5 -83.5t79.5 -34.5z" />
    <glyph glyph-name="AEacute" unicode="&#x1fc;" horiz-adv-x="2035" 
d="M-48 0l931 1490h1184l-33 -195h-709l-74 -451h658l-32 -194h-658l-76 -455h717l-32 -195h-944l213 1281h-114l-784 -1281h-247zM361 399l31 189h706l-31 -189h-706zM1409 1653l190 284h226l-248 -284h-168z" />
    <glyph glyph-name="aeacute" unicode="&#x1fd;" horiz-adv-x="1850" 
d="M386 -16q-178 0 -269.5 91t-65.5 244q14 85 64.5 154.5t145 110.5t238.5 41h103t104.5 -0.5t127.5 0.5l-16 -152h-150.5t-147.5 -1q-103 0 -173.5 -37t-82.5 -115q-14 -81 29 -122.5t136 -41.5q95 0 161.5 35t106.5 91.5t51 120.5l63 352q18 98 -28 146t-161 48
q-65 0 -118.5 -21t-89 -58.5t-49.5 -90.5l-212 7q23 101 92 177.5t173 119t232 42.5q127 0 212.5 -44t123 -124.5t18.5 -187.5l-80 -488l-17 -4q-37 -87 -107.5 -153t-173.5 -103t-240 -37zM1211 -24q-143 0 -243 55.5t-150.5 161.5t-44.5 257q3 145 50 268.5t128.5 215
t189 142.5t233.5 51q112 0 197 -38t133 -108t48 -167q0 -96 -53 -161.5t-161 -105.5t-270.5 -57t-383.5 -17l25 149q186 0 308.5 10t193 32.5t100 60t29.5 93.5q0 60 -49.5 94t-133.5 34q-91 0 -166 -42.5t-125.5 -117t-66.5 -172.5q-8 -51 -14 -87t-9 -62t-3 -45
q0 -129 63 -196.5t185 -67.5q103 0 181 45t114 119l205 -29q-61 -147 -195.5 -231t-314.5 -84zM918 1267l190 284h226l-248 -284h-168z" />
    <glyph glyph-name="Oslashacute" unicode="&#x1fe;" horiz-adv-x="1562" 
d="M699 -21q-172 0 -301.5 73t-201 209t-71.5 324q0 179 56.5 345t162 296.5t253.5 207.5t331 77q172 0 300.5 -73t200.5 -208.5t72 -324.5q0 -179 -56.5 -345t-162.5 -297t-253.5 -207.5t-329.5 -76.5zM708 186q135 0 240.5 61.5t179 165t111.5 231t38 258.5
q0 132 -45.5 221.5t-126 135t-186.5 45.5q-135 0 -240.5 -61.5t-179 -165.5t-112 -231t-38.5 -258t45.5 -220.5t126.5 -135.5t187 -46zM203 -54l-121 100l1343 1498l121 -101zM868 1653l190 284h226l-248 -284h-168z" />
    <glyph glyph-name="oslashacute" unicode="&#x1ff;" horiz-adv-x="1217" 
d="M526 -23q-139 0 -238.5 56.5t-153 159.5t-53.5 240q0 133 42 256t121 220.5t192 154t254 56.5q139 0 239 -56t153 -159.5t53 -242.5q0 -133 -42 -256t-122 -220t-192.5 -153t-252.5 -56zM532 162q96 0 168 45.5t120 120t72 163t24 172.5q0 80 -25 141t-77 96t-132 35
q-94 0 -165.5 -45.5t-120 -120t-73 -163t-24.5 -174.5q0 -118 57 -194t176 -76zM82 -46l-91 92l1142 1104l91 -92zM631 1267l190 284h226l-248 -284h-168z" />
    <glyph glyph-name="uni0200" unicode="&#x200;" horiz-adv-x="1436" 
d="M-48 0l779 1490h278l292 -1490h-236l-152 831q-15 96 -34.5 234t-41.5 329h50q-82 -185 -145 -322.5t-114 -240.5l-423 -831h-253zM307 391l31 190h768l-31 -190h-768zM979 1632l-120 301h221l66 -301h-167zM650 1632l-179 301h228l121 -301h-170z" />
    <glyph glyph-name="uni0201" unicode="&#x201;" horiz-adv-x="1249" 
d="M460 -22q-136 0 -229.5 70t-131.5 198.5t-9 304.5q30 178 111 305t198 195.5t251 68.5q96 0 154 -31t89.5 -75.5t47.5 -84.5h11l29 175h217l-183 -1104h-213l28 171h-15q-31 -42 -78 -87t-115 -75.5t-162 -30.5zM540 164q93 0 165.5 49.5t121.5 136.5t67 202
q20 116 0 201.5t-77 133t-150 47.5q-95 0 -168.5 -49.5t-121 -135t-65.5 -197.5t1 -200t76 -138t151 -50zM821 1246l-120 301h221l66 -301h-167zM492 1246l-179 301h228l121 -301h-170z" />
    <glyph glyph-name="uni0202" unicode="&#x202;" horiz-adv-x="1436" 
d="M-48 0l779 1490h278l292 -1490h-236l-152 831q-15 96 -34.5 234t-41.5 329h50q-82 -185 -145 -322.5t-114 -240.5l-423 -831h-253zM307 391l31 190h768l-31 -190h-768zM948 1950q92 0 157 -40t95 -108.5t15 -153.5h-146q12 70 -31 114.5t-113 44.5t-127.5 -44.5
t-70.5 -114.5h-146q15 85 67 153.5t130.5 108.5t169.5 40z" />
    <glyph glyph-name="uni0203" unicode="&#x203;" horiz-adv-x="1249" 
d="M460 -22q-136 0 -229.5 70t-131.5 198.5t-9 304.5q30 178 111 305t198 195.5t251 68.5q96 0 154 -31t89.5 -75.5t47.5 -84.5h11l29 175h217l-183 -1104h-213l28 171h-15q-31 -42 -78 -87t-115 -75.5t-162 -30.5zM540 164q93 0 165.5 49.5t121.5 136.5t67 202
q20 116 0 201.5t-77 133t-150 47.5q-95 0 -168.5 -49.5t-121 -135t-65.5 -197.5t1 -200t76 -138t151 -50zM789 1564q92 0 157 -40t95 -108.5t15 -153.5h-146q12 70 -31 114.5t-113 44.5t-127.5 -44.5t-70.5 -114.5h-146q15 85 67 153.5t130.5 108.5t169.5 40z" />
    <glyph glyph-name="uni0204" unicode="&#x204;" horiz-adv-x="1231" 
d="M67 0l247 1490h952l-33 -195h-725l-73 -444h673l-32 -194h-674l-76 -462h730l-32 -195h-957zM900 1632l-120 301h221l66 -301h-167zM571 1632l-179 301h228l121 -301h-170z" />
    <glyph glyph-name="uni0205" unicode="&#x205;" horiz-adv-x="1169" 
d="M530 -24q-140 0 -241 53t-155 155t-53 248q1 145 47.5 271t130.5 221t195.5 149t242.5 54q112 0 196.5 -37.5t132 -107t47.5 -166.5q0 -98 -53 -164.5t-160.5 -106.5t-271 -57.5t-384.5 -17.5l27 153q186 0 308 9.5t192.5 31.5t100 59t29.5 91q0 61 -50 96.5t-136 35.5
q-106 0 -179.5 -50t-118 -129.5t-65 -168.5t-20.5 -169q-1 -75 22.5 -137.5t79 -99t150.5 -36.5q103 0 180 44t114 119l202 -34q-59 -141 -194.5 -225t-315.5 -84zM806 1246l-120 301h221l66 -301h-167zM477 1246l-179 301h228l121 -301h-170z" />
    <glyph glyph-name="uni0206" unicode="&#x206;" horiz-adv-x="1231" 
d="M67 0l247 1490h952l-33 -195h-725l-73 -444h673l-32 -194h-674l-76 -462h730l-32 -195h-957zM869 1950q92 0 157 -40t95 -108.5t15 -153.5h-146q12 70 -31 114.5t-113 44.5t-127.5 -44.5t-70.5 -114.5h-146q15 85 67 153.5t130.5 108.5t169.5 40z" />
    <glyph glyph-name="uni0207" unicode="&#x207;" horiz-adv-x="1169" 
d="M530 -24q-140 0 -241 53t-155 155t-53 248q1 145 47.5 271t130.5 221t195.5 149t242.5 54q112 0 196.5 -37.5t132 -107t47.5 -166.5q0 -98 -53 -164.5t-160.5 -106.5t-271 -57.5t-384.5 -17.5l27 153q186 0 308 9.5t192.5 31.5t100 59t29.5 91q0 61 -50 96.5t-136 35.5
q-106 0 -179.5 -50t-118 -129.5t-65 -168.5t-20.5 -169q-1 -75 22.5 -137.5t79 -99t150.5 -36.5q103 0 180 44t114 119l202 -34q-59 -141 -194.5 -225t-315.5 -84zM774 1564q92 0 157 -40t95 -108.5t15 -153.5h-146q12 70 -31 114.5t-113 44.5t-127.5 -44.5t-70.5 -114.5
h-146q15 85 67 153.5t130.5 108.5t169.5 40z" />
    <glyph glyph-name="uni0208" unicode="&#x208;" horiz-adv-x="544" 
d="M541 1490l-247 -1490h-227l247 1490h227zM534 1632l-120 301h221l66 -301h-167zM205 1632l-179 301h228l121 -301h-170z" />
    <glyph glyph-name="uni0209" unicode="&#x209;" horiz-adv-x="502" 
d="M51 0l182 1104h218l-182 -1104h-218zM450 1246l-120 301h221l66 -301h-167zM121 1246l-179 301h228l121 -301h-170z" />
    <glyph glyph-name="uni020A" unicode="&#x20a;" horiz-adv-x="544" 
d="M541 1490l-247 -1490h-227l247 1490h227zM503 1950q92 0 157 -40t95 -108.5t15 -153.5h-146q12 70 -31 114.5t-113 44.5t-127.5 -44.5t-70.5 -114.5h-146q15 85 67 153.5t130.5 108.5t169.5 40z" />
    <glyph glyph-name="uni020B" unicode="&#x20b;" horiz-adv-x="502" 
d="M51 0l182 1104h218l-182 -1104h-218zM418 1564q92 0 157 -40t95 -108.5t15 -153.5h-146q12 70 -31 114.5t-113 44.5t-127.5 -44.5t-70.5 -114.5h-146q15 85 67 153.5t130.5 108.5t169.5 40z" />
    <glyph glyph-name="uni020C" unicode="&#x20c;" horiz-adv-x="1562" 
d="M699 -21q-172 0 -301.5 73t-201 209t-71.5 324q0 179 56.5 345t162 296.5t253.5 207.5t331 77q172 0 300.5 -73t200.5 -208.5t72 -324.5q0 -179 -56.5 -345t-162.5 -297t-253.5 -207.5t-329.5 -76.5zM708 186q135 0 240.5 61.5t179 165t111.5 231t38 258.5
q0 132 -45.5 221.5t-126 135t-186.5 45.5q-135 0 -240.5 -61.5t-179 -165.5t-112 -231t-38.5 -258t45.5 -220.5t126.5 -135.5t187 -46zM1043 1632l-120 301h221l66 -301h-167zM714 1632l-179 301h228l121 -301h-170z" />
    <glyph glyph-name="uni020D" unicode="&#x20d;" horiz-adv-x="1217" 
d="M526 -23q-139 0 -238.5 56.5t-153 159.5t-53.5 240q0 133 42 256t121 220.5t192 154t254 56.5q139 0 239 -56t153 -159.5t53 -242.5q0 -133 -42 -256t-122 -220t-192.5 -153t-252.5 -56zM532 162q96 0 168 45.5t120 120t72 163t24 172.5q0 80 -25 141t-77 96t-132 35
q-94 0 -165.5 -45.5t-120 -120t-73 -163t-24.5 -174.5q0 -118 57 -194t176 -76zM806 1246l-120 301h221l66 -301h-167zM477 1246l-179 301h228l121 -301h-170z" />
    <glyph glyph-name="uni020E" unicode="&#x20e;" horiz-adv-x="1562" 
d="M699 -21q-172 0 -301.5 73t-201 209t-71.5 324q0 179 56.5 345t162 296.5t253.5 207.5t331 77q172 0 300.5 -73t200.5 -208.5t72 -324.5q0 -179 -56.5 -345t-162.5 -297t-253.5 -207.5t-329.5 -76.5zM708 186q135 0 240.5 61.5t179 165t111.5 231t38 258.5
q0 132 -45.5 221.5t-126 135t-186.5 45.5q-135 0 -240.5 -61.5t-179 -165.5t-112 -231t-38.5 -258t45.5 -220.5t126.5 -135.5t187 -46zM1012 1950q92 0 157 -40t95 -108.5t15 -153.5h-146q12 70 -31 114.5t-113 44.5t-127.5 -44.5t-70.5 -114.5h-146q15 85 67 153.5
t130.5 108.5t169.5 40z" />
    <glyph glyph-name="uni020F" unicode="&#x20f;" horiz-adv-x="1217" 
d="M526 -23q-139 0 -238.5 56.5t-153 159.5t-53.5 240q0 133 42 256t121 220.5t192 154t254 56.5q139 0 239 -56t153 -159.5t53 -242.5q0 -133 -42 -256t-122 -220t-192.5 -153t-252.5 -56zM532 162q96 0 168 45.5t120 120t72 163t24 172.5q0 80 -25 141t-77 96t-132 35
q-94 0 -165.5 -45.5t-120 -120t-73 -163t-24.5 -174.5q0 -118 57 -194t176 -76zM775 1564q92 0 157 -40t95 -108.5t15 -153.5h-146q12 70 -31 114.5t-113 44.5t-127.5 -44.5t-70.5 -114.5h-146q15 85 67 153.5t130.5 108.5t169.5 40z" />
    <glyph glyph-name="uni0210" unicode="&#x210;" horiz-adv-x="1323" 
d="M67 0l247 1490h540q171 0 276.5 -59.5t146 -164.5t18.5 -243q-23 -138 -99.5 -242t-202.5 -161t-296 -57h-407l32 194h390q107 0 181 32t117 92.5t56 142.5q22 130 -43.5 200.5t-222.5 70.5h-292l-214 -1295h-227zM920 0l-247 673h246l255 -673h-254zM914 1632l-120 301
h221l66 -301h-167zM585 1632l-179 301h228l121 -301h-170z" />
    <glyph glyph-name="uni0211" unicode="&#x211;" horiz-adv-x="771" 
d="M51 0l182 1104h211l-29 -177h10q45 90 127.5 141t181.5 51q21 0 46.5 -1.5t41.5 -3.5l-34 -207q-15 3 -47 7t-66 4q-72 0 -135 -31t-105.5 -87.5t-55.5 -132.5l-110 -667h-218zM624 1246l-120 301h221l66 -301h-167zM295 1246l-179 301h228l121 -301h-170z" />
    <glyph glyph-name="uni0212" unicode="&#x212;" horiz-adv-x="1323" 
d="M67 0l247 1490h540q171 0 276.5 -59.5t146 -164.5t18.5 -243q-23 -138 -99.5 -242t-202.5 -161t-296 -57h-407l32 194h390q107 0 181 32t117 92.5t56 142.5q22 130 -43.5 200.5t-222.5 70.5h-292l-214 -1295h-227zM920 0l-247 673h246l255 -673h-254zM883 1950
q92 0 157 -40t95 -108.5t15 -153.5h-146q12 70 -31 114.5t-113 44.5t-127.5 -44.5t-70.5 -114.5h-146q15 85 67 153.5t130.5 108.5t169.5 40z" />
    <glyph glyph-name="uni0213" unicode="&#x213;" horiz-adv-x="771" 
d="M51 0l182 1104h211l-29 -177h10q45 90 127.5 141t181.5 51q21 0 46.5 -1.5t41.5 -3.5l-34 -207q-15 3 -47 7t-66 4q-72 0 -135 -31t-105.5 -87.5t-55.5 -132.5l-110 -667h-218zM593 1564q92 0 157 -40t95 -108.5t15 -153.5h-146q12 70 -31 114.5t-113 44.5t-127.5 -44.5
t-70.5 -114.5h-146q15 85 67 153.5t130.5 108.5t169.5 40z" />
    <glyph glyph-name="uni0214" unicode="&#x214;" horiz-adv-x="1498" 
d="M667 -23q-182 0 -307 70.5t-179.5 193.5t-29.5 279l161 970h227l-160 -967q-17 -102 13.5 -178.5t103 -119t180.5 -42.5q115 0 207.5 46.5t152.5 126.5t76 182l158 952h227l-163 -985q-26 -157 -117.5 -276t-232.5 -185.5t-317 -66.5zM1011 1632l-120 301h221l66 -301
h-167zM682 1632l-179 301h228l121 -301h-170z" />
    <glyph glyph-name="uni0215" unicode="&#x215;" horiz-adv-x="1214" 
d="M430 -15q-112 0 -190.5 47t-111.5 141t-10 233l115 698h218l-110 -671q-20 -122 30.5 -190t161.5 -68q73 0 136.5 31.5t108.5 94t60 153.5l107 650h219l-183 -1104h-210l44 271h28q-74 -149 -179 -217.5t-234 -68.5zM805 1246l-120 301h221l66 -301h-167zM476 1246
l-179 301h228l121 -301h-170z" />
    <glyph glyph-name="uni0216" unicode="&#x216;" horiz-adv-x="1498" 
d="M667 -23q-182 0 -307 70.5t-179.5 193.5t-29.5 279l161 970h227l-160 -967q-17 -102 13.5 -178.5t103 -119t180.5 -42.5q115 0 207.5 46.5t152.5 126.5t76 182l158 952h227l-163 -985q-26 -157 -117.5 -276t-232.5 -185.5t-317 -66.5zM980 1950q92 0 157 -40t95 -108.5
t15 -153.5h-146q12 70 -31 114.5t-113 44.5t-127.5 -44.5t-70.5 -114.5h-146q15 85 67 153.5t130.5 108.5t169.5 40z" />
    <glyph glyph-name="uni0217" unicode="&#x217;" horiz-adv-x="1214" 
d="M430 -15q-112 0 -190.5 47t-111.5 141t-10 233l115 698h218l-110 -671q-20 -122 30.5 -190t161.5 -68q73 0 136.5 31.5t108.5 94t60 153.5l107 650h219l-183 -1104h-210l44 271h28q-74 -149 -179 -217.5t-234 -68.5zM774 1564q92 0 157 -40t95 -108.5t15 -153.5h-146
q12 70 -31 114.5t-113 44.5t-127.5 -44.5t-70.5 -114.5h-146q15 85 67 153.5t130.5 108.5t169.5 40z" />
    <glyph glyph-name="uni0218" unicode="&#x218;" horiz-adv-x="1313" 
d="M582 -24q-169 0 -288.5 54.5t-176 156.5t-39.5 242h227q-8 -84 27 -141t104 -86t160 -29q96 0 176 30.5t131.5 84.5t63.5 127q11 63 -17 104t-86 69.5t-141 51.5l-166 45q-176 48 -267.5 143t-65.5 254q21 129 102 225.5t205.5 150t276.5 53.5q154 0 265.5 -54
t166.5 -150t38 -221h-220q7 108 -66 168t-203 60q-91 0 -163 -28.5t-117.5 -79t-56.5 -114.5q-11 -66 21 -109t90 -69t123 -44l142 -38q76 -20 147.5 -52t126 -81t80 -120t9.5 -168q-21 -128 -99.5 -226t-207 -153.5t-302.5 -55.5zM295 -488l146 370h215l-198 -370h-163z
" />
    <glyph glyph-name="uni0219" unicode="&#x219;" horiz-adv-x="1080" 
d="M457 -24q-119 0 -208 34.5t-140.5 100.5t-58.5 160q-1 6 -1 12.5v13.5l209 22q5 -87 56.5 -126.5t147.5 -39.5q71 0 130 21.5t96 59t42 84.5t-26 77.5t-103 47.5l-178 42q-142 33 -208 109t-54 191q11 102 76 177.5t167.5 116.5t224.5 41q172 0 266.5 -71.5t111.5 -188.5
q2 -9 3.5 -19t1.5 -20l-199 -23q-6 65 -49 107.5t-137 42.5q-63 0 -117.5 -21t-89.5 -57.5t-40 -83.5q-7 -49 26 -79t114 -49l173 -40q143 -33 208 -106.5t53 -186.5q-8 -79 -49.5 -143t-109 -110t-154 -71t-184.5 -25zM178 -488l146 370h215l-198 -370h-163z" />
    <glyph glyph-name="uni021A.1" unicode="&#x21a;" horiz-adv-x="1323" 
d="M205 1295l33 195h1159l-33 -195h-465l-214 -1295h-227l214 1295h-467zM299 -488l146 370h215l-198 -370h-163z" />
    <glyph glyph-name="uni021B" unicode="&#x21b;" horiz-adv-x="694" 
d="M719 1104l-30 -178h-607l29 178h608zM325 1375h218l-178 -1078q-12 -67 11.5 -96t87.5 -29q18 0 46.5 3.5t49.5 6.5l1 -176q-33 -8 -73 -12.5t-78 -4.5q-153 0 -221.5 75t-45.5 213zM31 -488l146 370h215l-198 -370h-163z" />
    <glyph glyph-name="uni021C" unicode="&#x21c;" horiz-adv-x="1306" 
d="M185 332l30 179q187 54 327.5 109t237.5 118.5t152 140t71 173.5q21 126 -40.5 193t-194.5 67q-85 0 -150.5 -26.5t-106 -73.5t-50.5 -110h-245q20 124 101 215.5t206 142t278 50.5q152 0 262 -49.5t161.5 -146t25.5 -240.5q-23 -133 -108 -248t-223.5 -209t-324 -165.5
t-409.5 -119.5zM789 618l112 138q97 -21 159.5 -75t86.5 -142t2 -212q-29 -171 -121.5 -298t-236 -217t-330 -150t-404.5 -98l33 195q176 34 317.5 81.5t245.5 116t167.5 164t85.5 224.5q21 124 -6.5 188t-110.5 85z" />
    <glyph glyph-name="uni021D" unicode="&#x21d;" horiz-adv-x="1118" 
d="M157 191l30 173q179 45 304.5 106t196.5 137.5t85 167.5q14 83 -26.5 128t-131.5 45q-60 0 -107.5 -20.5t-77 -59t-38.5 -92.5h-236q19 109 82 189t166 123.5t239 43.5q193 0 294.5 -91t75.5 -251q-23 -138 -133 -255t-294 -205t-429 -139zM603 435l113 110
q129 -32 185.5 -125t29.5 -244q-43 -247 -263 -399.5t-614 -212.5l30 180q205 51 333 113t194.5 144.5t85.5 193.5q15 93 -9.5 156.5t-84.5 83.5z" />
    <glyph glyph-name="uni021E" unicode="&#x21e;" horiz-adv-x="1510" 
d="M67 0l247 1490h227l-105 -630h739l104 630h227l-247 -1490h-227l111 664h-739l-110 -664h-227zM840 1933l114 -173l170 173h203l-1 -7l-297 -278h-190l-202 278l1 7h202z" />
    <glyph glyph-name="uni021F" unicode="&#x21f;" horiz-adv-x="1213" 
d="M375 650l-107 -650h-218l247 1490h216l-109 -657h-34q50 100 110.5 163t134 93.5t160.5 30.5q112 0 193 -48t116.5 -141.5t11.5 -231.5l-116 -699h-219l112 672q21 123 -31.5 190t-161.5 67q-73 0 -137 -32t-108 -93.5t-60 -153.5zM335 1933l114 -173l170 173h203l-1 -7
l-297 -278h-190l-202 278l1 7h202z" />
    <glyph glyph-name="uni0220" unicode="&#x220;" horiz-adv-x="1307" 
d="M1031 -416h-240l239 1449q24 144 -41 214t-219 70q-112 0 -217.5 -41t-197.5 -115l34 201q53 39 121.5 73t148.5 54.5t167 20.5q139 0 248.5 -54t164.5 -160.5t29 -262.5zM509 1490l-248 -1490h-236l248 1490h236z" />
    <glyph glyph-name="uni0221" unicode="&#x221;" horiz-adv-x="1567" 
d="M1070 -418q-123 0 -191 47t-89.5 123t-7.5 163l52 318h219l-59 -353q-11 -67 21.5 -101.5t83.5 -34.5q47 0 82.5 29t42.5 75q7 40 -12.5 69t-66.5 35q-33 5 -65.5 -2.5t-67 -26.5t-74.5 -50l-327 -265l-100 137l290 233q81 66 177.5 104.5t186.5 38.5q140 0 213.5 -77
t54.5 -199q-20 -119 -116 -191t-247 -72zM473 -22q-180 0 -286.5 118.5t-106.5 325.5q0 129 37.5 253.5t109.5 225t175 160t235 59.5q99 0 159.5 -32.5t93.5 -78.5t49 -87h10l93 568h219l-247 -1490h-213l29 171h-14q-30 -45 -75 -89.5t-111 -74t-157 -29.5zM526 164
q93 0 163.5 45.5t118.5 120t72.5 164t24.5 177.5q0 122 -57 192.5t-170 70.5q-92 0 -162.5 -44.5t-118 -118t-72 -162t-24.5 -176.5q0 -122 56 -195.5t169 -73.5z" />
    <glyph glyph-name="uni0222" unicode="&#x222;" horiz-adv-x="1305" 
d="M698 897h23q159 0 276 -50t174 -149t34 -246q-24 -155 -114.5 -260t-225.5 -158.5t-297 -53.5h-23q-159 0 -276.5 52t-174 155.5t-30.5 257.5q24 149 113.5 249.5t224.5 151.5t296 51zM691 716h-23q-144 0 -240 -68.5t-119 -204.5q-21 -133 52 -198t217 -65h23
q142 0 238.5 65t118.5 203q21 134 -53 201t-214 67zM692 918h37q89 0 161 14.5t119.5 59.5t61.5 134q13 83 -19.5 129.5t-113.5 66.5l31 188q117 -4 202.5 -47.5t125.5 -126.5t20 -209q-23 -146 -111.5 -231.5t-220 -122t-286.5 -36.5h-37q-116 0 -212.5 20t-164 65.5
t-97.5 120t-12 184.5q21 126 89 209.5t168 126.5t217 47l-31 -188q-86 -19 -134.5 -65.5t-62.5 -132.5q-15 -89 18 -133t99.5 -58.5t152.5 -14.5z" />
    <glyph glyph-name="uni0223" unicode="&#x223;" horiz-adv-x="1304" 
d="M695 888h23q158 0 275 -48t173.5 -147t31.5 -250q-26 -154 -116 -257t-223 -154.5t-291 -51.5h-23q-156 0 -273.5 51t-174 153.5t-30.5 258.5q26 152 115.5 251t222.5 147t290 47zM690 715h-22q-146 0 -244 -70t-120 -204q-21 -134 53.5 -203t218.5 -69h23
q143 0 241.5 69.5t120.5 204.5q21 132 -52.5 201.5t-218.5 70.5zM728 904q89 0 162.5 21t122.5 73t64 144q16 97 -18 151t-113 86l30 177q115 -2 199 -50.5t123 -139.5t16 -224q-26 -150 -115 -240.5t-220 -130t-281 -39.5h-37q-150 0 -267.5 40t-177 130.5t-34.5 240.5
q22 132 91 223t169 139t216 51l-31 -177q-83 -31 -136.5 -84.5t-69.5 -152.5q-16 -93 17.5 -145t100.5 -72.5t152 -20.5h37z" />
    <glyph glyph-name="uni0224" unicode="&#x224;" horiz-adv-x="1299" 
d="M589 -418l31 184q18 -2 39.5 -3t36.5 -1q73 0 106 22.5t42 74.5l23 141h228l-26 -152q-23 -137 -115.5 -206t-243.5 -69q-37 0 -69 2.5t-52 6.5zM28 0l25 149l970 1147h-787l32 194h1068l-25 -151l-972 -1145h788l-32 -194h-1067z" />
    <glyph glyph-name="uni0225" unicode="&#x225;" horiz-adv-x="1115" 
d="M736 -238l11 68q12 72 -8 121t-103 49h-610l25 150l718 756l1 9h-577l30 189h849l-27 -161l-696 -745l-1 -9h335q148 0 216 -89t45 -235l-16 -103h-192z" />
    <glyph glyph-name="uni0226" unicode="&#x226;" horiz-adv-x="1436" 
d="M-48 0l779 1490h278l292 -1490h-236l-152 831q-15 96 -34.5 234t-41.5 329h50q-82 -185 -145 -322.5t-114 -240.5l-423 -831h-253zM307 391l31 190h768l-31 -190h-768zM901 1663q-57 0 -90.5 38.5t-24.5 92.5q9 55 55.5 92.5t103.5 37.5t90.5 -37.5t24.5 -92.5
q-8 -54 -55 -92.5t-104 -38.5z" />
    <glyph glyph-name="uni0227" unicode="&#x227;" horiz-adv-x="1249" 
d="M460 -22q-136 0 -229.5 70t-131.5 198.5t-9 304.5q30 178 111 305t198 195.5t251 68.5q96 0 154 -31t89.5 -75.5t47.5 -84.5h11l29 175h217l-183 -1104h-213l28 171h-15q-31 -42 -78 -87t-115 -75.5t-162 -30.5zM540 164q93 0 165.5 49.5t121.5 136.5t67 202
q20 116 0 201.5t-77 133t-150 47.5q-95 0 -168.5 -49.5t-121 -135t-65.5 -197.5t1 -200t76 -138t151 -50zM742 1277q-57 0 -90.5 38.5t-24.5 92.5q9 55 55.5 92.5t103.5 37.5t90.5 -37.5t24.5 -92.5q-8 -54 -55 -92.5t-104 -38.5z" />
    <glyph glyph-name="uni0228" unicode="&#x228;" horiz-adv-x="1231" 
d="M67 0l247 1490h952l-33 -195h-725l-73 -444h673l-32 -194h-674l-76 -462h730l-32 -195h-957zM363 -418l18 110h120q51 0 75.5 14.5t29.5 49.5q6 34 -12.5 49t-71.5 15h-84l70 227h101l-8 -47l-15 -86q93 -2 135 -41.5t29 -117.5q-14 -90 -77.5 -131.5t-184.5 -41.5h-125z
" />
    <glyph glyph-name="uni0229" unicode="&#x229;" horiz-adv-x="1169" 
d="M530 -24q-140 0 -241 53t-155 155t-53 248q1 145 47.5 271t130.5 221t195.5 149t242.5 54q112 0 196.5 -37.5t132 -107t47.5 -166.5q0 -98 -53 -164.5t-160.5 -106.5t-271 -57.5t-384.5 -17.5l27 153q186 0 308 9.5t192.5 31.5t100 59t29.5 91q0 61 -50 96.5t-136 35.5
q-106 0 -179.5 -50t-118 -129.5t-65 -168.5t-20.5 -169q-1 -75 22.5 -137.5t79 -99t150.5 -36.5q103 0 180 44t114 119l202 -34q-59 -141 -194.5 -225t-315.5 -84zM332 -418l18 110h120q51 0 75.5 14.5t29.5 49.5q6 34 -12.5 49t-71.5 15h-84l70 227h101l-8 -47l-15 -86
q93 -2 135 -41.5t29 -117.5q-14 -90 -77.5 -131.5t-184.5 -41.5h-125z" />
    <glyph glyph-name="uni022A" unicode="&#x22a;" horiz-adv-x="1562" 
d="M699 -21q-172 0 -301.5 73t-201 209t-71.5 324q0 179 56.5 345t162 296.5t253.5 207.5t331 77q172 0 300.5 -73t200.5 -208.5t72 -324.5q0 -179 -56.5 -345t-162.5 -297t-253.5 -207.5t-329.5 -76.5zM708 186q135 0 240.5 61.5t179 165t111.5 231t38 258.5
q0 132 -45.5 221.5t-126 135t-186.5 45.5q-135 0 -240.5 -61.5t-179 -165.5t-112 -231t-38.5 -258t45.5 -220.5t126.5 -135.5t187 -46zM1177 1635q-54 0 -85.5 37.5t-22.5 90.5q8 54 52.5 91t98.5 37t85 -37t22 -91q-8 -53 -52 -90.5t-98 -37.5zM749 1635q-54 0 -85.5 37.5
t-22.5 90.5q8 54 52.5 91t98.5 37q53 0 84.5 -37t22.5 -91q-8 -53 -52 -90.5t-98 -37.5zM1358 2162l-26 -139h-562l27 139h561z" />
    <glyph glyph-name="uni022B" unicode="&#x22b;" horiz-adv-x="1217" 
d="M526 -23q-139 0 -238.5 56.5t-153 159.5t-53.5 240q0 133 42 256t121 220.5t192 154t254 56.5q139 0 239 -56t153 -159.5t53 -242.5q0 -133 -42 -256t-122 -220t-192.5 -153t-252.5 -56zM532 162q96 0 168 45.5t120 120t72 163t24 172.5q0 80 -25 141t-77 96t-132 35
q-94 0 -165.5 -45.5t-120 -120t-73 -163t-24.5 -174.5q0 -118 57 -194t176 -76zM939 1249q-54 0 -85.5 37.5t-22.5 90.5q8 54 52.5 91t98.5 37t85 -37t22 -91q-8 -53 -52 -90.5t-98 -37.5zM511 1249q-54 0 -85.5 37.5t-22.5 90.5q8 54 52.5 91t98.5 37q53 0 84.5 -37
t22.5 -91q-8 -53 -52 -90.5t-98 -37.5zM1120 1776l-26 -139h-562l27 139h561z" />
    <glyph glyph-name="uni022C" unicode="&#x22c;" horiz-adv-x="1562" 
d="M699 -21q-172 0 -301.5 73t-201 209t-71.5 324q0 179 56.5 345t162 296.5t253.5 207.5t331 77q172 0 300.5 -73t200.5 -208.5t72 -324.5q0 -179 -56.5 -345t-162.5 -297t-253.5 -207.5t-329.5 -76.5zM708 186q135 0 240.5 61.5t179 165t111.5 231t38 258.5
q0 132 -45.5 221.5t-126 135t-186.5 45.5q-135 0 -240.5 -61.5t-179 -165.5t-112 -231t-38.5 -258t45.5 -220.5t126.5 -135.5t187 -46zM1101 1647q-40 0 -74 13t-62.5 31t-52 31.5t-43.5 13.5q-29 0 -47 -26t-25 -59h-138q20 103 75.5 164.5t138.5 61.5q42 0 74 -13.5
t58.5 -31.5t50 -31.5t48.5 -13.5q29 0 45.5 21t28.5 65h135q-20 -107 -77.5 -166.5t-134.5 -59.5zM1359 2162l-27 -139h-562l27 139h562z" />
    <glyph glyph-name="uni022D" unicode="&#x22d;" horiz-adv-x="1217" 
d="M526 -23q-139 0 -238.5 56.5t-153 159.5t-53.5 240q0 133 42 256t121 220.5t192 154t254 56.5q139 0 239 -56t153 -159.5t53 -242.5q0 -133 -42 -256t-122 -220t-192.5 -153t-252.5 -56zM532 162q96 0 168 45.5t120 120t72 163t24 172.5q0 80 -25 141t-77 96t-132 35
q-94 0 -165.5 -45.5t-120 -120t-73 -163t-24.5 -174.5q0 -118 57 -194t176 -76zM863 1261q-40 0 -74 13t-62.5 31t-52 31.5t-43.5 13.5q-29 0 -47 -26t-25 -59h-138q20 103 75.5 164.5t138.5 61.5q42 0 74 -13.5t58.5 -31.5t50 -31.5t48.5 -13.5q29 0 45.5 21t28.5 65h135
q-20 -107 -77.5 -166.5t-134.5 -59.5zM1121 1776l-27 -139h-562l27 139h562z" />
    <glyph glyph-name="uni022E" unicode="&#x22e;" horiz-adv-x="1562" 
d="M699 -21q-172 0 -301.5 73t-201 209t-71.5 324q0 179 56.5 345t162 296.5t253.5 207.5t331 77q172 0 300.5 -73t200.5 -208.5t72 -324.5q0 -179 -56.5 -345t-162.5 -297t-253.5 -207.5t-329.5 -76.5zM708 186q135 0 240.5 61.5t179 165t111.5 231t38 258.5
q0 132 -45.5 221.5t-126 135t-186.5 45.5q-135 0 -240.5 -61.5t-179 -165.5t-112 -231t-38.5 -258t45.5 -220.5t126.5 -135.5t187 -46zM965 1663q-57 0 -90.5 38.5t-24.5 92.5q9 55 55.5 92.5t103.5 37.5t90.5 -37.5t24.5 -92.5q-8 -54 -55 -92.5t-104 -38.5z" />
    <glyph glyph-name="uni022F" unicode="&#x22f;" horiz-adv-x="1217" 
d="M526 -23q-139 0 -238.5 56.5t-153 159.5t-53.5 240q0 133 42 256t121 220.5t192 154t254 56.5q139 0 239 -56t153 -159.5t53 -242.5q0 -133 -42 -256t-122 -220t-192.5 -153t-252.5 -56zM532 162q96 0 168 45.5t120 120t72 163t24 172.5q0 80 -25 141t-77 96t-132 35
q-94 0 -165.5 -45.5t-120 -120t-73 -163t-24.5 -174.5q0 -118 57 -194t176 -76zM728 1277q-57 0 -90.5 38.5t-24.5 92.5q9 55 55.5 92.5t103.5 37.5t90.5 -37.5t24.5 -92.5q-8 -54 -55 -92.5t-104 -38.5z" />
    <glyph glyph-name="uni0230" unicode="&#x230;" horiz-adv-x="1562" 
d="M699 -21q-172 0 -301.5 73t-201 209t-71.5 324q0 179 56.5 345t162 296.5t253.5 207.5t331 77q172 0 300.5 -73t200.5 -208.5t72 -324.5q0 -179 -56.5 -345t-162.5 -297t-253.5 -207.5t-329.5 -76.5zM708 186q135 0 240.5 61.5t179 165t111.5 231t38 258.5
q0 132 -45.5 221.5t-126 135t-186.5 45.5q-135 0 -240.5 -61.5t-179 -165.5t-112 -231t-38.5 -258t45.5 -220.5t126.5 -135.5t187 -46zM963 1633q-57 0 -90.5 38t-24.5 92q8 55 55 93t103 38q58 0 91.5 -38t24.5 -93q-8 -54 -55 -92t-104 -38zM1358 2162l-26 -139h-562
l27 139h561z" />
    <glyph glyph-name="uni0231" unicode="&#x231;" horiz-adv-x="1217" 
d="M526 -23q-139 0 -238.5 56.5t-153 159.5t-53.5 240q0 133 42 256t121 220.5t192 154t254 56.5q139 0 239 -56t153 -159.5t53 -242.5q0 -133 -42 -256t-122 -220t-192.5 -153t-252.5 -56zM532 162q96 0 168 45.5t120 120t72 163t24 172.5q0 80 -25 141t-77 96t-132 35
q-94 0 -165.5 -45.5t-120 -120t-73 -163t-24.5 -174.5q0 -118 57 -194t176 -76zM725 1247q-57 0 -90.5 38t-24.5 92q8 55 55 93t103 38q58 0 91.5 -38t24.5 -93q-8 -54 -55 -92t-104 -38zM1120 1776l-26 -139h-562l27 139h561z" />
    <glyph glyph-name="uni0232" unicode="&#x232;" horiz-adv-x="1408" 
d="M501 0l98 594l-401 896h250l202 -474q33 -76 57.5 -147t46.5 -169h-73q54 99 102.5 171t103.5 145l357 474h276l-695 -896l-98 -594h-226zM1204 1867l-27 -158h-562l27 158h562z" />
    <glyph glyph-name="uni0233" unicode="&#x233;" horiz-adv-x="1156" 
d="M-25 -406l71 180l44 -5q51 -11 93.5 -3t78 41.5t64.5 98.5l45 92l-238 1106h226l116 -623q18 -100 27 -199.5t21 -198.5h-66q45 99 88 199t95 199l324 623h242l-694 -1266q-47 -85 -105.5 -143.5t-129.5 -88.5t-157 -30q-45 0 -83.5 6t-61.5 12zM1011 1481l-27 -158h-562
l27 158h562z" />
    <glyph glyph-name="uni0234" unicode="&#x234;" horiz-adv-x="821" 
d="M323 -418q-123 0 -191 47t-89 123t-8 163l53 318h218l-58 -353q-11 -67 21.5 -101.5t82.5 -34.5q48 0 83 29t43 75q6 40 -13.5 69t-66.5 35q-32 5 -64.5 -2.5t-67.5 -26.5t-75 -50l-327 -265l-99 137l289 233q81 66 177.5 104.5t186.5 38.5q141 0 214.5 -77t53.5 -199
q-19 -119 -115.5 -191t-247.5 -72zM515 1490l-247 -1490h-218l247 1490h218z" />
    <glyph glyph-name="uni0235" unicode="&#x235;" horiz-adv-x="1533" 
d="M1036 -418q-124 0 -191.5 47t-89 123t-7.5 163l52 318h219l-59 -353q-11 -67 21.5 -101.5t83.5 -34.5q47 0 82 29t43 75q7 40 -12.5 69t-66.5 35q-33 5 -65.5 -2.5t-67 -26.5t-75.5 -50l-326 -265l-100 137l289 233q82 66 178.5 104.5t186.5 38.5q140 0 213.5 -77
t54.5 -199q-20 -119 -116 -191t-247 -72zM375 643l-107 -643h-218l183 1104h209l-42 -271l-30 7q72 146 173 213t229 67q116 0 196.5 -49.5t115 -145t11.5 -234.5l-115 -691h-218l113 679q21 123 -29.5 186.5t-155.5 63.5q-76 0 -142.5 -33.5t-112 -97.5t-60.5 -155z" />
    <glyph glyph-name="uni0236" unicode="&#x236;" horiz-adv-x="872" 
d="M428 -20q-123 0 -190.5 47t-89 123t-7.5 163l52 319h219l-59 -354q-11 -67 21.5 -101.5t83.5 -34.5q47 0 82 29.5t43 74.5q7 40 -13 69t-67 35q-32 5 -64.5 -2.5t-67.5 -26.5t-75 -49l-327 -266l-99 137l289 233q81 67 178 105t186 38q141 0 214.5 -77t53.5 -199
q-19 -118 -115.5 -190.5t-247.5 -72.5zM155 398l161 977h218l-161 -977h-218zM82 927l29 177h605l-29 -177h-605z" />
    <glyph glyph-name="uni0237" unicode="&#x237;" horiz-adv-x="501" 
d="M232 1104h219l-197 -1189q-17 -107 -69 -181.5t-135.5 -113t-195.5 -38.5h-54l30 187h41q74 0 114 38.5t52 115.5z" />
    <glyph glyph-name="uni0238" unicode="&#x238;" horiz-adv-x="1869" 
d="M1769 564l-3 -20q-27 -164 -101 -291.5t-184 -200t-246 -72.5q-99 0 -167 38.5t-108.5 110t-56 172.5t-7.5 227l10 51q44 170 116 294t174 191.5t235 67.5q135 0 219 -70.5t114.5 -198.5t4.5 -299zM1528 544l3 20q19 107 7.5 191.5t-59 134t-140.5 48.5q-121 1 -200 -83
t-117 -209l-30 -185q3 -81 24.5 -146t69.5 -103t130 -38q94 0 158 49t102 133t52 188zM760 221l211 1269h238l-248 -1490h-215zM99 544l3 20q26 171 99 299t183 198.5t246 70.5q133 0 212 -67.5t110 -191.5t19 -294l-10 -51q-43 -168 -115 -291t-172.5 -190t-232.5 -67
q-134 0 -220 72.5t-117.5 200t-4.5 291.5zM340 564l-3 -20q-15 -104 -6 -188t55 -133t141 -49q121 0 197.5 81.5t121.5 205.5l30 185q2 83 -19 149t-69.5 105t-130.5 38q-93 1 -157 -48.5t-103 -134t-57 -191.5z" />
    <glyph glyph-name="uni0239" unicode="&#x239;" horiz-adv-x="1869" 
d="M656 -416l217 1320l60 214h194l-15 -208l-219 -1326h-237zM99 544l3 20q28 170 101 298t182 199t245 71q131 0 210 -66.5t111 -190t20 -296.5l-10 -51q-43 -168 -115 -291t-172.5 -190t-232.5 -67q-134 0 -220 72.5t-117.5 200t-4.5 291.5zM340 564l-3 -20
q-16 -104 -7 -188t55.5 -133t141.5 -49q120 0 195.5 81t123.5 206l31 185q3 84 -19 150.5t-71.5 104.5t-129.5 37q-94 1 -158 -49t-103 -135t-56 -190zM1769 564l-3 -20q-27 -165 -101 -292.5t-184 -199.5t-246 -72q-98 0 -166.5 38.5t-109 110t-56 172.5t-7.5 227l10 51
q44 169 115.5 293.5t173.5 192t236 67.5q135 0 219.5 -71t115 -198.5t3.5 -298.5zM1528 544l3 20q19 107 7.5 191.5t-59 134t-140.5 48.5q-122 1 -199.5 -83t-116.5 -209l-31 -185q2 -83 24 -148t70.5 -102t129.5 -37q94 0 157.5 49t101.5 133t53 188z" />
    <glyph glyph-name="uni023A" unicode="&#x23a;" horiz-adv-x="1436" 
d="M1330 1678l-955 -1868h-150l955 1868h150zM-48 0l779 1490h278l292 -1490h-236l-152 831q-15 96 -34.5 234t-41.5 329h50q-82 -185 -145 -322.5t-114 -240.5l-423 -831h-253zM307 391l31 190h768l-31 -190h-768z" />
    <glyph glyph-name="uni023B" unicode="&#x23b;" horiz-adv-x="1498" 
d="M221 -190l953 1868h173l-953 -1868h-173zM700 -21q-174 0 -303.5 73t-200.5 208.5t-71 323.5q0 179 56 345t161.5 297.5t254 208t331.5 76.5q121 0 221 -34.5t173 -99.5t113 -159t39 -214h-228q-3 72 -27.5 128t-67.5 94.5t-101.5 58t-128.5 19.5q-135 0 -241 -61.5
t-180 -165t-112.5 -231t-38.5 -258.5q0 -130 45 -220t126 -136t191 -46q74 0 143 19.5t128.5 58t105.5 94t72 127.5h230q-37 -112 -103.5 -204.5t-157.5 -160.5t-200 -104.5t-229 -36.5z" />
    </font>
</defs>
</svg>
